<svg width="54" height="54" viewBox="0 0 54 54" fill="none" xmlns="http://www.w3.org/2000/svg">
<path d="M16.7531 14.2969C17.1755 14.1532 17.5761 13.9442 18.0203 13.8484C19.0176 13.635 19.9669 13.7613 20.8423 14.2621C23.0806 15.5381 25.2537 16.9098 27.209 18.6082C27.3135 18.6997 27.4006 18.8303 27.5835 18.6866C29.7348 17.0013 32.1169 15.7166 34.5905 14.58C35.1784 14.31 35.7489 14.0139 36.3977 13.9094C37.4211 13.7482 38.3618 13.9573 39.2458 14.4842C39.3198 14.5277 39.3982 14.5669 39.4766 14.6105C39.6552 14.8152 39.8511 14.9502 40.1342 14.8195C40.3737 14.8282 40.6176 14.7977 40.8571 14.8587C40.8745 14.9632 40.9006 15.0677 40.9137 15.1723C41.1489 16.9098 41.9632 18.3208 43.3045 19.4356C44.3105 20.2718 45.4732 20.8248 46.7144 21.2081C46.7318 21.2211 46.7448 21.2385 46.7623 21.2516L46.7579 21.2473C46.8624 21.6348 47.0845 21.9702 47.2544 22.3229C48.1471 24.1998 48.8439 26.1421 49.2358 28.1889C50.0676 32.5394 49.41 36.6373 47.0932 40.4347C45.8521 42.4727 44.341 44.2756 42.3682 45.6518C40.6394 46.8581 38.7319 47.5984 36.6242 47.8292C34.621 48.0469 32.6787 47.8031 30.7756 47.1368C30.1703 46.9234 29.5215 46.8406 28.9161 46.6185C28.4415 46.4444 27.9711 46.2615 27.5226 46.035C27.3919 45.9697 27.2874 45.9653 27.1524 46.035C25.8024 46.7492 24.374 47.2369 22.8585 47.4198C22.0224 47.52 21.2168 47.7639 20.3763 47.8423C19.035 47.9685 17.7068 47.9206 16.3916 47.6463C12.9818 46.9365 10.3906 45.016 8.39177 42.2289C6.99387 40.2823 5.97048 38.1571 5.4 35.8229C4.95145 33.9852 4.83387 32.1256 5.02984 30.24C5.30419 27.5966 6.15774 25.1405 7.37274 22.7976C8.48323 20.6463 9.88113 18.691 11.4097 16.8271C11.7842 16.3698 12.1239 15.8777 12.5637 15.4771C13.5653 14.5626 14.7498 14.2577 16.0781 14.4406C16.3263 14.4929 16.5745 14.5756 16.7531 14.2969ZM6.04452 32.1213C6.00968 33.1055 6.15774 34.2247 6.40597 35.3308C6.85016 37.3123 7.67323 39.1326 8.76629 40.8397C10.1642 43.0215 11.9497 44.7852 14.3492 45.8521C16.4439 46.784 18.63 47.0018 20.8858 46.6708C21.3344 46.6055 21.7611 46.4356 22.2053 46.3921C22.7366 46.3442 23.2592 46.2702 23.7731 46.1439C27.27 45.2816 29.8742 43.2697 31.5116 40.0471C32.5437 38.0134 33.0053 35.8229 33.1447 33.5671C33.21 32.4915 33.1665 31.4115 33.0097 30.3402C32.6831 28.154 31.9123 26.1421 30.7452 24.2739C29.2732 21.9135 27.3266 20.0018 25.1318 18.3208C23.7121 17.2321 22.1748 16.3132 20.6463 15.3944C20.189 15.12 19.71 14.9023 19.1656 14.8631C18.3034 14.8021 17.5369 15.0286 16.8794 15.5903C16.7531 15.6992 16.6311 15.7253 16.47 15.66C16.1477 15.5337 15.8081 15.4597 15.464 15.4597C14.4581 15.4553 13.6263 15.8342 12.9861 16.6181C12.6682 17.01 12.3503 17.4019 12.0324 17.7895C10.2469 19.98 8.68355 22.3098 7.57306 24.9184C6.61064 27.1698 6.01839 29.504 6.04452 32.1213ZM45.6997 39.2066C45.7171 39.211 45.7389 39.2197 45.7563 39.224C45.8826 38.9932 46.0176 38.7711 46.1395 38.536C46.6447 37.5431 47.0453 36.511 47.3327 35.431C47.6463 34.2595 47.7856 33.0663 47.8205 31.86C47.851 30.9542 47.7465 30.0484 47.6115 29.1513C47.446 28.0626 47.1716 26.9956 46.8276 25.9505C46.3398 24.4611 45.6779 23.0458 44.9463 21.6653C44.7808 21.3518 44.5979 21.0513 44.4194 20.7421C44.4324 20.9729 44.5065 21.1776 44.5674 21.3866C45.1292 23.3071 45.556 25.2537 45.8565 27.2308C45.9827 28.0539 46.0873 28.8813 46.1874 29.7131C46.2919 30.5753 46.3921 31.4463 46.4269 32.3085C46.4748 33.4277 46.4618 34.5469 46.3485 35.6661C46.2571 36.5763 46.1221 37.4777 45.9087 38.3705C45.8434 38.6492 45.7694 38.9279 45.6997 39.2066ZM29.97 19.2615C29.9352 19.1482 29.8785 19.1918 29.8306 19.231C29.5171 19.4574 29.2035 19.6839 28.89 19.906C28.694 20.0453 28.8334 20.1281 28.9292 20.2282C29.0294 20.3327 29.1034 20.3806 29.2166 20.2239C29.4344 19.9277 29.6739 19.649 29.9047 19.3616C29.9308 19.3311 29.9482 19.2919 29.97 19.2615ZM30.0789 19.1047C30.0832 19.1003 30.0919 19.096 30.0963 19.0916C30.0919 19.0873 30.0876 19.0829 30.0832 19.0786C30.0745 19.0873 30.0702 19.0916 30.0615 19.1003C30.0658 19.1003 30.0745 19.1047 30.0789 19.1047Z" fill="#AADE50"/>
<path d="M17.8984 12.4331C19.1134 9.65468 20.5244 7.03742 22.4535 4.725C20.1237 6.69339 18.4297 9.14516 17.0579 11.8495C16.8663 11.5708 16.6268 10.8566 16.5223 10.2905C16.0911 7.93887 16.8315 5.94871 18.3861 4.20677C19.5532 2.89597 20.9424 1.92919 22.6713 1.49806C23.355 1.32823 24.0474 1.27597 24.7529 1.31081C24.9227 1.31952 25.0229 1.38919 25.0926 1.54597C25.7197 2.96565 25.8329 4.43323 25.5063 5.93565C25.1056 7.78645 24.2782 9.41952 22.876 10.7129C21.4868 12.0019 19.8189 12.5158 17.8984 12.4331Z" fill="#3EA20F"/>
<path d="M46.7187 21.2037C45.4732 20.8205 44.3148 20.2674 43.3089 19.4313C41.9676 18.3208 41.1532 16.9055 40.9181 15.1679C40.905 15.0634 40.8789 14.9589 40.8615 14.8544C40.8615 14.5887 40.8658 14.3231 40.8571 14.0574C40.8527 13.8789 40.8832 13.8266 41.0748 13.9094C42.8124 14.6584 44.5065 15.4945 46.1047 16.5135C46.8973 17.0187 47.6594 17.5587 48.3779 18.164C48.4258 18.2032 48.4606 18.286 48.6218 18.2337C46.5837 15.9605 44.1276 14.3144 41.4014 12.96C41.9371 12.69 42.464 12.5289 43.0084 12.4244C45.0421 12.0324 46.8668 12.5202 48.5042 13.7569C50.2592 15.0852 51.5177 16.7531 51.9489 18.9653C52.049 19.4879 52.0882 20.0148 52.049 20.5505C52.036 20.7334 51.9706 20.8335 51.8052 20.9076C50.6816 21.4127 49.5058 21.5826 48.2864 21.4868C47.7726 21.4476 47.2805 21.3082 46.771 21.2429L46.7753 21.2473C46.7492 21.2298 46.7318 21.2168 46.7187 21.2037Z" fill="#3EA20F"/>
<path d="M16.7531 14.2969C16.5745 14.5756 16.3306 14.4973 16.0824 14.4319C15.9735 13.6611 15.8124 12.9034 15.4815 12.1935C15.2202 11.6318 14.8761 11.1353 14.31 10.8348C14.2229 10.7913 14.2011 10.7434 14.2229 10.6476C14.2752 10.4124 14.3448 10.186 14.4929 9.99436C14.7585 9.64597 15.1897 9.66774 15.4031 10.0423C16.1652 11.3618 16.5789 12.7902 16.7531 14.2969Z" fill="#6B3635"/>
<path d="M28.6766 45.5734C28.9597 45.6126 29.2471 45.6605 29.5302 45.6953C30.436 45.8129 31.32 45.8042 32.1997 45.7389C33.284 45.6561 34.3292 45.421 35.3526 45.0987C36.1452 44.8505 36.916 44.5108 37.6824 44.1581C38.414 43.8184 39.15 43.4787 39.8685 43.1085C41.5974 42.2202 43.2566 41.1489 44.8418 39.8816C45.0116 39.7466 45.1771 39.5898 45.3861 39.5158C45.164 39.8468 44.9463 40.1865 44.7155 40.5044C43.6921 41.9023 42.6121 43.2 41.4058 44.2582C40.5566 45.0029 39.6639 45.6518 38.7102 46.1395C37.9263 46.5402 37.1206 46.8973 36.2671 47.0584C35.1305 47.2718 33.9721 47.3327 32.7702 47.1368C31.664 46.9539 30.5579 46.5924 29.4561 46.0698C29.1948 45.9479 28.9379 45.7955 28.681 45.6605C28.681 45.6344 28.6766 45.6039 28.6766 45.5734Z" fill="#99CC66"/>
<path d="M40.1342 14.8195C39.8511 14.9502 39.6508 14.8108 39.4766 14.6105C39.7945 13.6437 40.0166 12.6682 39.8598 11.6405C39.8032 11.2747 39.6856 10.935 39.4592 10.6432C39.3808 10.5431 39.3895 10.4821 39.4679 10.395C39.6377 10.199 39.8076 10.0074 40.0558 9.91161C40.4042 9.78097 40.7352 9.97258 40.77 10.334C40.905 11.8147 40.6437 13.2431 40.1952 14.6453C40.1777 14.7019 40.156 14.7585 40.1342 14.8195Z" fill="#6A3635"/>
<path d="M6.04452 32.1213C6.01403 29.4997 6.60629 27.1698 7.56436 24.9184C8.67484 22.3055 10.2382 19.98 12.0237 17.7895C12.3416 17.3976 12.6595 17.0056 12.9774 16.6181C13.6176 15.8342 14.4494 15.4553 15.4553 15.4597C15.8037 15.4597 16.139 15.5381 16.4613 15.66C16.6224 15.721 16.74 15.6992 16.8706 15.5903C17.5282 15.0285 18.299 14.8021 19.1569 14.8631C19.7013 14.9023 20.1803 15.12 20.6376 15.3944C22.1661 16.3176 23.7034 17.2321 25.1231 18.3208C27.3179 20.0018 29.2645 21.9179 30.7365 24.2739C31.9035 26.1421 32.6744 28.154 33.001 30.3402C33.1621 31.4158 33.2056 32.4915 33.136 33.5671C32.9966 35.8229 32.535 38.0134 31.5029 40.0471C29.8655 43.2697 27.2613 45.2816 23.7644 46.1439C23.2505 46.2702 22.7279 46.3442 22.1966 46.3921C21.7524 46.4356 21.3256 46.6055 20.8771 46.6708C18.6213 47.0018 16.4352 46.784 14.3405 45.8521C11.941 44.7852 10.1555 43.0215 8.75758 40.8397C7.66887 39.1369 6.84581 37.3123 6.39726 35.3308C6.15774 34.2247 6.00968 33.1055 6.04452 32.1213ZM16.9011 25.8111C16.9098 24.8574 16.8402 23.9081 16.5789 22.9848C16.4656 22.5885 16.3045 22.214 16.0345 21.9048C15.5903 21.391 15.0155 21.3474 14.384 21.4519C13.5 21.5956 12.7466 21.9745 12.089 22.5711C11.1397 23.4334 10.5474 24.5221 10.1468 25.7153C9.48484 27.6706 9.22355 29.6826 9.34113 31.7511C9.39774 32.7266 9.56758 33.676 9.80274 34.6123C10.2034 36.2279 10.7869 37.7826 11.6056 39.2371C12.211 40.3084 12.9077 41.3144 13.9268 42.0547C14.6758 42.599 15.4945 42.9431 16.4308 42.9256C17.4368 42.9082 18.3382 42.5598 19.1352 41.9719C19.6577 41.5887 20.0366 41.0748 20.0845 40.3868C20.1237 39.8381 20.0236 39.3155 19.8494 38.8016C19.4574 37.6519 18.8695 36.5894 18.3513 35.4963C17.7111 34.1463 17.1406 32.7702 16.8663 31.2895C16.7313 30.5492 16.6268 29.8045 16.6877 29.0555C16.7835 27.9711 16.8968 26.8955 16.9011 25.8111ZM29.7044 33.2056C29.6913 32.7048 29.7 32.1997 29.6565 31.6989C29.5868 30.9106 29.504 30.1224 29.3429 29.3473C29.1556 28.4284 28.8595 27.5444 28.4894 26.6777C27.6576 24.7311 26.5906 22.9456 24.9445 21.5652C23.699 20.5244 22.3055 19.98 20.655 20.3415C19.9582 20.4939 19.4574 20.8684 19.3311 21.6087C19.2005 22.349 19.2876 23.085 19.4748 23.8079C19.8276 25.184 20.385 26.4818 20.999 27.7534C21.6479 29.0947 21.9397 30.5187 21.9876 31.995C22.0137 32.8485 22.005 33.7065 21.8961 34.56C21.8134 35.2045 21.796 35.8577 21.7219 36.5066C21.6131 37.4211 21.5608 38.3356 21.6827 39.2502C21.809 40.1995 22.3142 40.8702 23.2418 41.175C23.9255 41.3971 24.6266 41.4842 25.3495 41.384C26.0115 41.2926 26.6211 41.101 27.1611 40.7047C28.0539 40.0471 28.6026 39.1456 28.9727 38.1179C29.5432 36.5327 29.7218 34.8823 29.7044 33.2056Z" fill="#FD7774"/>
<path d="M45.6997 39.2066C45.7694 38.9279 45.8434 38.6492 45.9087 38.3705C46.1221 37.4821 46.2527 36.5806 46.3485 35.6661C46.4618 34.5469 46.4748 33.4234 46.4269 32.3085C46.3921 31.4419 46.2919 30.5753 46.1874 29.7131C46.0873 28.8856 45.9827 28.0582 45.8565 27.2308C45.556 25.2537 45.1292 23.3071 44.5674 21.3866C44.5065 21.1776 44.4324 20.9729 44.4194 20.7421C44.5935 21.0513 44.7808 21.3518 44.9463 21.6653C45.6823 23.0458 46.3398 24.4611 46.8276 25.9505C47.1716 26.9956 47.446 28.0626 47.6115 29.1513C47.7465 30.0484 47.8466 30.9498 47.8205 31.86C47.7813 33.0663 47.6419 34.2595 47.3327 35.431C47.0453 36.511 46.6447 37.5431 46.1395 38.536C46.0219 38.7711 45.8869 38.9932 45.7563 39.224C45.7389 39.2197 45.7171 39.211 45.6997 39.2066Z" fill="#BEF859"/>
<path d="M29.97 19.2615C29.9526 19.2919 29.9352 19.3311 29.909 19.3616C29.6782 19.649 29.4387 19.9277 29.221 20.2239C29.1077 20.3763 29.0337 20.3327 28.9335 20.2282C28.8377 20.1281 28.6984 20.041 28.8944 19.906C29.2079 19.6839 29.5215 19.4574 29.835 19.231C29.8786 19.1961 29.9308 19.1482 29.97 19.2615Z" fill="#BEF859"/>
<path d="M30.0789 19.1047C30.0745 19.1003 30.0658 19.1003 30.0615 19.096C30.0702 19.0873 30.0745 19.0829 30.0832 19.0742C30.0876 19.0785 30.0919 19.0829 30.0963 19.0873C30.0919 19.096 30.0832 19.1003 30.0789 19.1047Z" fill="#BEF859"/>
<path d="M46.7187 21.2037C46.7361 21.2168 46.7492 21.2342 46.7666 21.2473C46.7492 21.2298 46.7318 21.2168 46.7187 21.2037Z" fill="#FDFDFD"/>
<path d="M16.9011 25.8111C16.8968 26.8955 16.7835 27.9755 16.6965 29.0555C16.6355 29.8045 16.74 30.5535 16.875 31.2895C17.145 32.7702 17.7198 34.1419 18.36 35.4963C18.8782 36.5894 19.4618 37.6519 19.8581 38.8016C20.0323 39.3155 20.1324 39.8424 20.0932 40.3868C20.0453 41.0792 19.6665 41.5887 19.1439 41.9719C18.3469 42.5598 17.4455 42.9039 16.4395 42.9256C15.4989 42.9431 14.6802 42.599 13.9355 42.0547C12.9165 41.3187 12.2197 40.3084 11.6144 39.2371C10.7956 37.7826 10.2121 36.2279 9.81145 34.6123C9.57629 33.6716 9.40645 32.7223 9.34984 31.7511C9.23226 29.6826 9.49355 27.6706 10.1555 25.7153C10.5605 24.5221 11.1484 23.4334 12.0977 22.5711C12.7553 21.9745 13.5131 21.5956 14.3927 21.4519C15.0198 21.3474 15.599 21.391 16.0432 21.9048C16.3132 22.214 16.4744 22.5885 16.5876 22.9848C16.8402 23.9081 16.9055 24.8531 16.9011 25.8111ZM16.1826 39.751C16.1782 39.6682 16.1129 39.6856 16.065 39.6856C15.8168 39.6813 15.5773 39.7335 15.3377 39.7945C15.1766 39.8381 14.9937 39.8947 15.059 40.1255C15.1244 40.3606 15.3682 40.4608 15.5816 40.3606C15.8385 40.2387 15.991 40.0079 16.1608 39.7945C16.1695 39.7858 16.1739 39.7684 16.1826 39.751ZM14.911 23.3158C15.0547 23.3463 15.2071 23.2766 15.3639 23.2592C15.4031 23.2548 15.4597 23.2331 15.4727 23.2026C15.5032 23.1416 15.4423 23.1068 15.4074 23.0806C15.2071 22.9239 14.9981 22.7758 14.7629 22.6756C14.654 22.6277 14.5365 22.5842 14.445 22.6844C14.3405 22.7932 14.3187 22.9326 14.3884 23.0763C14.4885 23.2984 14.6802 23.3245 14.911 23.3158ZM15.2724 28.3065C14.9894 28.1366 14.7281 28.0756 14.4624 28.019C14.2708 27.9798 14.0966 27.9755 14.04 28.2019C13.9877 28.4023 14.1837 28.62 14.4015 28.6287C14.7237 28.6418 14.9719 28.4806 15.2724 28.3065ZM14.715 37.395C14.7629 37.395 14.7716 37.395 14.7803 37.395C14.9894 37.3732 15.4292 36.7592 15.3856 36.5545C15.3726 36.4892 15.329 36.4892 15.2855 36.5066C15.0198 36.5981 14.7455 36.6765 14.5234 36.8637C14.4232 36.9508 14.3492 37.0553 14.4058 37.186C14.4755 37.3297 14.6061 37.3863 14.715 37.395ZM13.2344 24.4263C13.0253 24.1127 12.8685 23.8253 12.5681 23.6468C12.3808 23.5335 12.2719 23.6076 12.1979 23.7861C12.1195 23.9734 12.1544 24.1432 12.3329 24.2434C12.5985 24.3871 12.886 24.4394 13.2344 24.4263ZM13.4085 38.8277C13.2431 38.8539 13.0558 38.8626 12.8773 38.9105C12.7161 38.954 12.4984 38.9845 12.5855 39.2458C12.6682 39.4984 12.8685 39.5768 13.1081 39.4766C13.2866 39.4026 13.4042 39.2589 13.5348 39.1282C13.6045 39.0585 13.7047 38.9802 13.6785 38.8887C13.6481 38.7755 13.5131 38.8582 13.4085 38.8277ZM15.8473 29.3429C15.5816 29.1948 15.3334 29.1034 15.0677 29.0381C14.924 28.9989 14.789 28.9815 14.6758 29.099C14.5713 29.2079 14.6366 29.3342 14.6758 29.4474C14.7324 29.6042 14.8587 29.6477 15.0111 29.6434C15.3116 29.6347 15.5729 29.5302 15.8473 29.3429ZM12.7335 36.0058C12.7335 35.8969 12.6552 35.9013 12.5898 35.9231C12.346 36.0014 12.1065 36.0973 11.9061 36.2584C11.7885 36.3542 11.6579 36.4631 11.806 36.6329C11.9366 36.781 12.1021 36.8768 12.2937 36.7461C12.5506 36.5676 12.616 36.2715 12.7335 36.0058ZM15.3595 25.5368C15.1374 25.3016 14.8979 25.1579 14.6453 25.0316C14.4929 24.9532 14.3274 24.8835 14.2229 25.1056C14.1271 25.3147 14.2055 25.515 14.4276 25.5977C14.7368 25.7153 15.0285 25.6282 15.3595 25.5368ZM13.3084 26.6603C13.021 26.4513 12.7902 26.2292 12.481 26.129C12.2545 26.055 12.1195 26.1508 12.1152 26.386C12.1108 26.6298 12.2676 26.7431 12.4766 26.7648C12.7379 26.791 13.0035 26.7953 13.3084 26.6603ZM12.6944 30.8671C12.8642 30.8671 13.3476 30.5753 13.4477 30.4055C13.4956 30.3271 13.4695 30.2792 13.3868 30.2879C13.1255 30.3053 12.8729 30.1877 12.6029 30.2705C12.4505 30.3184 12.285 30.3445 12.3068 30.5318C12.3242 30.7234 12.4374 30.8758 12.6944 30.8671ZM15.9866 31.1458C15.6295 31.0674 15.3073 31.0282 14.985 31.1197C14.8021 31.1719 14.7498 31.2852 14.8326 31.4637C14.9415 31.6989 15.1113 31.7598 15.3508 31.6597C15.6034 31.5595 15.7906 31.381 15.9866 31.1458ZM15.6295 34.2639C15.8473 34.2595 16.3306 33.8806 16.3873 33.6629C16.4177 33.554 16.335 33.5758 16.2784 33.5714C16.0127 33.5627 15.7558 33.5976 15.5032 33.676C15.3682 33.7195 15.2202 33.7935 15.2724 33.9677C15.3203 34.1376 15.4292 34.2682 15.6295 34.2639ZM11.7102 29.7915C11.4227 29.5781 11.1658 29.4169 10.8523 29.3777C10.726 29.3603 10.5431 29.3168 10.5213 29.5258C10.4995 29.7131 10.5082 29.9003 10.7434 29.97C11.0874 30.0702 11.3705 29.9134 11.7102 29.7915ZM11.6927 27.344C11.4227 27.0915 11.1615 26.8998 10.8566 26.7866C10.6606 26.7169 10.5344 26.8171 10.5169 27.0218C10.4995 27.2134 10.5823 27.3397 10.7652 27.405C11.0744 27.5226 11.3618 27.4181 11.6927 27.344ZM17.82 37.0858C17.4803 37.0727 17.1581 37.0466 16.8532 37.1816C16.6529 37.2731 16.6181 37.4342 16.7574 37.604C16.9098 37.7869 17.0884 37.7956 17.2713 37.6737C17.4934 37.5256 17.6937 37.3558 17.82 37.0858ZM18.2163 40.5871C18.3382 40.5871 18.8565 40.095 18.8434 39.9077C18.839 39.8294 18.7737 39.8381 18.7258 39.8424C18.4602 39.8642 18.2032 39.9034 17.9594 40.0253C17.8374 40.0863 17.7024 40.1647 17.7634 40.3214C17.8244 40.4739 17.9376 40.5958 18.2163 40.5871ZM16.2348 42.2811C16.3829 42.2463 16.4918 42.1592 16.5658 42.0373C16.679 41.8544 16.7052 41.641 16.7618 41.4406C16.7748 41.3884 16.801 41.3318 16.7444 41.2969C16.6921 41.2665 16.6398 41.3013 16.5963 41.3274C16.3873 41.4581 16.1739 41.58 16.004 41.7629C15.9126 41.8587 15.8385 41.9632 15.9039 42.0895C15.9692 42.2158 16.1129 42.2419 16.2348 42.2811ZM11.1919 32.0298C11.144 32.0298 11.1179 32.0298 11.0918 32.0298C10.9568 32.0298 10.8131 32.0168 10.7477 32.1692C10.6911 32.3042 10.7434 32.4305 10.8392 32.535C10.9437 32.6482 11.0656 32.6831 11.2224 32.6264C11.4227 32.5524 11.6056 32.4479 11.7798 32.326C11.8277 32.2911 11.8974 32.2606 11.8756 32.1866C11.8582 32.1256 11.7885 32.13 11.7406 32.1213C11.5534 32.0734 11.3661 32.0168 11.1919 32.0298ZM13.4347 33.4147C13.3911 33.4147 13.3476 33.4147 13.304 33.4147C13.1516 33.4147 12.9905 33.4103 12.9208 33.5802C12.8729 33.7021 12.9339 33.824 13.0166 33.9198C13.1385 34.0592 13.291 34.0679 13.4434 33.9939C13.5827 33.9242 13.7221 33.8458 13.8527 33.7587C13.9311 33.7065 14.0487 33.6455 14.04 33.554C14.0269 33.4277 13.8789 33.4931 13.8005 33.4582C13.6829 33.406 13.5566 33.4147 13.4347 33.4147ZM16.2827 27.2874C16.004 27.1045 15.7602 26.9695 15.4858 26.8998C15.3465 26.865 15.1592 26.7953 15.0895 27.0218C15.0198 27.2613 15.1374 27.479 15.3639 27.5052C15.6774 27.54 15.9648 27.4311 16.2827 27.2874ZM16.8968 34.5165C16.8837 34.4511 16.9273 34.3684 16.8489 34.3466C16.8097 34.3335 16.7444 34.364 16.7052 34.3902C16.5135 34.5165 16.3176 34.634 16.1608 34.8082C16.0476 34.9302 15.9779 35.0521 16.1042 35.2002C16.2392 35.3569 16.4439 35.3613 16.5963 35.2263C16.8184 35.0347 16.8271 34.756 16.8968 34.5165ZM12.1456 34.0548C11.7973 33.9242 11.5273 33.7848 11.2094 33.7848C11.0613 33.7848 10.8958 33.7544 10.8915 33.9895C10.8871 34.216 11.009 34.3597 11.2224 34.3771C11.549 34.3989 11.8103 34.229 12.1456 34.0548Z" fill="#F0534F"/>
<path d="M29.7044 33.2056C29.7218 34.8823 29.5432 36.5327 28.9727 38.1223C28.6026 39.15 28.0539 40.0515 27.1611 40.709C26.6255 41.1053 26.0115 41.3013 25.3495 41.3884C24.6223 41.4885 23.9255 41.4015 23.2418 41.1794C22.3142 40.8745 21.8134 40.2039 21.6827 39.2545C21.5608 38.34 21.6131 37.4255 21.7219 36.511C21.8003 35.8665 21.8134 35.2089 21.8961 34.5644C22.005 33.7108 22.0181 32.8529 21.9876 31.9994C21.9397 30.5231 21.6479 29.099 20.999 27.7577C20.385 26.4861 19.8276 25.1884 19.4748 23.8123C19.2876 23.0894 19.2005 22.3534 19.3311 21.6131C19.4618 20.8727 19.9582 20.4982 20.655 20.3458C22.3011 19.9844 23.699 20.5287 24.9445 21.5695C26.5906 22.95 27.6576 24.7355 28.4894 26.6821C28.8595 27.5444 29.1556 28.4284 29.3429 29.3516C29.4997 30.1268 29.5868 30.915 29.6565 31.7032C29.7044 32.1997 29.6913 32.7048 29.7044 33.2056ZM23.699 25.2319C24.0474 25.2058 24.3392 25.1535 24.5918 24.9837C24.779 24.8574 24.7877 24.6353 24.6397 24.4481C24.4873 24.2521 24.3479 24.3479 24.2173 24.4698C24.0082 24.6745 23.8558 24.9184 23.699 25.2319ZM23.0066 23.0981C23.1285 23.0415 23.2113 23.0066 23.2897 22.9631C23.4856 22.8585 23.6903 22.7671 23.8035 22.5624C23.9081 22.3795 23.834 22.14 23.6424 22.0398C23.4377 21.9353 23.3463 22.0965 23.2766 22.2315C23.1373 22.4884 23.0371 22.7627 23.0066 23.0981ZM26.865 29.9177C27.1437 30.0527 27.3919 30.1224 27.6619 30.1137C27.7708 30.1094 27.8666 30.0658 27.945 29.9874C28.08 29.8611 28.0887 29.7044 28.006 29.5519C27.9276 29.4039 27.7969 29.43 27.6619 29.4735C27.3832 29.5606 27.1394 29.7174 26.865 29.9177ZM20.4155 22.7323C20.7595 22.7148 21.0556 22.6582 21.3126 22.4753C21.4911 22.3447 21.4955 22.1487 21.3648 21.9658C21.2124 21.7568 21.06 21.87 20.9381 21.9745C20.7116 22.1748 20.5635 22.4318 20.4155 22.7323ZM22.2227 28.6113C22.3055 28.6287 22.349 28.6331 22.3926 28.6418C22.6582 28.7115 22.9195 28.6984 23.1634 28.5765C23.3724 28.4719 23.4247 28.2629 23.3071 28.0626C23.1895 27.871 23.0415 27.9406 22.8977 28.0234C22.6452 28.1715 22.4274 28.3631 22.2227 28.6113ZM24.7573 28.7332C24.8835 28.7942 24.9794 28.8508 25.0839 28.8856C25.2581 28.9423 25.4323 29.0163 25.6239 28.9945C25.8373 28.9727 26.0027 28.7594 25.9679 28.5634C25.9244 28.3326 25.7415 28.3326 25.576 28.3674C25.2929 28.424 25.0185 28.5242 24.7573 28.7332ZM22.9456 39.5027C23.2156 39.7161 23.4377 39.9165 23.7469 39.9731C23.9516 40.0123 24.1519 39.8642 24.1737 39.6465C24.1955 39.4069 24.03 39.3765 23.8515 39.3634C23.5553 39.3503 23.2723 39.3895 22.9456 39.5027ZM25.4148 40.1037C25.5368 40.4347 25.7197 40.6742 25.981 40.8484C26.1682 40.9747 26.3903 40.8963 26.4861 40.6829C26.5776 40.4869 26.4556 40.3955 26.2989 40.3214C26.0289 40.1865 25.7371 40.1473 25.4148 40.1037ZM26.251 27.6053C26.5863 27.6445 26.865 27.6184 27.1306 27.5139C27.3527 27.4268 27.4224 27.209 27.3092 26.9913C27.1873 26.7561 27.0087 26.8432 26.8694 26.9521C26.6385 27.1263 26.4295 27.3266 26.251 27.6053ZM26.2815 38.2486C26.0332 38.2573 25.8024 38.34 25.5629 38.401C25.441 38.4358 25.4453 38.5011 25.5324 38.5577C25.7502 38.7058 25.981 38.8408 26.2466 38.8756C26.4556 38.9061 26.6124 38.7494 26.6211 38.5273C26.6385 38.2834 26.4774 38.2398 26.2815 38.2486ZM23.1198 32.7789C23.355 32.9923 23.6032 33.1098 23.8776 33.1839C24.0344 33.2274 24.1563 33.1621 24.2477 33.0489C24.3261 32.9487 24.3697 32.8268 24.3174 32.7048C24.2521 32.5568 24.1084 32.5611 23.9777 32.5698C23.686 32.5873 23.4116 32.6613 23.1198 32.7789ZM23.625 34.425C23.8035 34.4076 23.9516 34.3161 24.0039 34.1506C24.0561 33.9808 23.9081 33.8981 23.7861 33.8371C23.6685 33.7805 23.5423 33.7326 23.416 33.7065C23.2766 33.6803 23.085 33.5453 22.9979 33.6673C22.889 33.811 23.085 33.946 23.1677 34.0679C23.2723 34.229 23.3942 34.3989 23.625 34.425ZM22.95 27.5226C23.1155 27.5182 23.2723 27.5008 23.4029 27.405C23.5858 27.27 23.5858 27.0784 23.49 26.9129C23.3942 26.7474 23.2244 26.804 23.0937 26.8781C22.9195 26.9782 22.7584 27.1002 22.5973 27.2221C22.5319 27.27 22.4231 27.3223 22.4492 27.4181C22.4753 27.5052 22.5885 27.4573 22.6626 27.479C22.7584 27.5052 22.8585 27.5095 22.95 27.5226ZM25.4671 25.2842C25.8024 25.2885 26.0855 25.2319 26.3294 25.0665C26.4905 24.9532 26.521 24.6745 26.3947 24.5221C26.2379 24.3348 26.0811 24.4524 25.9635 24.5656C25.7545 24.7529 25.589 24.9794 25.4671 25.2842ZM22.6974 30.3532C22.9979 30.5231 23.2897 30.6319 23.6163 30.5971C23.7992 30.5797 23.9342 30.3881 23.9037 30.1921C23.8776 30.0266 23.7644 29.9395 23.6032 29.97C23.2853 30.0397 22.9848 30.1529 22.6974 30.3532ZM27.7752 33.6803C27.6576 33.6803 27.5705 33.6803 27.479 33.6803C27.4006 33.6803 27.344 33.7195 27.4137 33.7892C27.614 33.9939 27.7708 34.2552 28.08 34.3292C28.2803 34.3771 28.4458 34.2682 28.5111 34.0461C28.5721 33.8327 28.4023 33.7848 28.2673 33.7413C28.0974 33.689 27.9232 33.6585 27.7752 33.6803ZM27.3615 31.7598C27.6968 31.8469 28.0016 31.8644 28.3021 31.7598C28.4763 31.6989 28.5503 31.4463 28.4632 31.2634C28.3718 31.0761 28.2194 31.1153 28.08 31.185C27.8144 31.3156 27.5835 31.4855 27.3615 31.7598ZM22.9761 36.5806C23.3027 36.7418 23.5553 36.929 23.8819 36.9247C24.1302 36.9203 24.1911 36.7374 24.2129 36.5502C24.239 36.3368 24.0431 36.315 23.9037 36.315C23.5989 36.3237 23.3027 36.3934 22.9761 36.5806ZM28.3021 36.5981C28.0495 36.5937 27.8144 36.6677 27.5835 36.7635C27.5095 36.794 27.4442 36.8419 27.5531 36.9073C27.7752 37.051 28.006 37.1903 28.2847 37.1903C28.5068 37.1903 28.6853 37.0292 28.681 36.8158C28.6679 36.5632 28.4676 36.6024 28.3021 36.5981ZM25.2798 31.9427C25.5977 32.0995 25.8721 32.1692 26.1682 32.1387C26.386 32.1169 26.4905 31.9427 26.4644 31.6945C26.4426 31.5116 26.3119 31.4811 26.1769 31.5073C25.859 31.5769 25.5803 31.7337 25.2798 31.9427ZM21.5869 24.8574C21.809 24.8008 22.0573 24.766 22.2619 24.6135C22.4361 24.4873 22.4579 24.2695 22.3229 24.0997C22.1835 23.9342 22.0442 23.9952 21.9092 24.1084C21.7089 24.2739 21.5826 24.5003 21.4476 24.7137C21.3648 24.84 21.4694 24.8574 21.5869 24.8574ZM25.1187 35.161C25.1318 35.2873 25.2189 35.3656 25.2842 35.431C25.441 35.5921 25.6021 35.7706 25.846 35.8011C26.0594 35.8316 26.1856 35.7053 26.2423 35.5224C26.3032 35.3265 26.1552 35.2611 26.0027 35.2132C25.7153 35.1261 25.4235 35.1784 25.1187 35.161ZM21.465 26.8258C21.7089 26.8302 21.944 26.804 22.1269 26.6168C22.2706 26.4731 22.2402 26.3032 22.1356 26.1595C22.0268 26.0071 21.8831 26.0768 21.7568 26.1508C21.5347 26.2858 21.3692 26.4818 21.2124 26.6821C21.134 26.7779 21.1645 26.8215 21.2821 26.8258C21.3387 26.8258 21.404 26.8258 21.465 26.8258Z" fill="#F0534F"/>
<path d="M16.1826 39.751C16.1739 39.7684 16.1695 39.7858 16.1608 39.7989C15.9953 40.0123 15.8429 40.2431 15.5816 40.365C15.3682 40.4652 15.1244 40.3606 15.059 40.1298C14.9937 39.899 15.1766 39.8381 15.3377 39.7989C15.5729 39.7379 15.8168 39.6856 16.065 39.69C16.1129 39.69 16.1782 39.6682 16.1826 39.751Z" fill="#F4A73B"/>
<path d="M14.911 23.3158C14.6802 23.3289 14.4885 23.2984 14.384 23.0763C14.3187 22.9326 14.3361 22.7932 14.4406 22.6844C14.5321 22.5842 14.6497 22.6277 14.7585 22.6756C14.9937 22.7802 15.2027 22.9239 15.4031 23.0806C15.4423 23.1111 15.5032 23.146 15.4684 23.2026C15.451 23.2331 15.3987 23.2548 15.3595 23.2592C15.2071 23.2723 15.0547 23.3419 14.911 23.3158Z" fill="#F4A63B"/>
<path d="M15.2724 28.3065C14.9719 28.4763 14.7194 28.6418 14.4058 28.6287C14.1881 28.62 13.9921 28.4066 14.0444 28.2019C14.101 27.9755 14.2708 27.9755 14.4668 28.019C14.7324 28.08 14.9937 28.141 15.2724 28.3065Z" fill="#F4A63B"/>
<path d="M14.715 37.395C14.6061 37.3863 14.4755 37.3297 14.4102 37.186C14.3535 37.051 14.4276 36.9508 14.5277 36.8637C14.7498 36.6721 15.0198 36.5981 15.2898 36.5066C15.329 36.4935 15.3769 36.4935 15.39 36.5545C15.4335 36.7592 14.9937 37.3732 14.7847 37.395C14.7716 37.3994 14.7629 37.395 14.715 37.395Z" fill="#F3A63B"/>
<path d="M13.2344 24.4263C12.886 24.435 12.5985 24.3871 12.3373 24.239C12.1587 24.1389 12.1239 23.9734 12.2023 23.7818C12.2763 23.6076 12.3852 23.5335 12.5724 23.6424C12.8685 23.8253 13.0253 24.1171 13.2344 24.4263Z" fill="#F4A63B"/>
<path d="M13.4085 38.8277C13.5131 38.8626 13.6481 38.7755 13.6829 38.8931C13.709 38.9802 13.6089 39.0629 13.5392 39.1326C13.4085 39.2632 13.291 39.4026 13.1124 39.481C12.8685 39.5811 12.6726 39.5027 12.5898 39.2502C12.5027 38.9889 12.7205 38.9584 12.8816 38.9148C13.0558 38.8626 13.2431 38.8539 13.4085 38.8277Z" fill="#F4A63B"/>
<path d="M15.8473 29.3429C15.5729 29.5302 15.3116 29.6347 15.0155 29.6434C14.8631 29.6477 14.7324 29.6042 14.6802 29.4474C14.641 29.3342 14.5756 29.2123 14.6802 29.099C14.7934 28.9814 14.924 29.0032 15.0721 29.0381C15.3334 29.1077 15.5816 29.1948 15.8473 29.3429Z" fill="#F4A63B"/>
<path d="M12.7335 36.0058C12.616 36.2715 12.5506 36.5719 12.2937 36.7461C12.1021 36.8768 11.9366 36.781 11.806 36.6329C11.6579 36.4674 11.7929 36.3542 11.9061 36.2584C12.1065 36.0973 12.346 36.0014 12.5898 35.9231C12.6552 35.9013 12.7335 35.8969 12.7335 36.0058Z" fill="#F3A63B"/>
<path d="M15.3595 25.5368C15.0285 25.6282 14.7368 25.7153 14.4276 25.6021C14.2055 25.5194 14.1227 25.319 14.2229 25.11C14.3274 24.8835 14.4929 24.9576 14.6453 25.036C14.8979 25.1579 15.1374 25.3016 15.3595 25.5368Z" fill="#F4A63B"/>
<path d="M13.3084 26.6603C13.0035 26.7997 12.7379 26.791 12.4766 26.7648C12.2676 26.7431 12.1108 26.6298 12.1152 26.386C12.1195 26.1508 12.2589 26.055 12.481 26.129C12.7902 26.2292 13.021 26.4513 13.3084 26.6603Z" fill="#F4A63B"/>
<path d="M12.6944 30.8671C12.4374 30.8758 12.3242 30.7234 12.3068 30.5318C12.285 30.3445 12.4505 30.3184 12.6029 30.2705C12.8729 30.1834 13.1255 30.3053 13.3868 30.2879C13.4695 30.2836 13.4913 30.3271 13.4477 30.4055C13.3476 30.5753 12.8642 30.8671 12.6944 30.8671Z" fill="#F4A73A"/>
<path d="M15.9866 31.1458C15.795 31.381 15.6034 31.5552 15.3508 31.664C15.1069 31.7642 14.9415 31.7032 14.8326 31.4681C14.7498 31.2895 14.8065 31.1763 14.985 31.124C15.3073 31.0282 15.6295 31.0674 15.9866 31.1458Z" fill="#F3A63B"/>
<path d="M15.6295 34.2639C15.4292 34.2682 15.3203 34.1332 15.2724 33.9721C15.2202 33.7935 15.3682 33.7239 15.5032 33.6803C15.7558 33.6019 16.0127 33.5627 16.2784 33.5758C16.335 33.5802 16.4177 33.5584 16.3873 33.6673C16.3306 33.8806 15.8473 34.2639 15.6295 34.2639Z" fill="#F3A63B"/>
<path d="M11.7102 29.7915C11.3705 29.9134 11.0874 30.0702 10.7477 29.97C10.5082 29.9003 10.5039 29.7131 10.5256 29.5258C10.5518 29.3124 10.7303 29.3603 10.8566 29.3777C11.1658 29.4169 11.4271 29.5781 11.7102 29.7915Z" fill="#F4A63B"/>
<path d="M11.6927 27.344C11.3574 27.4181 11.07 27.5182 10.7652 27.4094C10.5823 27.344 10.5039 27.2177 10.5169 27.0261C10.5344 26.8171 10.6606 26.7169 10.8566 26.791C11.1658 26.9042 11.4227 27.0915 11.6927 27.344Z" fill="#F4A63B"/>
<path d="M17.82 37.0858C17.6894 37.3558 17.4934 37.5256 17.2713 37.6737C17.084 37.8 16.9055 37.7869 16.7574 37.604C16.6181 37.4342 16.6485 37.2687 16.8532 37.1816C17.1624 37.0466 17.4847 37.0771 17.82 37.0858Z" fill="#F4A73B"/>
<path d="M18.2163 40.5871C17.9376 40.5958 17.8244 40.4695 17.7634 40.3258C17.6981 40.169 17.8331 40.0906 17.9594 40.0297C18.1989 39.9077 18.4602 39.8642 18.7258 39.8468C18.7737 39.8424 18.839 39.8294 18.8434 39.9121C18.8521 40.0994 18.3382 40.5871 18.2163 40.5871Z" fill="#F4A73A"/>
<path d="M16.2348 42.2811C16.1129 42.2376 15.9692 42.2158 15.9039 42.0895C15.8385 41.9632 15.9126 41.8587 16.004 41.7629C16.1739 41.58 16.3873 41.4537 16.5963 41.3274C16.6398 41.3013 16.6921 41.2665 16.7444 41.2969C16.801 41.3318 16.7748 41.3884 16.7618 41.4406C16.7095 41.6453 16.679 41.8544 16.5658 42.0373C16.4918 42.1635 16.3873 42.2506 16.2348 42.2811Z" fill="#F3A63B"/>
<path d="M11.1919 32.0298C11.3705 32.0168 11.5577 32.0734 11.745 32.1169C11.7929 32.1256 11.8626 32.1213 11.88 32.1823C11.8974 32.2563 11.8277 32.2911 11.7842 32.3216C11.61 32.4436 11.4271 32.5481 11.2268 32.6221C11.07 32.6787 10.9481 32.6482 10.8435 32.5306C10.7521 32.4261 10.6955 32.2998 10.7521 32.1648C10.8174 32.0124 10.9611 32.0255 11.0961 32.0255C11.1179 32.0298 11.144 32.0298 11.1919 32.0298Z" fill="#F4A73A"/>
<path d="M13.4347 33.4147C13.5566 33.419 13.6829 33.406 13.8005 33.4539C13.8832 33.4887 14.0269 33.4234 14.04 33.5497C14.0487 33.6411 13.9311 33.7021 13.8527 33.7544C13.7221 33.8415 13.5827 33.9198 13.4434 33.9895C13.2866 34.0679 13.1342 34.0592 13.0166 33.9155C12.9339 33.8197 12.8729 33.6977 12.9208 33.5758C12.9861 33.406 13.1516 33.4147 13.304 33.4103C13.3476 33.4147 13.3911 33.4147 13.4347 33.4147Z" fill="#F4A73B"/>
<path d="M16.2827 27.2874C15.9648 27.4311 15.6818 27.54 15.3682 27.5008C15.1374 27.4747 15.0242 27.2569 15.0939 27.0174C15.1592 26.791 15.3465 26.8606 15.4902 26.8955C15.7602 26.9695 16.004 27.1045 16.2827 27.2874Z" fill="#F4A73A"/>
<path d="M16.8968 34.5165C16.8227 34.7603 16.814 35.0347 16.6006 35.2263C16.4482 35.3613 16.2435 35.3526 16.1085 35.2002C15.9823 35.0521 16.0519 34.9302 16.1652 34.8082C16.3219 34.634 16.5179 34.5165 16.7095 34.3902C16.7487 34.364 16.814 34.3335 16.8532 34.3466C16.9273 34.3684 16.8837 34.4511 16.8968 34.5165Z" fill="#F4A73A"/>
<path d="M12.1456 34.0548C11.8103 34.229 11.549 34.3989 11.2224 34.3727C11.009 34.3553 10.8827 34.2073 10.8915 33.9852C10.8958 33.75 11.0656 33.7805 11.2094 33.7805C11.5229 33.7848 11.7973 33.9242 12.1456 34.0548Z" fill="#F4A73A"/>
<path d="M23.699 25.2319C23.8514 24.9184 24.0039 24.6745 24.2216 24.4742C24.3523 24.3523 24.4916 24.2565 24.644 24.4524C24.7921 24.6397 24.779 24.8574 24.5961 24.9881C24.3392 25.1535 24.0474 25.2058 23.699 25.2319Z" fill="#F4A63B"/>
<path d="M23.0066 23.0981C23.0371 22.7627 23.1373 22.4927 23.2723 22.2358C23.3463 22.1008 23.4334 21.9397 23.6381 22.0442C23.8297 22.1444 23.9037 22.3839 23.7992 22.5668C23.6816 22.7671 23.4769 22.8629 23.2853 22.9674C23.2113 23.0066 23.1285 23.0371 23.0066 23.0981Z" fill="#F4A73B"/>
<path d="M26.865 29.9177C27.1394 29.7174 27.3789 29.5606 27.6619 29.4779C27.8013 29.4344 27.9276 29.4082 28.006 29.5563C28.0887 29.7087 28.08 29.8611 27.945 29.9918C27.8666 30.0658 27.7708 30.1137 27.6619 30.1181C27.3919 30.1224 27.1437 30.0527 26.865 29.9177Z" fill="#F3A63B"/>
<path d="M20.4155 22.7323C20.5592 22.4274 20.7116 22.1705 20.9381 21.9745C21.06 21.87 21.2124 21.7568 21.3648 21.9658C21.4998 22.1487 21.4955 22.349 21.3126 22.4753C21.0556 22.6582 20.7595 22.7192 20.4155 22.7323Z" fill="#F3A63B"/>
<path d="M22.2227 28.6113C22.4274 28.3587 22.6452 28.1715 22.8934 28.0234C23.0371 27.9406 23.1852 27.871 23.3027 28.0626C23.4247 28.2585 23.3681 28.4719 23.159 28.5765C22.9152 28.6984 22.6539 28.7115 22.3882 28.6418C22.349 28.6331 22.3055 28.6287 22.2227 28.6113Z" fill="#F3A63B"/>
<path d="M24.7573 28.7332C25.0185 28.5242 25.2885 28.424 25.576 28.3674C25.7415 28.3326 25.9244 28.3326 25.9679 28.5634C26.0027 28.7594 25.8373 28.9684 25.6239 28.9945C25.4366 29.0163 25.2581 28.9423 25.0839 28.8856C24.9794 28.8508 24.8835 28.7942 24.7573 28.7332Z" fill="#F4A63B"/>
<path d="M22.9456 39.5027C23.2679 39.3895 23.5553 39.346 23.8471 39.3634C24.0256 39.3721 24.1955 39.4069 24.1694 39.6465C24.1476 39.8642 23.9516 40.0123 23.7426 39.9731C23.4377 39.9165 23.2156 39.7161 22.9456 39.5027Z" fill="#F3A63B"/>
<path d="M25.4148 40.1037C25.7371 40.1473 26.0289 40.1865 26.2989 40.3214C26.46 40.3998 26.5776 40.4913 26.4861 40.6829C26.386 40.8963 26.1639 40.9747 25.981 40.8484C25.724 40.6742 25.5368 40.4303 25.4148 40.1037Z" fill="#F3A63B"/>
<path d="M26.251 27.6053C26.4339 27.3266 26.6385 27.1263 26.865 26.9521C27.0044 26.8432 27.1829 26.7561 27.3048 26.9913C27.4224 27.209 27.3484 27.4268 27.1263 27.5139C26.8606 27.6184 26.5819 27.6445 26.251 27.6053Z" fill="#F3A63B"/>
<path d="M26.2815 38.2486C26.4818 38.2442 26.6385 38.2834 26.6255 38.5316C26.6124 38.7537 26.46 38.9105 26.251 38.88C25.9853 38.8408 25.7545 38.7058 25.5368 38.5621C25.4497 38.5011 25.4453 38.4358 25.5673 38.4053C25.7981 38.3356 26.0332 38.2573 26.2815 38.2486Z" fill="#F3A63B"/>
<path d="M23.1198 32.7789C23.4116 32.6613 23.6903 32.5873 23.9777 32.5655C24.1127 32.5568 24.2521 32.5524 24.3174 32.7005C24.3697 32.8268 24.3261 32.9444 24.2477 33.0445C24.1563 33.1621 24.0344 33.2231 23.8776 33.1795C23.6032 33.1055 23.355 32.9879 23.1198 32.7789Z" fill="#F4A73A"/>
<path d="M23.625 34.425C23.3942 34.3989 23.2723 34.229 23.1634 34.0635C23.0806 33.9416 22.889 33.8066 22.9935 33.6629C23.085 33.541 23.2723 33.676 23.4116 33.7021C23.5379 33.7282 23.6642 33.7761 23.7818 33.8327C23.9081 33.8937 24.0518 33.9765 23.9995 34.1463C23.9473 34.3205 23.8035 34.4076 23.625 34.425Z" fill="#F4A73B"/>
<path d="M22.95 27.5226C22.8542 27.5095 22.7584 27.5008 22.6669 27.4747C22.5929 27.4529 22.4797 27.5008 22.4535 27.4137C22.4231 27.3179 22.5319 27.27 22.6016 27.2177C22.7627 27.0958 22.9239 26.9739 23.0981 26.8737C23.2287 26.7997 23.3985 26.7431 23.4944 26.9085C23.5902 27.0784 23.5902 27.27 23.4073 27.4006C23.2723 27.5008 23.1155 27.5226 22.95 27.5226Z" fill="#F4A73B"/>
<path d="M25.4671 25.2842C25.589 24.9794 25.7545 24.7529 25.9592 24.5613C26.0768 24.4524 26.2335 24.3305 26.3903 24.5177C26.5166 24.6702 26.4905 24.9489 26.325 25.0621C26.0811 25.2319 25.7981 25.2885 25.4671 25.2842Z" fill="#F3A63B"/>
<path d="M22.6974 30.3532C22.9848 30.1529 23.2853 30.0397 23.6032 29.9744C23.7644 29.9395 23.8776 30.0266 23.9037 30.1964C23.9342 30.3924 23.7992 30.584 23.6163 30.6014C23.2897 30.6276 22.9979 30.5231 22.6974 30.3532Z" fill="#F4A63B"/>
<path d="M27.7752 33.6803C27.9232 33.6585 28.0974 33.6934 28.2673 33.7456C28.4023 33.7892 28.5721 33.8371 28.5111 34.0505C28.4458 34.2726 28.2803 34.3815 28.08 34.3335C27.7752 34.2595 27.614 33.9982 27.4137 33.7935C27.3484 33.7239 27.405 33.6847 27.479 33.6847C27.5661 33.676 27.6576 33.6803 27.7752 33.6803Z" fill="#F4A73A"/>
<path d="M27.3615 31.7598C27.5792 31.4898 27.81 31.3156 28.0756 31.185C28.215 31.1153 28.3674 31.0761 28.4589 31.2634C28.546 31.4463 28.4719 31.6989 28.2977 31.7598C28.0016 31.8644 27.7011 31.8426 27.3615 31.7598Z" fill="#F4A73A"/>
<path d="M22.9761 36.5806C23.3027 36.3934 23.5989 36.3237 23.9037 36.315C24.0431 36.3106 24.239 36.3368 24.2129 36.5502C24.1911 36.7331 24.1258 36.916 23.8819 36.9247C23.551 36.929 23.3027 36.7418 22.9761 36.5806Z" fill="#F4A73A"/>
<path d="M28.3021 36.5981C28.4676 36.6024 28.6679 36.5632 28.6766 36.8158C28.6853 37.0292 28.5024 37.1903 28.2803 37.1903C28.0016 37.1903 27.7752 37.051 27.5487 36.9073C27.4442 36.8419 27.5052 36.794 27.5792 36.7635C27.8144 36.6677 28.0495 36.5937 28.3021 36.5981Z" fill="#F4A73A"/>
<path d="M25.2798 31.9427C25.5803 31.7381 25.859 31.5813 26.1769 31.5116C26.3119 31.4811 26.4426 31.516 26.4644 31.6989C26.4948 31.9471 26.386 32.1169 26.1682 32.1431C25.8721 32.1692 25.5977 32.0995 25.2798 31.9427Z" fill="#F4A73A"/>
<path d="M21.5869 24.8574C21.4694 24.8574 21.3648 24.8444 21.4476 24.7137C21.5826 24.496 21.7089 24.2739 21.9092 24.1084C22.0442 23.9995 22.1879 23.9385 22.3229 24.0997C22.4623 24.2652 22.4405 24.4829 22.2619 24.6135C22.0573 24.7616 21.809 24.7965 21.5869 24.8574Z" fill="#F4A73A"/>
<path d="M25.1187 35.161C25.4192 35.1784 25.711 35.1218 25.9984 35.2176C26.1508 35.2655 26.2989 35.3308 26.2379 35.5268C26.1813 35.7097 26.055 35.836 25.8416 35.8055C25.5977 35.7706 25.4366 35.5965 25.2798 35.4353C25.2189 35.3656 25.1318 35.2916 25.1187 35.161Z" fill="#F4A73A"/>
<path d="M21.465 26.8258C21.404 26.8258 21.3431 26.8258 21.2777 26.8258C21.1602 26.8258 21.134 26.7779 21.2081 26.6821C21.3692 26.4818 21.5347 26.2858 21.7524 26.1508C21.8744 26.0768 22.0224 26.0071 22.1313 26.1595C22.2358 26.3032 22.2663 26.4731 22.1226 26.6168C21.944 26.804 21.7089 26.8302 21.465 26.8258Z" fill="#F4A73A"/>
<path d="M18.9 14.8413C18.9871 14.8413 19.0742 14.8456 19.1656 14.85C19.71 14.8892 20.189 15.1069 20.6463 15.3813C22.1748 16.3045 23.7121 17.219 25.1318 18.3077C27.3266 19.9887 29.2732 21.9048 30.7452 24.2608C31.9123 26.129 32.6831 28.141 33.0097 30.3271C33.1708 31.4027 33.2144 32.4784 33.1447 33.554C33.0053 35.8098 32.5437 38.0003 31.5116 40.034C29.8742 43.2566 27.27 45.2686 23.7731 46.1308C23.2592 46.2571 22.7366 46.3311 22.2053 46.379C21.7611 46.4226 21.3344 46.5924 20.8858 46.6577C20.2369 46.7535 19.5881 46.8015 18.9523 46.8015C17.3758 46.8015 15.8429 46.501 14.3492 45.8347C11.9497 44.7677 10.1642 43.004 8.76629 40.8223C7.67758 39.1195 6.85452 37.2948 6.40597 35.3134C6.15774 34.2073 6.00968 33.0881 6.04452 32.1039C6.01403 29.4823 6.60629 27.1524 7.56436 24.901C8.67484 22.2881 10.2382 19.9626 12.0237 17.7721C12.3416 17.3802 12.6595 16.9882 12.9774 16.6006C13.6132 15.8211 14.4406 15.4423 15.4379 15.4423C15.4423 15.4423 15.451 15.4423 15.4553 15.4423C15.8037 15.4423 16.139 15.5206 16.4613 15.6426C16.5179 15.6644 16.5702 15.6774 16.6224 15.6774C16.7095 15.6774 16.7879 15.6426 16.8706 15.5729C17.4673 15.0765 18.1466 14.8413 18.9 14.8413ZM18.9 13.9921C18.0116 13.9921 17.2147 14.2534 16.5266 14.7716C16.1695 14.6584 15.8124 14.6018 15.464 14.5974H15.4423C14.8152 14.5974 14.236 14.7194 13.7177 14.9632C13.1908 15.2115 12.7205 15.5816 12.3242 16.0694C12.1935 16.2305 12.0629 16.3916 11.9323 16.5527C11.745 16.7835 11.5577 17.01 11.3705 17.2408C9.31065 19.7666 7.81258 22.1661 6.78484 24.5744C5.67436 27.1829 5.16919 29.5737 5.19532 32.0995C5.16048 33.0794 5.29113 34.2247 5.57855 35.505C6.02274 37.4908 6.83274 39.3852 8.0521 41.2839C9.66774 43.8053 11.6144 45.5516 14.0052 46.6142C15.5555 47.3023 17.219 47.655 18.9523 47.655C19.6185 47.655 20.311 47.6027 21.0077 47.5026C21.256 47.4677 21.4781 47.4068 21.6958 47.3545C21.9092 47.2979 22.1095 47.25 22.2837 47.2326C22.9413 47.1716 23.4813 47.0845 23.9734 46.9626C27.749 46.0306 30.5361 43.8315 32.2694 40.426C33.2666 38.4619 33.8327 36.2323 33.9939 33.615C34.0635 32.4784 34.0157 31.3287 33.8502 30.2095C33.5148 27.9668 32.7135 25.8155 31.4681 23.8166C30.0832 21.6 28.1802 19.5794 25.65 17.6371C24.2303 16.5484 22.6931 15.6208 21.2081 14.7281L21.0861 14.654C20.6289 14.3797 20.0061 14.0574 19.2223 14.0052C19.1134 13.9965 19.0045 13.9921 18.9 13.9921Z" fill="#FF9999"/>
</svg>
