<svg width="54" height="54" viewBox="0 0 54 54" fill="none" xmlns="http://www.w3.org/2000/svg">
<path d="M11.941 46.2615C11.7058 46.1047 11.4663 45.9523 11.2311 45.7911C11.1615 45.7432 11.1005 45.691 11.0352 45.6387C11.0656 45.5995 11.1048 45.5995 11.144 45.6213C11.4184 45.765 11.7102 45.8608 11.9976 45.9784C12.3634 46.1265 12.7423 46.2092 13.1255 46.2963C13.4565 46.3703 13.7961 46.4052 14.1315 46.4618C14.4102 46.5097 14.6976 46.4705 14.9719 46.5489C15.5555 46.5489 16.1434 46.5489 16.7269 46.5489C16.7618 46.5489 16.7966 46.5489 16.8227 46.5358C16.8402 46.5271 16.8532 46.4966 16.8663 46.4792C16.9708 46.4618 17.0753 46.4705 17.1798 46.4923C17.1973 46.4923 17.2147 46.4923 17.2321 46.4923C17.7198 46.4618 18.2119 46.44 18.6997 46.4052C19.2223 46.3703 19.7405 46.2876 20.2544 46.1874C20.2892 46.1787 20.3327 46.1744 20.3502 46.1264C20.311 46.1134 20.2718 46.1047 20.2326 46.0916C20.2631 46.0785 20.2892 46.0568 20.3197 46.0524C20.6027 45.9871 20.8858 45.9218 21.1732 45.8608C21.7263 45.7389 22.275 45.5821 22.8194 45.4297C23.1242 45.3469 23.429 45.2555 23.7295 45.1553C24.2129 44.9942 24.6963 44.8287 25.1753 44.6589C25.4976 44.5456 25.8198 44.4281 26.1377 44.3018C26.656 44.0927 27.1785 43.8837 27.6924 43.6616C28.1845 43.4482 28.6723 43.2305 29.1513 42.9953C29.7392 42.7079 30.3227 42.4205 30.8976 42.1069C31.3766 41.8456 31.8513 41.5844 32.3173 41.31C32.8921 40.9703 33.4539 40.6045 34.0156 40.2431C34.2813 40.0732 34.5382 39.886 34.8039 39.7074C34.8997 39.6421 35.0042 39.5855 35.0956 39.5115C35.5529 39.15 36.0276 38.806 36.4848 38.4445C36.8376 38.1658 37.186 37.8784 37.5213 37.5779C37.7869 37.3384 38.0613 37.1032 38.3139 36.8463C38.7668 36.389 39.2327 35.9405 39.6552 35.4527C39.6769 35.4266 39.7031 35.4048 39.7248 35.3787C39.9295 35.1261 40.1298 34.8692 40.3389 34.621C40.6002 34.3074 40.831 33.9634 41.0531 33.6237C41.2273 33.3581 41.4015 33.0924 41.5539 32.8137C41.7455 32.461 41.9458 32.1169 42.1113 31.7511C42.2724 31.4027 42.4335 31.0544 42.5555 30.6885C42.6731 30.3402 42.8168 30.0005 42.9082 29.6434C43.0824 28.9727 43.261 28.3065 43.3306 27.614C43.3611 27.331 43.4308 27.0566 43.4221 26.7692C43.4221 26.7344 43.4221 26.6995 43.4308 26.669C43.4787 26.5558 43.4656 26.4382 43.47 26.3206C43.47 26.1116 43.47 25.9026 43.47 25.6935C43.47 25.6369 43.4613 25.5716 43.4831 25.5194C43.5179 25.4192 43.5223 25.3277 43.4874 25.2276C43.4656 25.1666 43.4744 25.0969 43.4744 25.0273C43.4744 24.8008 43.4744 24.5744 43.4744 24.3479C43.4744 24.2913 43.4831 24.226 43.4656 24.1737C43.3916 23.9211 43.4526 23.6555 43.3742 23.4073C43.396 23.2026 43.3394 23.0066 43.3089 22.8106C43.2392 22.4013 43.1739 21.9919 43.0824 21.5826C42.93 20.9163 42.7732 20.25 42.5642 19.5968C42.3987 19.0873 42.2332 18.5777 42.0242 18.0856C41.8805 17.746 41.7411 17.4063 41.5931 17.071C41.4189 16.666 41.2185 16.2697 41.0226 15.8734C40.8353 15.4989 40.6437 15.1287 40.4042 14.7847C40.3606 14.7237 40.3476 14.6671 40.365 14.5974C40.5827 14.7498 40.7613 14.9458 40.9573 15.1244C41.04 15.2027 41.1053 15.3029 41.2098 15.3595C41.31 15.4989 41.4319 15.6165 41.5539 15.7297C41.5887 15.8081 41.6497 15.8603 41.715 15.9126C41.8326 16.0737 41.9545 16.2348 42.1026 16.3698C42.1113 16.409 42.1374 16.4395 42.1723 16.4613C42.3073 16.6616 42.4466 16.8532 42.6034 17.0361C42.6252 17.0971 42.6556 17.1494 42.7079 17.1885C42.7689 17.3105 42.8473 17.4237 42.9344 17.5282C43.0476 17.7373 43.1652 17.9419 43.3176 18.1248C43.3785 18.2903 43.4656 18.4384 43.5702 18.5777C43.6398 18.7824 43.7574 18.961 43.8619 19.1482C43.8663 19.2005 43.8924 19.244 43.9273 19.2832C43.9708 19.4313 44.0405 19.5619 44.1189 19.6926C44.1755 19.8624 44.2408 20.0323 44.3323 20.189C44.3627 20.2805 44.3932 20.3763 44.4281 20.4677C44.5239 20.729 44.624 20.9903 44.7242 21.2473C44.746 21.4258 44.8113 21.5869 44.8766 21.7524C44.9071 21.944 44.955 22.1269 45.029 22.3055C45.1031 22.6582 45.1771 23.0066 45.2511 23.3594C45.2773 23.5466 45.2903 23.7339 45.3469 23.9168C45.3339 24.0866 45.3774 24.2521 45.4035 24.4176C45.421 24.6048 45.4253 24.7921 45.4645 24.975C45.4297 25.1448 45.4863 25.3103 45.4994 25.4758C45.4863 25.6631 45.4819 25.846 45.4994 26.0289C45.4819 26.1944 45.4819 26.3642 45.4994 26.5297C45.4994 26.7126 45.495 26.8998 45.495 27.0827C45.4297 27.2613 45.4558 27.4485 45.4384 27.6315C45.3818 28.1627 45.3208 28.694 45.2163 29.221C45.09 29.8785 44.9245 30.5274 44.7198 31.1676C44.6981 31.2329 44.6894 31.2982 44.6763 31.3635C44.5282 31.6902 44.4193 32.0342 44.2931 32.3739C44.1973 32.5481 44.1145 32.731 44.0579 32.9226C43.8837 33.2753 43.7052 33.6324 43.531 33.9852C43.4003 34.2073 43.2653 34.4294 43.1347 34.6515C43.0606 34.7821 42.9605 34.8953 42.9082 35.0434C42.8211 35.1131 42.7819 35.2132 42.721 35.3003C42.5337 35.566 42.3552 35.8316 42.1766 36.1016C42.1418 36.1234 42.12 36.1539 42.1113 36.1974C41.9719 36.3324 41.8587 36.4892 41.7542 36.646C41.6627 36.7418 41.5626 36.8289 41.5103 36.9508C41.4232 37.0031 41.3666 37.0815 41.3187 37.1685C41.1794 37.2948 41.0574 37.4298 40.9485 37.5823C40.9094 37.604 40.8789 37.6345 40.8615 37.6781C40.8092 37.6955 40.7831 37.739 40.7482 37.7739C40.5087 38.009 40.2735 38.2442 40.034 38.4794C39.9382 38.5752 39.8468 38.6666 39.7553 38.7624C39.5202 38.9497 39.2937 39.1413 39.076 39.3503C38.9018 39.4679 38.7363 39.6029 38.5882 39.7553C38.5447 39.764 38.5142 39.7858 38.4968 39.825C38.475 39.8381 38.4532 39.8468 38.4314 39.8598C38.0918 40.1124 37.7565 40.3694 37.4211 40.6219C37.3906 40.6481 37.3602 40.6786 37.3297 40.7047C37.2339 40.7395 37.1555 40.8048 37.0858 40.8789C36.9552 40.9398 36.8376 41.0226 36.7287 41.1227C36.511 41.2665 36.2932 41.4058 36.0798 41.5495C35.8011 41.7194 35.5224 41.8805 35.2481 42.0547C35.1348 42.1244 35.0085 42.1766 34.9171 42.2724C34.7821 42.3203 34.6602 42.3856 34.5556 42.4815C34.4598 42.5032 34.3858 42.5598 34.3118 42.6165C34.2682 42.6382 34.2203 42.6513 34.1768 42.6774C33.345 43.139 32.5002 43.5789 31.6335 43.9665C31.5726 43.9926 31.516 44.0274 31.455 44.0623C31.394 44.0753 31.3374 44.0971 31.2982 44.145C31.0674 44.2016 30.8627 44.3192 30.6494 44.4194C30.5187 44.4673 30.3837 44.5021 30.2705 44.5892C30.1877 44.5979 30.1137 44.6284 30.044 44.6719C29.8176 44.7547 29.5868 44.8331 29.369 44.9463C29.2166 44.9768 29.0729 45.0377 28.9335 45.1118C28.8944 45.1074 28.8595 45.1205 28.8334 45.1553C28.6244 45.2076 28.4284 45.286 28.2324 45.3731C28.0452 45.4297 27.8535 45.4776 27.675 45.5734C27.5835 45.5777 27.4965 45.6082 27.4224 45.6605C27.2787 45.6779 27.1481 45.7302 27.0174 45.7868C26.8127 45.8347 26.6168 45.9 26.4208 45.974C26.3119 46.0045 26.1987 46.0306 26.0898 46.0611C25.7981 46.1482 25.5063 46.2353 25.2145 46.3224C25.0098 46.366 24.8095 46.4052 24.6135 46.4792C24.3044 46.5489 23.9995 46.6185 23.6903 46.6926C23.5945 46.7144 23.49 46.71 23.4029 46.771C23.1939 46.784 22.9935 46.845 22.7932 46.8973C22.5885 46.9147 22.3926 46.9626 22.1966 47.0148C21.9876 47.0192 21.7916 47.0714 21.5913 47.1194C21.3866 47.1324 21.1863 47.1586 20.9903 47.2195C20.8684 47.2152 20.7465 47.2152 20.6332 47.2631C20.5505 47.2587 20.4634 47.2544 20.385 47.2892C20.1803 47.311 19.98 47.3371 19.7753 47.3589C19.575 47.3763 19.3703 47.3632 19.1744 47.4111C18.974 47.4286 18.7737 47.4068 18.5777 47.4634C18.3731 47.4155 18.1727 47.4765 17.9681 47.4852C17.7677 47.4677 17.5674 47.4677 17.3671 47.4852C17.1668 47.4677 16.9621 47.4677 16.7618 47.4852C16.5615 47.459 16.3611 47.4329 16.1608 47.459C15.9605 47.4242 15.7602 47.3894 15.5511 47.3981C15.3508 47.3632 15.1548 47.324 14.9502 47.3284C14.8065 47.2674 14.6497 47.2587 14.4973 47.2413C14.4494 47.2326 14.3971 47.2282 14.3492 47.2195C14.1532 47.1455 13.9485 47.1063 13.7439 47.0671C13.5479 46.9887 13.3476 46.919 13.1385 46.8755C13.0297 46.8015 12.9077 46.7666 12.7858 46.7274C12.6987 46.6621 12.5985 46.6229 12.494 46.5924C12.3111 46.4705 12.1239 46.366 11.941 46.2615Z" fill="#D76301"/>
<path d="M14.1881 32.9139C14.3535 32.5916 14.5147 32.2694 14.6148 31.921C14.7106 31.7424 14.776 31.5552 14.8108 31.3548C14.8979 31.1806 14.9502 30.9977 14.9894 30.8061C14.9937 30.7887 15.0024 30.7669 15.0068 30.7495C15.0634 30.6102 15.1156 30.4708 15.1244 30.3184C15.2071 30.1355 15.2506 29.9439 15.2724 29.7435C15.3508 29.565 15.3856 29.3777 15.4074 29.1861C15.4771 29.025 15.5032 28.8552 15.5119 28.681C15.5729 28.5939 15.5642 28.4937 15.586 28.3979C15.6382 28.141 15.7166 27.8884 15.7297 27.6227C15.8037 27.4442 15.8124 27.2569 15.8429 27.0697C15.8908 26.8911 15.9344 26.7082 15.9431 26.521C15.9823 26.3511 16.0389 26.19 16.0389 26.0115C16.1042 25.8373 16.1129 25.65 16.1434 25.4671C16.2479 25.1187 16.2915 24.7616 16.3568 24.4045C16.4134 24.2216 16.4482 24.0387 16.4656 23.8515C16.531 23.6903 16.5702 23.5248 16.5745 23.3506C16.6398 23.1895 16.6747 23.0197 16.7008 22.8498C16.8053 22.484 16.9055 22.1182 16.9839 21.7481C17.0535 21.5869 17.1058 21.4171 17.1319 21.2429C17.219 21.0644 17.2669 20.8727 17.3148 20.6855C17.4106 20.4285 17.5065 20.1716 17.6023 19.9147C17.6371 19.8232 17.6632 19.7274 17.6937 19.6316C17.7808 19.4923 17.8418 19.3398 17.8766 19.1831C17.9289 19.1352 17.9463 19.0742 17.9768 19.0132C18.0769 18.8042 18.1815 18.5952 18.2816 18.3861C18.3339 18.2816 18.3818 18.1771 18.4297 18.0726C18.63 17.746 18.8303 17.4194 19.0306 17.0884C19.0394 17.0753 19.0394 17.0579 19.0437 17.0405C19.2789 16.7313 19.514 16.4221 19.7448 16.1129C19.7971 16.1085 19.8406 16.139 19.8885 16.1565C20.0453 16.2174 20.1977 16.2827 20.3589 16.3306C20.9816 16.5179 21.6131 16.6877 22.2489 16.8271C22.4361 16.8706 22.619 16.9229 22.8063 16.9708C22.7671 17.0448 22.7235 17.1145 22.6713 17.1798C22.5842 17.28 22.5102 17.3932 22.4361 17.5021C22.0529 18.0508 21.735 18.6344 21.4432 19.2397C21.2037 19.7361 21.0121 20.2544 20.8292 20.7769C20.716 21.1079 20.6158 21.4432 20.5069 21.7785C20.2761 22.484 20.0671 23.1939 19.8624 23.9081C19.7274 24.3915 19.5924 24.8705 19.4661 25.3582C19.3616 25.7632 19.2484 26.1639 19.1482 26.5689C19.0655 26.8998 19.0045 27.2352 18.9261 27.5705C18.8826 27.7665 18.8173 27.9581 18.7868 28.154C18.7563 28.3456 18.7171 28.5285 18.6692 28.7158C18.6169 28.9074 18.5734 29.1034 18.5298 29.2994C18.4994 29.43 18.495 29.565 18.4515 29.6913C18.4123 29.8045 18.3774 29.909 18.3731 30.031C18.3687 30.1311 18.3469 30.2313 18.3121 30.3227C18.2511 30.4882 18.2119 30.6624 18.1858 30.8323C18.1597 31.0152 18.0639 31.1763 18.0508 31.3635C18.0421 31.455 18.0203 31.5421 17.9942 31.6335C17.9071 31.9645 17.82 32.2955 17.7242 32.6221C17.624 32.9748 17.5282 33.3276 17.3802 33.6673C17.0971 34.3118 16.679 34.8605 16.2087 35.3744C16.0781 35.5181 15.9256 35.6356 15.8124 35.7924C15.6077 35.9753 15.3987 36.1582 15.194 36.3411C15.1331 36.3977 15.0765 36.4631 15.0111 36.5153C14.7585 36.72 14.506 36.9247 14.2534 37.1294C14.0269 37.3123 13.7874 37.4865 13.5697 37.6781C13.426 37.8044 13.2431 37.8871 13.1429 38.0569C13.0906 38.0874 13.0384 38.1092 12.9905 38.144C12.6508 38.3966 12.346 38.6884 12.0194 38.954C11.8887 39.0629 11.7668 39.1892 11.61 39.2676C11.6231 38.9497 11.6884 38.6405 11.7624 38.3356C11.8539 37.9698 11.9671 37.6171 12.0977 37.2644C12.1239 37.1947 12.1674 37.1294 12.1369 37.051C12.1413 37.051 12.15 37.051 12.1544 37.051C12.1587 37.051 12.1587 37.0423 12.1631 37.0379C12.1544 37.0423 12.15 37.051 12.1413 37.0553C12.0803 37.0684 12.0455 37.1206 12.0019 37.1598C11.6927 37.4516 11.3966 37.7608 11.1266 38.0918C10.6911 38.6231 10.3079 39.1892 10.0205 39.8163C9.68952 40.5348 9.53274 41.2882 9.62419 42.0808C9.62855 42.1287 9.62855 42.181 9.62855 42.2289C9.61548 42.2376 9.59806 42.2506 9.59371 42.2637C9.56323 42.4205 9.50661 42.5729 9.51968 42.734C9.45436 42.7384 9.41081 42.6992 9.36726 42.66C9.18 42.4815 9.00145 42.2985 8.86645 42.0765C8.83161 42.0242 8.79242 41.9894 8.7271 41.985C8.7271 41.8021 8.72274 41.6192 8.72274 41.4319C8.77936 41.2665 8.78806 41.0966 8.80984 40.9224C8.86645 40.7787 8.89694 40.6263 8.92306 40.4739C8.97097 40.4347 8.97532 40.3781 8.97968 40.3258C9.045 40.1777 9.11903 40.0297 9.14516 39.8642C9.2671 39.6944 9.33242 39.4984 9.41516 39.3111C9.46742 39.2415 9.51097 39.1674 9.52839 39.0847C9.60242 39.0106 9.65032 38.9192 9.67645 38.8234C9.81581 38.6492 9.92468 38.4576 10.0292 38.266C10.0815 38.2311 10.1119 38.1832 10.125 38.1223C10.2339 38.0221 10.3035 37.8958 10.3776 37.7695C10.5082 37.5997 10.6345 37.4255 10.7652 37.2556C10.8 37.2339 10.8218 37.199 10.8305 37.1598C10.9829 37.0074 11.1223 36.8419 11.2398 36.659C11.2834 36.6329 11.3139 36.6024 11.3313 36.5545C11.4663 36.4369 11.5795 36.2976 11.6797 36.1495C11.8147 36.0058 11.954 35.8665 12.0803 35.714C12.2284 35.5398 12.4113 35.3918 12.5419 35.2002C12.7379 35.039 12.9034 34.8474 13.0732 34.6602C13.0994 34.6297 13.1211 34.5948 13.0994 34.5513L13.1037 34.5469C13.1255 34.5426 13.1603 34.5469 13.1734 34.5295C13.3171 34.3597 13.4652 34.1898 13.5653 33.9852C13.831 33.6542 14.0182 33.2884 14.1881 32.9139Z" fill="#FFB521"/>
<path d="M9.51968 42.721C9.51097 42.5598 9.56323 42.4074 9.59371 42.2506C9.59806 42.2376 9.61548 42.2289 9.62855 42.2158C9.70258 42.464 9.76355 42.7166 9.87242 42.9518C10.1206 43.5048 10.4908 43.9664 10.935 44.3715C11.7363 45.0987 12.6639 45.6039 13.6873 45.9392C14.4624 46.1918 15.2594 46.3485 16.0694 46.4095C16.335 46.4313 16.605 46.4531 16.8706 46.4748C16.8576 46.4966 16.8445 46.5227 16.8271 46.5314C16.7966 46.5445 16.7618 46.5445 16.7313 46.5445C16.1477 46.5445 15.5598 46.5445 14.9763 46.5445C14.7019 46.4661 14.4145 46.5053 14.1358 46.4574C13.8005 46.4008 13.4608 46.366 13.1298 46.2919C12.7466 46.2048 12.3677 46.1221 12.0019 45.974C11.7145 45.8608 11.4227 45.7606 11.1484 45.6169C11.1048 45.5952 11.07 45.5952 11.0395 45.6344C10.9045 45.5908 10.8261 45.4645 10.6998 45.4079C10.6127 45.3208 10.5213 45.2294 10.4342 45.1423C10.4342 45.0987 10.4255 45.0595 10.3994 45.0247C10.2556 44.8592 10.1337 44.6806 10.0292 44.4934C9.85935 44.1973 9.72 43.8881 9.62855 43.5527C9.54581 43.2871 9.51097 43.0084 9.51968 42.721Z" fill="#F38200"/>
<path d="M30.4011 5.78758C30.706 5.83548 31.0108 5.87903 31.3156 5.93129C32.0124 6.05758 32.7005 6.24048 33.3668 6.48C33.615 6.57145 33.8545 6.69774 34.0984 6.80226C34.1724 6.8371 34.2508 6.86758 34.3292 6.89806C34.3423 6.90677 34.3553 6.91548 34.3684 6.91984C34.5513 7.02435 34.7298 7.13323 34.9302 7.2029C35.0695 7.30742 35.2176 7.39452 35.3831 7.45984C35.4223 7.50774 35.4702 7.54258 35.5355 7.54694C35.7227 7.68629 35.9231 7.81258 36.1321 7.92145C36.1408 7.94758 36.1582 7.95629 36.1844 7.95629C36.3629 8.1 36.5458 8.235 36.7418 8.35694C36.7548 8.38307 36.7766 8.40048 36.8071 8.40484C36.8071 8.42661 36.8202 8.43532 36.8419 8.43097C36.8768 8.48323 36.929 8.50935 36.9813 8.53548C37.0597 8.63564 37.1511 8.71403 37.2644 8.775C37.3253 8.87081 37.4124 8.94048 37.5039 9.01016C37.6258 9.15387 37.7434 9.29758 37.8871 9.41952C37.8958 9.45871 37.9176 9.49355 37.9524 9.51532C38.0134 9.61548 38.0744 9.71129 38.1353 9.81145C38.1092 9.9029 38.0352 9.95952 37.9698 10.0248C37.7826 10.2165 37.5518 10.3689 37.3776 10.5779C37.3253 10.5692 37.2861 10.5387 37.2513 10.5039C37.0292 10.2687 36.7592 10.1119 36.4761 9.96387C36.0886 9.75919 35.6792 9.61984 35.2655 9.48919C35.0434 9.41952 34.8126 9.36726 34.5861 9.32371C34.3423 9.27581 34.094 9.24097 33.8502 9.20177C33.6455 9.16693 33.4452 9.11032 33.2318 9.11903C33.1926 9.11903 33.1447 9.11903 33.1098 9.10597C33.0053 9.06242 32.8965 9.07548 32.7876 9.07113C32.731 9.07113 32.6656 9.08419 32.6134 9.06677C32.4174 9.00581 32.2171 9.02758 32.0168 9.01887C31.9602 9.01887 31.8992 9.01887 31.8426 9.00145C31.7511 8.97097 31.6597 8.97097 31.5682 8.97097C30.8976 8.97097 30.2269 8.97097 29.5606 8.97097C29.4953 8.97097 29.4213 8.96226 29.3603 8.97968C29.221 9.02758 29.0773 9.01452 28.9379 9.01887C28.8813 9.01887 28.8203 9.01887 28.7637 9.02758C28.3848 9.0929 28.0103 9.14952 27.6358 9.22355C27.1132 9.33242 26.5906 9.43694 26.0855 9.61548C25.9635 9.65903 25.8416 9.67645 25.7153 9.68081C25.6108 9.61984 25.5411 9.51532 25.4279 9.46742C25.3844 9.38032 25.3016 9.33242 25.2232 9.28016C25.2015 9.25403 25.184 9.2279 25.1623 9.20613C24.9271 8.97968 24.6876 8.74887 24.4481 8.52242C24.4263 8.50064 24.3958 8.48323 24.3697 8.46581C24.2739 8.30903 24.165 8.16532 24.03 8.04339C24.0213 8.00855 24.0082 7.97807 23.969 7.965C23.7992 7.72548 23.625 7.48161 23.4552 7.2421C23.3724 7.12887 23.2897 7.02 23.2026 6.90677C23.0937 6.70645 22.9718 6.51484 22.8281 6.33629C22.7366 6.14468 22.6321 5.96613 22.5015 5.80064C22.4448 5.65258 22.3621 5.51758 22.2619 5.39565C22.2619 5.3521 22.2489 5.31726 22.2097 5.29548C22.1313 5.09516 22.0224 4.91226 21.9092 4.73371C21.8961 4.69452 21.8831 4.65532 21.8656 4.62048C21.7306 4.35484 21.5956 4.08919 21.4694 3.82355C21.4476 3.77565 21.404 3.72339 21.4389 3.66242C21.674 3.81484 21.9048 3.97161 22.1661 4.08048C22.4535 4.28081 22.7758 4.41145 23.0894 4.56823C23.1895 4.62048 23.294 4.6771 23.4116 4.69452C23.4813 4.75113 23.564 4.78161 23.6511 4.79468C23.7644 4.86 23.8863 4.90355 24.0169 4.92968C24.2085 5.00806 24.4045 5.0821 24.6136 5.10823C24.7877 5.18661 24.975 5.22145 25.1623 5.24758C25.1927 5.28242 25.2319 5.28242 25.2711 5.27371C25.6152 5.36516 25.9592 5.43919 26.3163 5.4479C26.5689 5.51758 26.8258 5.54806 27.0871 5.53935C27.27 5.57419 27.4573 5.60032 27.6445 5.58726H27.6532C27.7795 5.62645 27.9102 5.63516 28.0452 5.6221C28.1105 5.63952 28.1802 5.64387 28.2498 5.63081C28.485 5.65694 28.7158 5.67436 28.951 5.67C29.0686 5.69177 29.1861 5.69613 29.3081 5.68742C29.4474 5.70048 29.5868 5.7179 29.7261 5.73097C29.9439 5.7571 30.1747 5.77016 30.4011 5.78758Z" fill="#016733"/>
<path d="M11.61 39.2545C11.7668 39.1761 11.8887 39.0498 12.0194 38.941C12.346 38.671 12.6508 38.3835 12.9905 38.131C13.0384 38.0961 13.0906 38.0744 13.1429 38.0439C13.2431 38.0395 13.3215 38.0744 13.3606 38.1745C13.4303 38.3444 13.5131 38.5098 13.5827 38.6797C13.77 39.1195 13.9573 39.5594 14.2055 39.9644C14.4842 40.4085 14.7455 40.8658 15.0634 41.2882C15.3203 41.6279 15.6034 41.9458 15.8821 42.2681C16.0824 42.4945 16.3089 42.6948 16.5179 42.9126C16.5876 42.9866 16.679 43.0302 16.7574 43.0955C16.7923 43.1216 16.8358 43.1434 16.875 43.1303C17.0056 43.0824 17.1319 43.0911 17.2669 43.1303C17.3105 43.1434 17.3627 43.1129 17.4106 43.0955C17.7198 42.991 18.029 42.8908 18.3339 42.7732C18.6213 42.6644 18.9087 42.5468 19.1918 42.4248C19.5663 42.2594 19.9365 42.0852 20.311 41.9197C20.3458 41.9023 20.3981 41.8805 20.4285 41.8892C20.5635 41.9371 20.7073 41.9284 20.8379 41.9981C21.06 42.1156 21.2865 42.2202 21.5216 42.3116C22.0442 42.5163 22.5755 42.6861 23.1198 42.8124C23.3289 42.8603 23.5423 42.9039 23.7556 42.93C23.9473 42.9518 24.1345 43.0084 24.3261 42.9866C24.5439 43.065 24.7747 43.0258 24.9968 43.0345C25.1361 43.0389 25.2798 43.0302 25.4192 43.0737C25.4932 43.0998 25.589 43.0955 25.6674 43.0737C25.7937 43.0345 25.9156 43.0389 26.0419 43.0389C26.2248 43.0345 26.4165 43.065 26.595 43.0258C26.8345 42.9692 27.0784 42.9997 27.3135 42.9474C27.479 42.9082 27.6576 42.8908 27.8318 42.8603C28.1627 42.8081 28.485 42.7253 28.8029 42.6339C29.0773 42.5555 29.3473 42.4771 29.6216 42.3987C29.8481 42.3334 30.0615 42.2463 30.2792 42.1505C30.5927 42.0155 30.9194 41.911 31.2111 41.7281C31.2373 41.7106 31.2721 41.6976 31.3026 41.6889C31.5987 41.5713 31.8818 41.4276 32.1561 41.2621C32.265 41.1968 32.3652 41.1227 32.4827 41.0748C32.6003 41.0226 32.7135 40.979 32.7963 40.8789C32.8137 40.8615 32.8355 40.8484 32.8573 40.8353C33.2448 40.6394 33.5845 40.3606 33.9634 40.1516C34.0374 40.1124 34.1071 40.0602 34.1681 40.0035C34.3031 39.8773 34.4511 39.7684 34.6079 39.6726C34.9171 39.481 35.161 39.2197 35.4353 38.9889C35.5137 38.9235 35.5877 38.8582 35.6661 38.7929C35.8273 38.6579 36.0014 38.5403 36.1408 38.3879C36.2889 38.2268 36.45 38.0787 36.6024 37.9219C36.6852 37.8392 36.781 37.7652 36.8463 37.6694C37.051 37.3906 37.3166 37.1729 37.5256 36.8985C37.5648 36.8463 37.6127 36.7984 37.6519 36.7418C37.8131 36.5197 37.9873 36.3063 38.1527 36.0842C38.2747 35.9187 38.4053 35.7532 38.5316 35.5877C38.7319 35.3221 38.8974 35.0303 39.0803 34.7516C39.2066 34.5556 39.3242 34.351 39.4548 34.1594C39.5811 33.9677 39.6595 33.7544 39.7815 33.5671C39.9992 33.2187 40.1516 32.8398 40.3258 32.4697C40.4477 32.2127 40.5479 31.9471 40.6655 31.6902C40.8832 31.2285 41.0487 30.7452 41.1968 30.2574C41.3274 29.8263 41.5016 29.4082 41.5365 28.951C41.641 28.694 41.6584 28.4153 41.7281 28.1497C41.7847 27.9319 41.8282 27.7098 41.8326 27.4834C41.8326 27.4442 41.8413 27.4006 41.8544 27.3615C41.9023 27.1481 41.9502 26.939 41.9327 26.7169C41.9284 26.6777 41.9284 26.6298 41.9415 26.5906C41.9894 26.4687 41.9806 26.3424 41.9806 26.2205C41.9806 26.0202 41.9806 25.8198 41.9806 25.6152C41.9806 25.5324 41.985 25.4497 42.0111 25.3669C42.0503 25.2363 42.0503 25.0969 42.0155 24.9706C41.985 24.8618 41.9806 24.7573 41.9806 24.6484C41.9806 24.4481 41.9806 24.2477 41.9806 24.0431C41.9806 23.9865 41.9894 23.9211 41.9676 23.8689C41.924 23.7556 41.9327 23.6381 41.9284 23.5205C41.9284 23.4639 41.9371 23.3985 41.924 23.3463C41.8718 23.146 41.8413 22.9413 41.8152 22.7323C41.7847 22.471 41.7063 22.2097 41.6453 21.9527C41.6105 21.8134 41.5539 21.6827 41.5321 21.5434C41.4886 21.269 41.3927 21.0121 41.31 20.7508C41.2229 20.4721 41.1097 20.2021 40.9834 19.9365C40.7744 19.4923 40.5653 19.0437 40.3084 18.6256C40.2169 18.4776 40.1298 18.3208 40.0253 18.1815C39.9034 18.0247 39.7945 17.8548 39.6769 17.6937C39.4723 17.4194 39.2632 17.1494 39.015 16.9098C38.9018 16.801 38.7842 16.6921 38.7015 16.5527C38.475 16.4221 38.3269 16.2 38.1135 16.0432C37.9263 15.9039 37.7477 15.7515 37.5561 15.6208C37.4037 15.5206 37.2382 15.4379 37.0902 15.3247C36.6895 15.0155 36.2192 14.8326 35.7663 14.6148C35.7576 14.6105 35.7489 14.6148 35.7402 14.6105C35.775 14.5713 35.8011 14.5321 35.8403 14.5016C36.2235 14.1489 36.5719 13.77 36.9116 13.3737C37.0727 13.1821 37.2339 12.9905 37.395 12.7989C37.4603 12.7989 37.5256 12.8119 37.5866 12.8381C37.6389 12.8598 37.6955 12.8729 37.7521 12.8816C37.7913 12.8903 37.8044 12.8511 37.8218 12.825C37.9306 12.8816 38.0439 12.9339 38.1484 12.9905C38.2834 13.0645 38.4227 13.1385 38.5577 13.2126C38.61 13.2735 38.684 13.2997 38.7494 13.3345C38.8713 13.4477 39.015 13.5305 39.1631 13.6089C39.1936 13.635 39.2197 13.6698 39.2545 13.6916C39.481 13.844 39.6944 14.0139 39.9077 14.1794C40.0123 14.2621 40.0994 14.3623 40.2213 14.4145C40.23 14.4537 40.2561 14.4668 40.291 14.4755C40.304 14.5016 40.3171 14.5234 40.3302 14.5495C40.3389 14.58 40.3563 14.6018 40.3911 14.6061V14.6018C40.3737 14.6715 40.3868 14.7281 40.4303 14.789C40.6698 15.1331 40.8615 15.5076 41.0487 15.8777C41.2447 16.274 41.445 16.6703 41.6192 17.0753C41.7629 17.415 41.9066 17.7547 42.0503 18.09C42.2594 18.5821 42.4248 19.0916 42.5903 19.6011C42.7994 20.2544 42.9561 20.9163 43.1086 21.5869C43.2 21.9919 43.2653 22.4056 43.335 22.815C43.3698 23.011 43.4221 23.2069 43.4003 23.4116C43.4787 23.6598 43.4177 23.9298 43.4918 24.1781C43.5092 24.2347 43.5005 24.2956 43.5005 24.3523C43.5005 24.5787 43.5005 24.8052 43.5005 25.0316C43.5005 25.0969 43.4918 25.171 43.5135 25.2319C43.5484 25.3321 43.544 25.4235 43.5092 25.5237C43.4918 25.576 43.5005 25.6413 43.4961 25.6979C43.4961 25.9069 43.4961 26.116 43.4961 26.325C43.4961 26.4426 43.5048 26.5602 43.4569 26.6734C43.4439 26.7039 43.4439 26.7387 43.4482 26.7735C43.4569 27.061 43.3829 27.3353 43.3568 27.6184C43.2827 28.3108 43.1042 28.9771 42.9344 29.6477C42.8429 30.0048 42.6948 30.3445 42.5816 30.6929C42.4597 31.0587 42.2986 31.4071 42.1374 31.7555C41.9719 32.1169 41.7716 32.4653 41.58 32.8181C41.4276 33.0968 41.2534 33.3624 41.0792 33.6281C40.8571 33.9677 40.6306 34.3118 40.365 34.6253C40.156 34.8736 39.9556 35.1305 39.751 35.3831C39.7292 35.4092 39.7074 35.431 39.6813 35.4571C39.2589 35.9448 38.7929 36.3934 38.34 36.8506C38.0874 37.1076 37.8131 37.3427 37.5474 37.5823C37.2121 37.8827 36.8637 38.1702 36.511 38.4489C36.0537 38.8103 35.579 39.1544 35.1218 39.5158C35.0303 39.5898 34.9258 39.6465 34.83 39.7118C34.5687 39.8903 34.3118 40.0776 34.0418 40.2474C33.48 40.6089 32.9182 40.9747 32.3434 41.3144C31.8774 41.5887 31.3984 41.8544 30.9237 42.1113C30.3489 42.4248 29.7653 42.7123 29.1774 42.9997C28.6984 43.2348 28.2106 43.4526 27.7185 43.666C27.2047 43.8881 26.6865 44.0971 26.1639 44.3061C25.846 44.4324 25.5237 44.55 25.2015 44.6632C24.7224 44.8331 24.239 44.9985 23.7556 45.1597C23.4552 45.2598 23.1503 45.3513 22.8455 45.434C22.2968 45.5865 21.7524 45.7432 21.1994 45.8652C20.9163 45.9261 20.6289 45.9915 20.3458 46.0568C20.3153 46.0655 20.2848 46.0829 20.2587 46.096C20.2108 46.096 20.1585 46.1003 20.1106 46.0916C19.7971 46.0481 19.4792 46.0089 19.1656 45.961C18.151 45.8085 17.1624 45.5647 16.2 45.2163C15.4335 44.9376 14.6976 44.5979 14.0226 44.1406C13.4826 43.7792 12.9992 43.3568 12.5942 42.8473C12.0455 42.1548 11.7189 41.3666 11.6187 40.4869C11.549 40.0732 11.536 39.6639 11.61 39.2545Z" fill="#F38200"/>
<path d="M11.61 39.2545C11.536 39.6639 11.549 40.0732 11.5969 40.4826C11.6971 41.3579 12.0237 42.1461 12.5724 42.8429C12.9774 43.3524 13.4608 43.7748 14.0008 44.1363C14.6802 44.5892 15.4161 44.9332 16.1782 45.2119C17.1406 45.5603 18.1292 45.8042 19.1439 45.9566C19.4574 46.0045 19.7753 46.0437 20.0889 46.0873C20.1368 46.096 20.189 46.0916 20.2369 46.0916C20.2761 46.1003 20.3153 46.1134 20.3545 46.1264C20.3371 46.1787 20.2935 46.1787 20.2587 46.1874C19.7448 46.2876 19.2266 46.3703 18.704 46.4052C18.2163 46.44 17.7242 46.4618 17.2365 46.4923C17.219 46.4748 17.2016 46.4705 17.1842 46.4923C17.0797 46.4705 16.9752 46.4618 16.8706 46.4792C16.605 46.4574 16.335 46.4356 16.0694 46.4139C15.255 46.3485 14.4624 46.1961 13.6873 45.9436C12.6639 45.6082 11.7363 45.1031 10.935 44.3758C10.4908 43.9708 10.1206 43.5092 9.87242 42.9561C9.7679 42.7166 9.70258 42.4684 9.62855 42.2202C9.62855 42.1723 9.62855 42.12 9.62419 42.0721C9.53274 41.2752 9.68952 40.5261 10.0205 39.8076C10.3079 39.1805 10.6911 38.6144 11.1266 38.0831C11.3966 37.7521 11.6927 37.4429 12.0019 37.1511C12.0455 37.1119 12.076 37.0597 12.1413 37.0466L12.1369 37.0423C12.1718 37.1206 12.1239 37.186 12.0977 37.2556C11.9671 37.6084 11.8495 37.9611 11.7624 38.3269C11.6884 38.6318 11.6231 38.941 11.61 39.2545Z" fill="#FECD03"/>
<path d="M15.8124 35.7837C15.9213 35.6226 16.0781 35.505 16.2087 35.3656C16.679 34.8518 17.0971 34.3031 17.3802 33.6586C17.5282 33.3189 17.624 32.9661 17.7242 32.6134C17.82 32.2868 17.9071 31.9558 17.9942 31.6248C18.016 31.5377 18.0421 31.4463 18.0508 31.3548C18.0639 31.1676 18.1597 31.0065 18.1858 30.8235C18.2119 30.6537 18.2511 30.4795 18.3121 30.314C18.3469 30.2226 18.3644 30.1181 18.3731 30.0223C18.3818 29.9047 18.4123 29.7958 18.4515 29.6826C18.495 29.5606 18.4994 29.4213 18.5298 29.2906C18.5734 29.0947 18.6169 28.9031 18.6692 28.7071C18.7171 28.5198 18.7563 28.3369 18.7868 28.1453C18.8173 27.9494 18.8826 27.7577 18.9261 27.5618C19.0002 27.2308 19.0655 26.8911 19.1482 26.5602C19.2484 26.1552 19.3616 25.7545 19.4661 25.3495C19.5881 24.8661 19.7231 24.3827 19.8624 23.8994C20.0671 23.1852 20.2761 22.4753 20.5069 21.7698C20.6158 21.4345 20.716 21.0992 20.8292 20.7682C21.0077 20.2456 21.1994 19.7318 21.4432 19.231C21.735 18.63 22.0529 18.0421 22.4361 17.4934C22.5145 17.3845 22.5885 17.2713 22.6713 17.1711C22.7279 17.1058 22.7671 17.0361 22.8063 16.9621C22.8237 16.9621 22.8411 16.9577 22.8542 16.9621C23.4421 17.0884 24.0344 17.2016 24.6353 17.2844C25.11 17.3497 25.5803 17.4106 26.055 17.4542C26.4556 17.489 26.8563 17.5065 27.2613 17.5152C28.2368 17.5326 29.2035 17.476 30.166 17.3061C31.4463 17.0797 32.6569 16.6529 33.7892 16.004C33.8327 15.9779 33.8806 15.9648 33.9242 15.9431C33.9286 16.0258 33.9155 16.1085 33.9808 16.1782C34.1681 16.3829 34.3161 16.6094 34.4598 16.8489C34.7255 17.2931 34.9824 17.7416 35.1479 18.2337C35.1697 18.2947 35.2045 18.3556 35.235 18.4123C35.2481 18.4515 35.2568 18.4906 35.2698 18.5342C35.3961 18.9305 35.5181 19.3268 35.6052 19.7361C35.714 20.2413 35.8229 20.7421 35.8403 21.2603C35.8403 21.2952 35.8447 21.33 35.8577 21.3605C35.8969 21.4476 35.8882 21.539 35.8882 21.6348C35.8882 21.7698 35.8882 21.9048 35.8882 22.0355C35.8229 22.0355 35.775 22.0094 35.7445 21.9484C35.6313 21.7002 35.444 21.5042 35.2742 21.3039C34.9432 20.925 34.5731 20.5853 34.1506 20.311C33.7674 20.0584 33.3798 19.8102 32.94 19.6577C32.5524 19.5227 32.1735 19.379 31.7642 19.3137C31.6161 19.2919 31.4637 19.2876 31.32 19.2571C31.1763 19.2266 31.0369 19.2179 30.8976 19.2223C30.4316 19.2353 29.9613 19.2005 29.4953 19.2615C29.2166 19.3006 28.9335 19.3311 28.6592 19.3921C28.0321 19.5358 27.4224 19.7492 26.8389 20.0235C26.3032 20.2761 25.785 20.5679 25.2973 20.9076C24.8095 21.2473 24.3523 21.6218 23.9124 22.0181C23.5335 22.3577 23.1808 22.7279 22.8542 23.1242C22.8324 23.1503 22.8194 23.1808 22.7976 23.2069C22.7279 23.3027 22.6582 23.3942 22.5885 23.4856C22.4144 23.7165 22.2184 23.9385 22.066 24.1868C21.9397 24.3915 21.809 24.5961 21.6915 24.8095C21.4911 25.1666 21.2952 25.5237 21.1166 25.8939C20.8335 26.4818 20.6245 27.1002 20.4547 27.7273C20.4155 27.871 20.3545 28.0103 20.3415 28.1627C20.3066 28.485 20.1847 28.7942 20.1847 29.1208C20.1324 29.2384 20.1455 29.3647 20.1411 29.491C20.1411 29.626 20.1585 29.761 20.0976 29.8873C20.0845 30.2705 20.0715 30.6581 20.1063 31.0413C20.1194 31.1632 20.1368 31.2895 20.1411 31.4115C20.1411 31.4768 20.1324 31.5464 20.1455 31.6118C20.2065 31.9123 20.2413 32.2215 20.324 32.5176C20.3415 32.5916 20.3415 32.67 20.3676 32.7397C20.4982 33.075 20.5853 33.419 20.7334 33.75C20.8379 33.9808 20.9337 34.2116 21.0644 34.425C21.2168 34.6732 21.3823 34.9127 21.5565 35.1523C21.735 35.3961 21.9745 35.5834 22.1487 35.8316C22.2402 35.9666 22.4013 36.0232 22.5058 36.1408C22.5973 36.241 22.7061 36.3194 22.815 36.3934C22.9674 36.4979 23.1198 36.5981 23.2723 36.6982C23.4856 36.8332 23.7252 36.916 23.9429 37.0379C24.091 37.1206 24.2477 37.1729 24.4045 37.2339C24.8792 37.4081 25.3756 37.456 25.8634 37.5779C25.8852 37.5823 25.9156 37.5823 25.9374 37.5823C26.2771 37.5692 26.6255 37.6215 26.9608 37.5344C26.9826 37.53 27.0131 37.5344 27.0348 37.5344C26.9913 37.6432 26.8781 37.6781 26.7953 37.7477C26.521 37.9742 26.2466 38.205 25.9592 38.4184C25.5585 38.7145 25.1492 38.9976 24.7398 39.285C24.6266 39.3677 24.5003 39.4331 24.4132 39.5463C24.3697 39.5506 24.3348 39.5637 24.2956 39.5898C23.8906 39.8685 23.4769 40.1342 23.0545 40.3824C22.8847 40.4826 22.7192 40.5958 22.5494 40.7047C22.5319 40.709 22.5145 40.7047 22.5015 40.7134C22.2881 40.8484 22.066 40.9616 21.8526 41.0879C21.6131 41.2273 21.3648 41.3492 21.1166 41.4668C20.8902 41.5713 20.655 41.6148 20.4242 41.4537C20.2674 41.3448 20.1063 41.2403 19.9408 41.1445C19.7361 41.0269 19.5663 40.8615 19.379 40.7265C19.1874 40.5914 18.9958 40.4608 18.8347 40.2866C18.6692 40.1081 18.4906 39.9426 18.3208 39.7684C18.1466 39.5855 17.9768 39.4026 17.8156 39.211C17.6632 39.0324 17.5456 38.8277 17.3802 38.6623C17.3627 38.6448 17.3584 38.6187 17.3453 38.5969C17.3018 38.5273 17.2669 38.4489 17.2103 38.3835C17.0797 38.2355 17.0013 38.0613 16.9142 37.8915C16.8794 37.8261 16.8402 37.7608 16.801 37.6955C16.7269 37.5648 16.6355 37.4429 16.5789 37.3036C16.5353 37.1947 16.4874 37.0902 16.4352 36.9813C16.2915 36.6895 16.1477 36.3977 16.065 36.0798C16.0389 35.9405 15.9605 35.836 15.8124 35.7837Z" fill="#FFA200"/>
<path d="M15.8124 35.7837C15.9605 35.836 16.0389 35.9448 16.0737 36.0929C16.1521 36.4108 16.3002 36.7026 16.4439 36.9944C16.4961 37.0989 16.5397 37.2077 16.5876 37.3166C16.6442 37.456 16.7356 37.5779 16.8097 37.7085C16.8489 37.7739 16.8881 37.8348 16.9229 37.9045C17.01 38.0744 17.0884 38.2529 17.219 38.3966C17.2756 38.4576 17.3105 38.536 17.354 38.61C17.3671 38.6318 17.3715 38.6579 17.3889 38.6753C17.5544 38.8408 17.6719 39.0455 17.8244 39.224C17.9855 39.4156 18.1553 39.5985 18.3295 39.7815C18.495 39.9556 18.6779 40.1211 18.8434 40.2997C19.0045 40.4739 19.1961 40.6045 19.3877 40.7395C19.5794 40.8745 19.7492 41.0356 19.9495 41.1576C20.115 41.2534 20.2761 41.3579 20.4329 41.4668C20.6637 41.6279 20.8989 41.5844 21.1253 41.4798C21.3735 41.3623 21.6218 41.2403 21.8613 41.101C22.0747 40.9747 22.3011 40.8571 22.5102 40.7265C22.5232 40.7177 22.5406 40.7221 22.5581 40.7177C22.5798 40.7439 22.606 40.7613 22.6408 40.7656C22.7366 40.7874 22.8411 40.7961 22.9326 40.8353C23.22 40.9616 23.5205 41.0182 23.821 41.0792C24.2695 41.1706 24.7137 41.2795 25.1797 41.2708C25.2189 41.2708 25.2668 41.2752 25.3016 41.2882C25.3887 41.3231 25.4845 41.3231 25.576 41.3187C25.9505 41.3013 26.3294 41.3623 26.6995 41.2708C27.0348 41.2795 27.3615 41.2011 27.6924 41.1663C27.8231 41.1532 27.9581 41.1271 28.0844 41.0966C28.3761 41.0226 28.6723 40.9703 28.9553 40.8789C29.5258 40.6916 30.1137 40.5479 30.6494 40.2692C30.6929 40.2474 30.7452 40.2344 30.7887 40.2126C30.9934 40.1211 31.2068 40.0384 31.4027 39.9339C31.7337 39.7553 32.056 39.5594 32.3826 39.3764C32.7266 39.1848 33.0489 38.9627 33.3668 38.7319C33.6847 38.5011 33.9895 38.2573 34.2987 38.0177C34.4903 37.8697 34.6776 37.7173 34.8518 37.5474C35.2394 37.1729 35.6139 36.7897 35.9927 36.4108C36.0276 36.376 36.0668 36.3411 36.0973 36.3019C36.241 36.1103 36.3977 35.9231 36.5589 35.7445C36.6808 35.6052 36.7897 35.4615 36.9029 35.3177C37.051 35.1261 37.1903 34.9302 37.3297 34.7342C37.604 34.3553 37.8697 33.9721 38.0874 33.554C38.1005 33.5323 38.1092 33.5105 38.1223 33.4887C38.2616 33.2797 38.3835 33.0619 38.4968 32.8355C38.5316 32.7702 38.5708 32.7048 38.61 32.6395C38.671 32.5306 38.7363 32.4218 38.7842 32.3042C38.8321 32.1779 38.8931 32.0603 38.9453 31.9384C39.0847 31.6248 39.2284 31.3156 39.3547 30.9934C39.4679 30.706 39.555 30.4098 39.6508 30.1181C39.825 29.5781 39.9905 29.0381 40.095 28.4763C40.1298 28.2977 40.1777 28.1192 40.2082 27.9406C40.2474 27.6968 40.2648 27.4442 40.3171 27.2003C40.3563 27.0261 40.3606 26.8519 40.3606 26.6777C40.3606 26.6342 40.3519 26.5906 40.3694 26.5515C40.4303 26.3903 40.4129 26.2205 40.4129 26.055C40.4129 25.6631 40.4129 25.2668 40.4129 24.8748C40.4129 24.8095 40.4216 24.7355 40.3998 24.6745C40.3563 24.5526 40.365 24.4263 40.3606 24.3C40.3606 24.2347 40.365 24.1606 40.3476 24.0997C40.2692 23.8602 40.2605 23.6076 40.2213 23.3637C40.1777 23.0763 40.0994 22.7932 40.034 22.5102C39.9252 22.066 39.7727 21.6305 39.6073 21.1994C39.4461 20.7856 39.2458 20.3894 39.0324 20.0018C38.8365 19.6447 38.6056 19.305 38.3531 18.9827C38.205 18.7911 38.07 18.5865 37.9045 18.4123C37.5344 18.0247 37.1598 17.6458 36.7244 17.3279C36.3542 17.0579 35.971 16.8053 35.566 16.5832C35.0652 16.3089 34.5339 16.1129 34.0069 15.9039C34.0461 15.8734 34.0853 15.8429 34.1245 15.8168C34.5034 15.5729 34.8692 15.316 35.2176 15.0329C35.3918 14.8935 35.5616 14.7498 35.7358 14.6061C35.7445 14.6061 35.7532 14.6061 35.7619 14.6105C36.2148 14.8282 36.6808 15.0111 37.0858 15.3203C37.2295 15.4335 37.3994 15.5163 37.5518 15.6165C37.7477 15.7471 37.9219 15.8995 38.1092 16.0389C38.3182 16.1956 38.4706 16.4134 38.6971 16.5484C38.7798 16.6834 38.8974 16.7923 39.0106 16.9055C39.2589 17.145 39.4679 17.415 39.6726 17.6894C39.7902 17.8505 39.899 18.016 40.021 18.1771C40.1255 18.3165 40.2126 18.4732 40.304 18.6213C40.5653 19.0394 40.7744 19.4879 40.979 19.9321C41.101 20.1977 41.2185 20.4677 41.3056 20.7465C41.3884 21.0077 41.4842 21.2647 41.5277 21.539C41.5495 21.6784 41.6061 21.809 41.641 21.9484C41.7019 22.2053 41.7803 22.4666 41.8108 22.7279C41.8369 22.9369 41.8631 23.1416 41.9197 23.3419C41.9327 23.3985 41.924 23.4595 41.924 23.5161C41.924 23.6337 41.9197 23.7513 41.9632 23.8645C41.985 23.9168 41.9763 23.9821 41.9763 24.0387C41.9763 24.239 41.9763 24.4394 41.9763 24.644C41.9763 24.7529 41.9806 24.8574 42.0111 24.9663C42.046 25.0969 42.046 25.2319 42.0068 25.3626C41.9806 25.4453 41.9763 25.5281 41.9763 25.6108C41.9763 25.8111 41.9763 26.0115 41.9763 26.2161C41.9763 26.3424 41.985 26.4687 41.9371 26.5863C41.924 26.6211 41.924 26.669 41.9284 26.7126C41.9458 26.9347 41.8979 27.1437 41.85 27.3571C41.8413 27.3963 41.8326 27.4398 41.8282 27.479C41.8282 27.7055 41.7803 27.9276 41.7237 28.1453C41.6584 28.411 41.6366 28.6897 41.5321 28.9466C41.4973 29.3995 41.3231 29.8219 41.1924 30.2531C41.0444 30.7408 40.8789 31.2198 40.6611 31.6858C40.5392 31.9427 40.4434 32.2084 40.3214 32.4653C40.1473 32.8355 39.9948 33.2144 39.7771 33.5627C39.6552 33.7544 39.5768 33.9677 39.4505 34.155C39.3242 34.351 39.2066 34.5513 39.076 34.7473C38.8931 35.026 38.7276 35.3177 38.5273 35.5834C38.401 35.7489 38.2703 35.9144 38.1484 36.0798C37.9873 36.3019 37.8131 36.5153 37.6476 36.7374C37.6084 36.7897 37.5605 36.8419 37.5213 36.8942C37.3166 37.1685 37.0466 37.3863 36.8419 37.665C36.7723 37.7565 36.6808 37.8348 36.5981 37.9176C36.4456 38.07 36.2845 38.2224 36.1365 38.3835C35.9927 38.5403 35.8186 38.6579 35.6618 38.7885C35.5834 38.8539 35.5094 38.9192 35.431 38.9845C35.1566 39.2153 34.9084 39.4766 34.6035 39.6682C34.4468 39.764 34.2987 39.8729 34.1637 39.9992C34.1027 40.0558 34.0331 40.1037 33.959 40.1473C33.5802 40.3563 33.2405 40.635 32.8529 40.831C32.8311 40.844 32.8094 40.8571 32.7919 40.8745C32.7092 40.9747 32.596 41.0226 32.4784 41.0705C32.3652 41.1227 32.2606 41.1924 32.1518 41.2577C31.8818 41.4232 31.5944 41.5669 31.2982 41.6845C31.2677 41.6976 31.2329 41.7063 31.2068 41.7237C30.915 41.9066 30.5884 42.0111 30.2748 42.1461C30.0615 42.2376 29.8437 42.329 29.6173 42.3944C29.3473 42.4727 29.0729 42.5511 28.7985 42.6295C28.4763 42.7253 28.154 42.8037 27.8274 42.856C27.6532 42.8821 27.479 42.9039 27.3092 42.9431C27.0697 42.9997 26.8258 42.9692 26.5906 43.0215C26.4165 43.0606 26.2248 43.0302 26.0376 43.0345C25.9113 43.0345 25.7894 43.0302 25.6631 43.0694C25.589 43.0955 25.4932 43.0955 25.4148 43.0694C25.2755 43.0258 25.1318 43.0345 24.9924 43.0302C24.766 43.0215 24.5395 43.065 24.3218 42.9823C24.1258 43.004 23.9385 42.9474 23.7513 42.9256C23.5379 42.8995 23.3245 42.856 23.1155 42.8081C22.5711 42.6818 22.0355 42.5163 21.5173 42.3073C21.2821 42.2158 21.0556 42.1069 20.8335 41.9937C20.7029 41.924 20.5592 41.9327 20.4242 41.8848C20.3937 41.8718 20.3415 41.8979 20.3066 41.9153C19.9321 42.0852 19.5619 42.2594 19.1874 42.4205C18.9044 42.5424 18.6169 42.66 18.3295 42.7689C18.0247 42.8821 17.7155 42.9823 17.4063 43.0911C17.3584 43.1085 17.3061 43.139 17.2626 43.126C17.1319 43.0911 17.0013 43.0781 16.8706 43.126C16.8315 43.139 16.7879 43.1216 16.7531 43.0911C16.6747 43.0302 16.5832 42.9823 16.5135 42.9082C16.3045 42.6905 16.0781 42.4902 15.8777 42.2637C15.5947 41.9458 15.316 41.6279 15.059 41.2839C14.7411 40.8615 14.4798 40.4042 14.2011 39.96C13.9485 39.555 13.7613 39.1152 13.5784 38.6753C13.5087 38.5055 13.426 38.34 13.3563 38.1702C13.3127 38.07 13.2387 38.0352 13.1385 38.0395C13.2431 37.8697 13.426 37.7869 13.5653 37.6606C13.7831 37.469 14.0182 37.2948 14.249 37.1119C14.5016 36.9073 14.7542 36.7026 15.0068 36.4979C15.0721 36.4456 15.1244 36.3803 15.1897 36.3237C15.3987 36.1452 15.6077 35.9666 15.8124 35.7837Z" fill="#F38900"/>
<path d="M35.7358 14.6018C35.5616 14.7455 35.3918 14.8892 35.2176 15.0285C34.8692 15.3116 34.5034 15.5685 34.1245 15.8124C34.081 15.8385 34.0461 15.869 34.0069 15.8995C33.9721 15.9039 33.9416 15.9169 33.9242 15.9561C33.8806 15.9735 33.8284 15.991 33.7892 16.0171C32.6569 16.666 31.4463 17.0884 30.166 17.3192C29.2079 17.489 28.2368 17.5456 27.2613 17.5282C26.8606 17.5195 26.4556 17.5021 26.055 17.4673C25.5803 17.4237 25.1056 17.3627 24.6353 17.2974C24.0387 17.2147 23.4465 17.1015 22.8542 16.9752C22.8368 16.9708 22.8194 16.9752 22.8063 16.9752C22.619 16.9273 22.4361 16.875 22.2489 16.8315C21.6131 16.6921 20.986 16.5179 20.3589 16.335C20.1977 16.2871 20.0453 16.2218 19.8885 16.1608C19.8406 16.1434 19.8015 16.1129 19.7448 16.1173C19.7187 16.0998 19.6926 16.0781 19.6621 16.065C19.3311 15.9213 19.0002 15.7776 18.6648 15.6339C18.6344 15.6208 18.6039 15.6165 18.569 15.6077C18.3992 15.5032 18.2206 15.4161 18.029 15.3552C18.016 15.329 17.9942 15.316 17.9637 15.3203C17.7852 15.2202 17.611 15.1156 17.415 15.0547C17.3584 15.0198 17.3061 14.9806 17.2495 14.9502C16.9969 14.8152 16.74 14.6802 16.4831 14.5452C16.3742 14.4885 16.2653 14.4319 16.1521 14.3753C16.1085 14.3318 16.065 14.2969 16.004 14.2926C15.869 14.1794 15.7123 14.101 15.5511 14.0313C15.4205 13.9485 15.2855 13.8571 15.1548 13.7787C14.8848 13.6176 14.6105 13.4565 14.3405 13.2953C14.3361 13.2692 14.3187 13.2561 14.2926 13.2605C14.2795 13.2561 14.2621 13.2474 14.249 13.2431C14.0923 13.1037 13.9181 12.9992 13.7352 12.9034L13.7265 12.899C13.7265 12.8773 13.7134 12.8685 13.6916 12.8729C13.6742 12.8642 13.6568 12.8511 13.6394 12.8424C13.635 12.8294 13.6306 12.8119 13.6263 12.7989C13.6916 12.7989 13.7613 12.7858 13.8223 12.8163C13.9137 12.8598 14.0139 12.8773 14.1053 12.9121C14.4973 13.0558 14.9023 13.1647 15.3029 13.2735C15.8603 13.4216 16.4177 13.5523 16.9839 13.6611C17.2539 13.7134 17.5282 13.7308 17.7939 13.8048C17.9985 13.8615 18.2076 13.8527 18.4123 13.8919C18.5385 13.9181 18.6735 13.9529 18.8085 13.9485C19.0611 13.9442 19.305 14.0313 19.5576 14.0052C19.5837 14.0008 19.6098 14.0052 19.6316 14.0139C19.7448 14.0618 19.8624 14.0487 19.98 14.0487C20.1237 14.0531 20.2718 14.0313 20.4068 14.0618C20.5723 14.101 20.7377 14.0966 20.9076 14.0966C21.2516 14.0966 21.5956 14.0966 21.9397 14.0966C22.005 14.0966 22.079 14.1053 22.14 14.0835C22.2706 14.04 22.4056 14.0487 22.5363 14.0444C22.6713 14.04 22.8106 14.0574 22.9369 14.0313C23.0632 14.0052 23.1852 13.9965 23.3115 13.9921C23.3594 13.9921 23.416 13.9965 23.4595 13.979C23.5553 13.9442 23.6555 13.9442 23.7556 13.9442C23.8079 13.9442 23.8558 13.9442 23.9037 13.9355C24.2477 13.8745 24.5918 13.8092 24.9358 13.7439C25.4192 13.6568 25.8982 13.5348 26.3685 13.3955C27.1785 13.156 27.9581 12.8337 28.7289 12.4853C29.1992 12.2719 29.6826 12.0803 30.1747 11.9105C30.6668 11.7406 31.1545 11.5708 31.6597 11.4489C31.9166 11.3879 32.1779 11.3226 32.4436 11.279C32.6744 11.2398 32.9008 11.1876 33.1316 11.1615C33.2797 11.144 33.4365 11.1527 33.5802 11.1179C33.7718 11.07 33.9634 11.0787 34.155 11.0787C34.4468 11.0744 34.7429 11.0744 35.0347 11.0787C35.2785 11.0831 35.5137 11.1223 35.7532 11.1615C35.8752 11.1832 36.0014 11.2006 36.1234 11.2268C36.4718 11.3095 36.8158 11.4053 37.1468 11.5534C37.4081 11.671 37.6389 11.8365 37.8871 11.9758C37.8915 12.0194 37.874 12.0585 37.8523 12.0934C37.7695 12.2066 37.6911 12.3242 37.6084 12.4418C37.5692 12.4984 37.53 12.5506 37.53 12.6203C37.4473 12.6421 37.4081 12.7074 37.3776 12.7815C37.2165 12.9731 37.0597 13.1647 36.8942 13.3563C36.5589 13.7526 36.2061 14.1358 35.8229 14.4842C35.8011 14.5277 35.7706 14.5669 35.7358 14.6018Z" fill="#016733"/>
<path d="M10.4255 45.1466C10.4037 45.1423 10.3776 45.1336 10.3558 45.1292C10.2774 45.029 10.1816 44.9463 10.0815 44.8723C9.99435 44.759 9.89855 44.6545 9.78532 44.5674C9.72435 44.4455 9.63726 44.3453 9.53274 44.2582C9.51097 44.1885 9.46742 44.1319 9.41516 44.084C9.30629 43.9011 9.19306 43.7139 9.08419 43.531C9.06677 43.4395 9.02323 43.3568 8.97097 43.2784C8.96661 43.261 8.96226 43.2479 8.9579 43.2305C8.94484 43.1565 8.92307 43.0868 8.87081 43.0258C8.82726 42.8429 8.78371 42.66 8.74016 42.4771C8.7271 42.3073 8.71403 42.1374 8.70097 41.9676L8.71839 41.9719C8.78371 41.9763 8.8229 42.0111 8.85774 42.0634C8.9971 42.2855 9.17564 42.4684 9.35855 42.6469C9.4021 42.6861 9.44565 42.7253 9.51097 42.721C9.50226 43.004 9.5371 43.2827 9.61113 43.5615C9.70258 43.8924 9.83758 44.206 10.0118 44.5021C10.1206 44.6894 10.2426 44.8679 10.3819 45.0334C10.4211 45.0639 10.4255 45.1074 10.4255 45.1466Z" fill="#F39000"/>
<path d="M37.8958 11.9889C37.6476 11.8495 37.4168 11.684 37.1555 11.5665C36.8289 11.4184 36.4805 11.3182 36.1321 11.2398C36.0102 11.2137 35.8882 11.1919 35.7619 11.1745C35.5224 11.1353 35.2873 11.0918 35.0434 11.0918C34.7516 11.0874 34.4555 11.0874 34.1637 11.0918C33.9721 11.0918 33.7805 11.0831 33.5889 11.131C33.4452 11.1658 33.2927 11.1571 33.1403 11.1745C32.9095 11.205 32.6787 11.2573 32.4523 11.2921C32.191 11.3356 31.9297 11.3966 31.6684 11.4619C31.1632 11.5839 30.6755 11.7537 30.1834 11.9235C29.6913 12.0934 29.2123 12.285 28.7376 12.4984C27.9668 12.8468 27.1873 13.1647 26.3773 13.4085C25.9069 13.5479 25.4279 13.6698 24.9445 13.7569C24.6005 13.8179 24.2565 13.8832 23.9124 13.9485C23.8645 13.9573 23.8123 13.9573 23.7644 13.9573C23.6642 13.9573 23.564 13.9573 23.4682 13.9921C23.4247 14.0095 23.3681 14.0052 23.3202 14.0052C23.1939 14.0095 23.0719 14.0139 22.9456 14.0444C22.815 14.0705 22.68 14.0574 22.545 14.0574C22.41 14.0618 22.2794 14.0487 22.1487 14.0966C22.0877 14.1184 22.0181 14.1097 21.9484 14.1097C21.6044 14.1097 21.2603 14.1097 20.9163 14.1097C20.7508 14.1097 20.5853 14.1097 20.4155 14.0748C20.2805 14.0444 20.1324 14.0661 19.9887 14.0618C19.8711 14.0574 19.7535 14.0748 19.6403 14.0269C19.6185 14.0182 19.5924 14.0139 19.5663 14.0182C19.3137 14.0444 19.0698 13.9573 18.8173 13.9616C18.6823 13.9616 18.5516 13.9268 18.421 13.905C18.2163 13.8658 18.0073 13.8745 17.8026 13.8179C17.5369 13.7439 17.2626 13.7265 16.9926 13.6742C16.4265 13.5653 15.869 13.439 15.3116 13.2866C14.911 13.1777 14.506 13.0689 14.114 12.9252C14.0226 12.8903 13.9224 12.8729 13.831 12.8294C13.7656 12.7989 13.7003 12.8076 13.635 12.8119C13.6219 12.8163 13.6089 12.8163 13.5958 12.8206C13.5653 12.7989 13.5348 12.7771 13.5044 12.7553C13.5261 12.7074 13.5653 12.7161 13.6045 12.7118C13.6524 12.7118 13.7003 12.7074 13.7439 12.7074C13.9442 12.751 14.1445 12.764 14.3492 12.7466C14.3797 12.751 14.4145 12.764 14.445 12.764C14.85 12.7727 15.2594 12.7858 15.6644 12.7815C15.8473 12.7815 16.0302 12.7902 16.2087 12.7466C16.3306 12.7553 16.4526 12.7597 16.5702 12.7205C16.6355 12.7379 16.7008 12.7292 16.7618 12.6987H16.7661C16.9708 12.7118 17.1711 12.6726 17.3715 12.6377C17.5761 12.6247 17.7765 12.5898 17.9724 12.5376C18.2642 12.5027 18.5473 12.4331 18.8303 12.3634C18.9523 12.3329 19.0785 12.3242 19.1831 12.2545C19.2179 12.2458 19.2527 12.2371 19.2832 12.2284C19.3094 12.2371 19.3268 12.2284 19.3442 12.2066C19.3965 12.2066 19.4444 12.2023 19.4879 12.1718C19.5227 12.1848 19.5489 12.1718 19.5706 12.1456C19.6185 12.1456 19.6621 12.1369 19.6969 12.1021L19.7144 12.1108L19.7231 12.0977C19.7448 12.0934 19.7623 12.089 19.784 12.0803C20.0279 12.0281 20.2587 11.9366 20.4939 11.8539C20.6637 11.7929 20.8423 11.7494 20.9947 11.6448C21.0339 11.6448 21.0731 11.6361 21.0992 11.61C21.121 11.6231 21.1297 11.6144 21.1384 11.5969C21.3126 11.549 21.4824 11.4924 21.6305 11.3923C21.8265 11.3444 22.0094 11.266 22.1835 11.1615L22.201 11.1527C22.4144 11.0918 22.6147 11.0047 22.8019 10.8915C22.9674 10.8566 23.1111 10.7782 23.2548 10.6911C23.3158 10.6911 23.3637 10.665 23.4073 10.6258C23.6163 10.5605 23.8123 10.4647 24.0082 10.3689C24.2173 10.2948 24.4219 10.2165 24.6179 10.1119C24.644 10.1163 24.6615 10.1076 24.6702 10.0815C24.8618 10.0423 25.0447 9.96823 25.2189 9.88113C25.3539 9.84194 25.4845 9.80274 25.6195 9.76355C25.6587 9.75048 25.6935 9.72871 25.711 9.68516C25.8373 9.68516 25.9592 9.66339 26.0811 9.61984C26.5863 9.44129 27.1089 9.33677 27.6315 9.2279C28.006 9.14952 28.3848 9.0929 28.7594 9.03194C28.816 9.02323 28.8769 9.02758 28.9335 9.02323C29.0729 9.01887 29.2166 9.03193 29.356 8.98403C29.4169 8.96226 29.4866 8.97532 29.5563 8.97532C30.2269 8.97532 30.8976 8.97532 31.5639 8.97532C31.6553 8.97532 31.7468 8.97532 31.8382 9.00581C31.8905 9.02323 31.9515 9.02323 32.0124 9.02323C32.2127 9.03194 32.4131 9.01016 32.609 9.07113C32.6613 9.08855 32.7266 9.07548 32.7832 9.07548C32.8921 9.07984 33.001 9.06677 33.1055 9.11032C33.1447 9.12339 33.1882 9.12339 33.2274 9.12339C33.4365 9.11903 33.6411 9.17129 33.8458 9.20613C34.0897 9.24532 34.3379 9.28016 34.5818 9.32806C34.8082 9.37597 35.039 9.42823 35.2611 9.49355C35.6748 9.61984 36.0842 9.76355 36.4718 9.96823C36.7548 10.1163 37.0292 10.2731 37.2469 10.5082C37.2818 10.5474 37.321 10.5779 37.3732 10.5823C37.3994 10.6563 37.456 10.7042 37.4995 10.7652C37.7739 11.1266 37.9306 11.5273 37.8958 11.9889Z" fill="#019833"/>
<path d="M37.8958 11.9889C37.935 11.5273 37.7739 11.131 37.5039 10.7652C37.4603 10.7042 37.4037 10.6563 37.3776 10.5823C37.5518 10.3732 37.7826 10.2208 37.9698 10.0292C38.0308 9.96387 38.1048 9.90726 38.131 9.81581C38.1614 9.81145 38.2006 9.82016 38.2224 9.80274C38.3313 9.71129 38.4402 9.61548 38.5447 9.51968L38.549 9.51532C38.9671 9.22355 39.3895 8.93177 39.8076 8.64C39.8773 8.61823 39.9426 8.57903 39.9905 8.52242C40.1429 8.46145 40.2779 8.37436 40.4173 8.28726C40.6089 8.20452 40.7918 8.10871 40.9703 7.99984C41.1794 7.92145 41.384 7.83435 41.5844 7.72984C41.7847 7.66016 41.9894 7.60355 42.1766 7.49468C42.2724 7.50339 42.3508 7.45113 42.4423 7.42935C42.5381 7.40323 42.5468 7.40758 42.5903 7.50339C42.6731 7.67758 42.7166 7.86484 42.8211 8.02597C42.8516 8.18274 42.9256 8.31774 42.991 8.46145C43.0302 8.56597 43.0737 8.67484 43.1129 8.77936C43.139 8.85339 43.1303 8.87516 43.0519 8.90565C42.9605 8.94484 42.8603 8.95355 42.7819 9.01016C42.5729 9.06677 42.3682 9.14516 42.1766 9.24968C42.0198 9.29758 41.8631 9.35855 41.7237 9.45435C41.7063 9.46306 41.6889 9.46742 41.6715 9.47613C41.6453 9.47177 41.6279 9.48484 41.6148 9.51097C41.5931 9.50661 41.5756 9.51097 41.5669 9.5371C41.384 9.59806 41.2229 9.70258 41.0618 9.80274C40.8223 9.95081 40.5697 10.0727 40.3606 10.26C40.2256 10.3297 40.0994 10.4081 39.9948 10.5256C39.9034 10.5735 39.8163 10.6215 39.751 10.7085C39.5637 10.8218 39.3982 10.9611 39.2502 11.1266C39.1979 11.1397 39.1674 11.1745 39.15 11.2181C38.9584 11.3444 38.8016 11.5098 38.6536 11.6797C38.6056 11.7015 38.5665 11.7319 38.5534 11.7842C38.414 11.8974 38.2877 12.0281 38.1876 12.1761C38.0656 12.2763 37.9568 12.3895 37.8827 12.5289C37.8 12.5681 37.7695 12.6595 37.6955 12.7118C37.6389 12.69 37.5736 12.6856 37.5344 12.6247C37.53 12.5506 37.5736 12.4984 37.6127 12.4461C37.6955 12.3329 37.7739 12.2153 37.8566 12.0977C37.8827 12.0673 37.9002 12.0324 37.8958 11.9889Z" fill="#673503"/>
<path d="M35.8882 22.0485C35.8882 21.9135 35.8882 21.7785 35.8882 21.6479C35.8882 21.5565 35.8926 21.465 35.8577 21.3735C35.8447 21.3431 35.8403 21.3082 35.8403 21.2734C35.8229 20.7552 35.714 20.2544 35.6052 19.7492C35.5181 19.3398 35.3918 18.9435 35.2698 18.5473C35.2568 18.5081 35.2481 18.4689 35.235 18.4253C35.3003 18.4253 35.3482 18.4558 35.3874 18.5037C35.4919 18.6213 35.6182 18.7258 35.7489 18.8129C35.91 18.9174 36.0406 19.0611 36.18 19.1961C36.2497 19.2658 36.315 19.3442 36.4065 19.3921C36.4326 19.4052 36.4631 19.4313 36.4761 19.4618C36.5458 19.5881 36.6634 19.6752 36.7592 19.7797C36.8115 19.8363 36.8724 19.8842 36.916 19.9452C37.1468 20.2718 37.4037 20.581 37.604 20.9294C37.7085 21.1123 37.8174 21.2865 37.9089 21.4781C38.0221 21.7132 38.1266 21.9484 38.2137 22.1923C38.3008 22.4361 38.401 22.6713 38.4706 22.9239C38.536 23.159 38.5752 23.3985 38.6535 23.625C38.7102 23.7948 38.7276 23.969 38.7494 24.1389C38.7668 24.2782 38.7755 24.4219 38.8147 24.5569C38.8495 24.6702 38.8539 24.7877 38.8582 24.9053C38.8582 25.0142 38.8452 25.1274 38.8713 25.2319C38.9018 25.3495 38.9061 25.4627 38.9061 25.5803C38.9061 25.7415 38.9018 25.8982 38.9061 26.0594C38.9235 26.4208 38.8234 26.7736 38.8495 27.135C38.8539 27.1742 38.8277 27.2134 38.8234 27.2569C38.7973 27.3963 38.7711 27.5356 38.7537 27.675C38.7319 27.8492 38.7363 28.0277 38.6884 28.1932C38.6231 28.4197 38.5926 28.6505 38.5316 28.8726C38.4358 29.2166 38.3444 29.565 38.2268 29.9047C38.0221 30.4882 37.8261 31.0761 37.5431 31.6292C37.4777 31.7555 37.4429 31.8948 37.3689 32.0168C37.321 32.0952 37.2731 32.1735 37.2295 32.2563C37.0335 32.6439 36.8027 33.014 36.5719 33.3798C36.3237 33.7674 36.0537 34.1376 35.7663 34.4947C35.5094 34.8213 35.2524 35.1523 34.9519 35.444C34.9084 35.4832 34.8736 35.5311 34.8387 35.5747C34.6732 35.8011 34.4685 35.984 34.2639 36.1669C34.0679 36.3455 33.8589 36.511 33.6586 36.6895C33.5627 36.7723 33.4844 36.8681 33.3711 36.9334C33.284 36.9856 33.2056 37.051 33.1316 37.1163C32.8747 37.3471 32.5916 37.5387 32.3042 37.726C31.8861 38.0003 31.455 38.2573 30.9934 38.4663C30.7974 38.5577 30.6145 38.6753 30.4098 38.7537C30.2618 38.8103 30.1137 38.8669 29.9656 38.9279C29.5781 39.089 29.1818 39.2153 28.7768 39.3155C28.35 39.4244 27.9189 39.5158 27.479 39.5811C27.2395 39.616 27 39.6116 26.7605 39.6595C26.6081 39.69 26.4426 39.6682 26.2858 39.6639C25.994 39.6552 25.6979 39.6987 25.4105 39.616C25.3626 39.6029 25.3103 39.616 25.2581 39.6116C25.2058 39.6116 25.1535 39.616 25.11 39.5985C24.9968 39.5506 24.8792 39.5637 24.7616 39.5594C24.644 39.5594 24.5265 39.5594 24.4089 39.5594C24.496 39.4461 24.6223 39.3764 24.7355 39.2981C25.1405 39.0106 25.5542 38.7276 25.9548 38.4314C26.2423 38.2181 26.5123 37.9873 26.791 37.7608C26.8737 37.6955 26.9869 37.6606 27.0305 37.5474C27.1611 37.469 27.27 37.3689 27.3876 37.2774C27.6097 37.1032 27.8318 36.929 28.0321 36.7244C28.0626 36.6939 28.0887 36.659 28.1235 36.6373C28.3631 36.4935 28.5242 36.2627 28.7463 36.0973C28.951 35.9448 29.1252 35.7445 29.2994 35.5529C29.4735 35.3613 29.7087 35.235 29.8698 35.0303C30.1224 34.7168 30.4142 34.4424 30.6929 34.155C30.7103 34.1376 30.7277 34.1158 30.7365 34.094C30.7452 34.0723 30.7495 34.0461 30.7539 34.02C30.7887 33.9939 30.8235 33.9721 30.854 33.946C30.9847 33.8153 31.1023 33.676 31.2242 33.5366C31.4898 33.2274 31.7598 32.9182 32.0081 32.596C32.3042 32.2127 32.6134 31.8426 32.879 31.4376C32.8921 31.4158 32.9095 31.3984 32.9226 31.3766C33.149 31.0761 33.3537 30.7626 33.5497 30.4403C33.7282 30.1486 33.9068 29.8568 34.0766 29.5606C34.2116 29.3298 34.3423 29.0947 34.425 28.8421C34.4642 28.8247 34.499 28.7985 34.5121 28.755C34.5644 28.5765 34.6689 28.424 34.7429 28.2542C34.7647 28.2019 34.7995 28.1497 34.8169 28.0974C34.9258 27.81 35.0477 27.5269 35.1566 27.2352C35.3047 26.8432 35.431 26.4469 35.5355 26.0419C35.6226 25.711 35.7053 25.3844 35.7445 25.0403C35.775 24.7703 35.849 24.5003 35.836 24.226C35.836 24.1998 35.836 24.1737 35.8447 24.1519C35.8969 24.0387 35.8839 23.9211 35.8839 23.8035C35.8882 23.22 35.8882 22.6365 35.8882 22.0485Z" fill="#F39700"/>
<path d="M35.8882 22.0485C35.8882 22.6365 35.8882 23.22 35.8882 23.8079C35.8882 23.9255 35.9013 24.0431 35.849 24.1563C35.8403 24.1781 35.8403 24.2042 35.8403 24.2303C35.8534 24.509 35.7794 24.7747 35.7489 25.0447C35.7097 25.3844 35.6269 25.7153 35.5398 26.0463C35.4353 26.4513 35.309 26.8476 35.161 27.2395C35.0521 27.5269 34.9302 27.81 34.8213 28.1018C34.7995 28.1584 34.769 28.2063 34.7473 28.2585C34.6732 28.4284 34.5687 28.5808 34.5165 28.7594C34.5034 28.8029 34.4685 28.8247 34.4294 28.8465C34.4337 28.7027 34.486 28.5677 34.5556 28.4458C34.634 28.3065 34.6776 28.154 34.7211 28.0016C34.7473 27.9145 34.7603 27.8231 34.7908 27.736C34.8169 27.6532 34.83 27.5748 34.83 27.4921C34.8344 27.3005 34.7995 27.1045 34.8736 26.9173C34.8823 26.8955 34.8823 26.865 34.8736 26.8432C34.8082 26.6734 34.83 26.4948 34.8344 26.3206C34.8387 26.116 34.7647 25.9244 34.7734 25.724C34.6515 25.4105 34.6297 25.0752 34.4903 24.766C34.364 24.4742 34.2726 24.1694 34.094 23.9037C33.8676 23.564 33.6411 23.22 33.3581 22.9239C33.1185 22.6756 32.8268 22.4927 32.5437 22.3011C32.204 22.0703 31.8252 21.9135 31.4332 21.7916C31.0892 21.6871 30.7408 21.6 30.3794 21.6044C30.3402 21.6044 30.2966 21.5956 30.2574 21.5826C30.1921 21.5565 30.1268 21.5565 30.0571 21.5565C29.9003 21.5608 29.7435 21.5565 29.5824 21.5956C29.4082 21.6392 29.221 21.6131 29.0381 21.6479C28.7506 21.7045 28.4632 21.7524 28.1889 21.8526C27.9363 21.944 27.6837 22.0311 27.4311 22.1182C27.4006 22.1313 27.3702 22.1444 27.3397 22.1574C26.9434 22.3534 26.5384 22.545 26.1813 22.8106C26.0811 22.8847 25.981 22.9631 25.8765 23.0327C25.5803 23.2244 25.3234 23.4639 25.0665 23.7034C24.8487 23.8994 24.6571 24.1215 24.4655 24.3392C24.2695 24.5569 24.0866 24.7834 23.9168 25.0229C23.49 25.6239 23.1242 26.264 22.8498 26.9521C22.68 27.3789 22.5276 27.81 22.4361 28.2629C22.4013 28.4415 22.3969 28.6287 22.3142 28.7985C22.2924 28.8421 22.3055 28.8987 22.3011 28.9466C22.2968 28.9989 22.3098 29.0511 22.2924 29.0947C22.2358 29.2427 22.2532 29.3908 22.2532 29.5432C22.2532 29.8045 22.2619 30.0658 22.2489 30.3227C22.2358 30.5666 22.2881 30.8061 22.3142 31.0456C22.3403 31.2852 22.4187 31.516 22.4884 31.7468C22.6626 32.2911 22.8847 32.805 23.2156 33.2797C23.4682 33.6455 23.7818 33.9416 24.0997 34.2377C24.3871 34.5034 24.7485 34.6776 25.0969 34.8561C25.1361 34.8736 25.1753 34.8866 25.2145 34.8997C25.515 34.9998 25.8111 35.1218 26.129 35.1566C26.3598 35.2698 26.6168 35.2568 26.865 35.2916C27.2308 35.3439 27.5966 35.2611 27.9624 35.2437C27.9798 35.2437 27.9929 35.235 28.0103 35.2306C28.3152 35.1523 28.6244 35.0782 28.9292 34.9868C29.1905 34.9084 29.4561 34.83 29.7087 34.7124C30.044 34.5556 30.3532 34.3597 30.6189 34.0984C30.6581 34.0592 30.7016 34.0418 30.7539 34.0418C30.7495 34.0679 30.7452 34.094 30.7365 34.1158C30.7277 34.1376 30.7103 34.1594 30.6929 34.1768C30.4142 34.4642 30.1224 34.7385 29.8698 35.0521C29.7087 35.2524 29.4735 35.3831 29.2994 35.5747C29.1252 35.7663 28.951 35.9666 28.7463 36.119C28.5242 36.2845 28.3631 36.5153 28.1235 36.659C28.0887 36.6808 28.0626 36.7156 28.0321 36.7461C27.8318 36.9508 27.6097 37.125 27.3876 37.2992C27.27 37.3906 27.1611 37.4952 27.0305 37.5692C27.0044 37.5692 26.9782 37.5648 26.9565 37.5692C26.6168 37.6563 26.2727 37.604 25.9331 37.6171C25.9069 37.6171 25.8808 37.6215 25.859 37.6127C25.3756 37.4908 24.8748 37.4429 24.4002 37.2687C24.2434 37.2121 24.0866 37.1555 23.9385 37.0727C23.7208 36.9508 23.4813 36.8724 23.2679 36.7331C23.1155 36.6329 22.9587 36.5327 22.8106 36.4282C22.7018 36.3542 22.5885 36.2758 22.5015 36.1756C22.3969 36.0581 22.2358 35.9971 22.1444 35.8665C21.9702 35.6182 21.735 35.431 21.5521 35.1871C21.3779 34.9519 21.2124 34.7124 21.06 34.4598C20.9294 34.2465 20.8335 34.0156 20.729 33.7848C20.581 33.4582 20.4939 33.1098 20.3632 32.7745C20.3371 32.7048 20.3415 32.6265 20.3197 32.5524C20.2413 32.2563 20.2021 31.9471 20.1411 31.6466C20.1281 31.5813 20.1368 31.5116 20.1368 31.4463C20.1324 31.32 20.115 31.1981 20.1019 31.0761C20.0671 30.6929 20.0802 30.3053 20.0932 29.9221C20.1498 29.7958 20.1324 29.6608 20.1368 29.5258C20.1368 29.3995 20.1237 29.2732 20.1803 29.1556C20.1803 28.829 20.2979 28.5198 20.3371 28.1976C20.3545 28.0452 20.4155 27.9058 20.4503 27.7621C20.6202 27.1306 20.8292 26.5166 21.1123 25.9287C21.2908 25.5629 21.4868 25.2015 21.6871 24.8444C21.8047 24.631 21.9353 24.4263 22.0616 24.2216C22.214 23.9734 22.41 23.7513 22.5842 23.5205C22.6539 23.429 22.7235 23.3332 22.7932 23.2418C22.815 23.2156 22.8281 23.1852 22.8498 23.159C23.1765 22.7671 23.5292 22.3969 23.9081 22.0529C24.3479 21.6566 24.8052 21.2821 25.2929 20.9424C25.7806 20.6027 26.2989 20.311 26.8345 20.0584C27.4181 19.784 28.0277 19.575 28.6548 19.4269C28.9292 19.3616 29.2123 19.3311 29.491 19.2963C29.9613 19.231 30.4273 19.2702 30.8932 19.2571C31.0326 19.2527 31.1719 19.2615 31.3156 19.2919C31.4594 19.3224 31.6118 19.3268 31.7598 19.3485C32.1692 19.4139 32.5481 19.5576 32.9356 19.6926C33.3755 19.845 33.7631 20.0932 34.1463 20.3458C34.5687 20.6245 34.9389 20.9642 35.2698 21.3387C35.444 21.539 35.6269 21.735 35.7402 21.9832C35.7706 22.0224 35.8229 22.0485 35.8882 22.0485Z" fill="#FFAC00"/>
<path d="M24.4176 39.555C24.5352 39.555 24.6527 39.555 24.7703 39.555C24.8879 39.555 25.0055 39.5463 25.1187 39.5942C25.1623 39.6116 25.2189 39.6029 25.2668 39.6073C25.319 39.6073 25.3713 39.5985 25.4192 39.6116C25.7066 39.6944 26.0027 39.6465 26.2945 39.6595C26.4556 39.6639 26.6168 39.6856 26.7692 39.6552C27.0087 39.6073 27.2482 39.6116 27.4877 39.5768C27.9232 39.5115 28.3544 39.4156 28.7855 39.3111C29.1905 39.211 29.5911 39.0847 29.9744 38.9235C30.1224 38.8626 30.2705 38.806 30.4185 38.7494C30.6232 38.671 30.8061 38.5534 31.0021 38.4619C31.4594 38.2529 31.8905 37.996 32.3129 37.7216C32.596 37.5344 32.8834 37.3427 33.1403 37.1119C33.2144 37.0466 33.2927 36.9813 33.3798 36.929C33.4887 36.8637 33.5714 36.7679 33.6673 36.6852C33.8676 36.511 34.0766 36.3455 34.2726 36.1626C34.4773 35.9753 34.6819 35.7924 34.8474 35.5703C34.8823 35.5224 34.9215 35.4789 34.9606 35.4397C35.2611 35.1479 35.5137 34.8169 35.775 34.4903C36.0581 34.1289 36.3324 33.7587 36.5806 33.3755C36.8158 33.0097 37.0466 32.6395 37.2382 32.2519C37.2774 32.1692 37.3297 32.0908 37.3776 32.0124C37.456 31.8905 37.4865 31.7511 37.5518 31.6248C37.8348 31.0718 38.0308 30.4839 38.2355 29.9003C38.3531 29.5606 38.4445 29.2123 38.5403 28.8682C38.6013 28.6461 38.6361 28.411 38.6971 28.1889C38.745 28.0234 38.7363 27.8405 38.7624 27.6706C38.7798 27.5313 38.806 27.3919 38.8321 27.2526C38.8408 27.2134 38.8626 27.1698 38.8582 27.1306C38.8321 26.7692 38.9279 26.4165 38.9148 26.055C38.9061 25.8939 38.9148 25.7371 38.9148 25.576C38.9148 25.4584 38.9105 25.3452 38.88 25.2276C38.8539 25.1274 38.8669 25.0098 38.8669 24.901C38.8669 24.7834 38.8626 24.6702 38.8234 24.5526C38.7798 24.4176 38.7711 24.2739 38.7581 24.1345C38.7406 23.9647 38.7189 23.7861 38.6623 23.6206C38.5839 23.3898 38.5447 23.1503 38.4794 22.9195C38.4097 22.6669 38.3095 22.4318 38.2224 22.1879C38.1353 21.944 38.0308 21.7089 37.9176 21.4737C37.8261 21.2865 37.7173 21.1079 37.6127 20.925C37.4124 20.5766 37.1555 20.2674 36.9247 19.9408C36.8811 19.8798 36.8202 19.8319 36.7679 19.7753C36.6721 19.6708 36.5545 19.5881 36.4848 19.4574C36.4718 19.4313 36.4413 19.4052 36.4152 19.3877C36.3237 19.3398 36.2584 19.2615 36.1887 19.1918C36.0494 19.0568 35.9231 18.9174 35.7576 18.8085C35.6226 18.7215 35.5006 18.6213 35.3961 18.4994C35.3569 18.4558 35.309 18.421 35.2437 18.421C35.2132 18.36 35.1784 18.3034 35.1566 18.2424C34.9911 17.7503 34.7342 17.3018 34.4685 16.8576C34.3248 16.6224 34.1768 16.3916 33.9895 16.1869C33.9242 16.1173 33.9329 16.0345 33.9329 15.9518C33.946 15.9169 33.9765 15.8995 34.0156 15.8952C34.5426 16.1042 35.0782 16.3002 35.5747 16.5745C35.9797 16.7966 36.3629 17.0448 36.7331 17.3192C37.1685 17.6371 37.5431 18.0203 37.9132 18.4035C38.0787 18.5777 38.2137 18.7824 38.3618 18.974C38.6144 19.2963 38.8452 19.636 39.0411 19.9931C39.2545 20.3806 39.4548 20.7769 39.616 21.1906C39.7815 21.6174 39.9382 22.0529 40.0427 22.5015C40.1124 22.7845 40.1865 23.0632 40.23 23.355C40.2692 23.5989 40.2779 23.8515 40.3563 24.091C40.3781 24.1519 40.3694 24.2216 40.3694 24.2913C40.3737 24.4176 40.365 24.5395 40.4086 24.6658C40.4303 24.7268 40.4216 24.7965 40.4216 24.8661C40.4216 25.2581 40.4216 25.6544 40.4216 26.0463C40.4216 26.2118 40.439 26.3816 40.3781 26.5427C40.365 26.5819 40.3694 26.6255 40.3694 26.669C40.3694 26.8432 40.3606 27.0174 40.3258 27.1916C40.2735 27.4355 40.2561 27.6837 40.2169 27.9319C40.1865 28.1105 40.1342 28.289 40.1037 28.4676C39.9992 29.025 39.8294 29.5694 39.6595 30.1094C39.5637 30.4011 39.4766 30.6973 39.3634 30.9847C39.2415 31.3026 39.0934 31.6161 38.954 31.9297C38.9018 32.0516 38.8365 32.1692 38.7929 32.2955C38.7494 32.4131 38.6797 32.5176 38.6187 32.6308C38.5839 32.6961 38.5403 32.7615 38.5055 32.8268C38.3966 33.0532 38.2703 33.271 38.131 33.48C38.1179 33.5018 38.1048 33.5235 38.0961 33.5453C37.8784 33.959 37.6127 34.3423 37.3384 34.7255C37.199 34.9215 37.0597 35.1218 36.9116 35.309C36.7984 35.4527 36.6895 35.6008 36.5676 35.7358C36.4065 35.9187 36.2497 36.1016 36.106 36.2932C36.0755 36.3324 36.0363 36.3673 36.0014 36.4021C35.6226 36.781 35.2481 37.1642 34.8605 37.5387C34.6863 37.7042 34.499 37.8566 34.3074 38.009C33.9982 38.2529 33.6934 38.4924 33.3755 38.7232C33.0576 38.954 32.7353 39.1761 32.3913 39.3677C32.0647 39.5506 31.7424 39.7466 31.4115 39.9252C31.2111 40.0297 31.0021 40.1124 30.7974 40.2039C30.7539 40.2256 30.7016 40.2387 30.6581 40.2605C30.1181 40.5392 29.5345 40.6829 28.964 40.8702C28.6766 40.9616 28.3805 41.0139 28.0931 41.0879C27.9624 41.1227 27.8318 41.1445 27.7011 41.1576C27.3702 41.1924 27.0435 41.2708 26.7082 41.2621C26.3381 41.3535 25.9592 41.2926 25.5847 41.31C25.4932 41.3144 25.4018 41.3144 25.3103 41.2795C25.2711 41.2665 25.2276 41.2621 25.1884 41.2621C24.7268 41.2708 24.2782 41.1619 23.8297 41.0705C23.5248 41.0095 23.2244 40.9485 22.9413 40.8266C22.8498 40.7874 22.7497 40.7787 22.6495 40.7569C22.6147 40.7482 22.5885 40.7352 22.5668 40.709C22.7366 40.6002 22.8977 40.4913 23.0719 40.3868C23.4944 40.1385 23.9081 39.8685 24.3131 39.5942C24.3348 39.5724 24.374 39.5594 24.4176 39.555Z" fill="#F39000"/>
<path d="M8.97532 43.2784C8.9579 43.2784 8.94048 43.2784 8.92306 43.2784C8.93613 43.261 8.94919 43.2479 8.96226 43.2305C8.96661 43.2479 8.97097 43.2653 8.97532 43.2784Z" fill="#F5F5F5"/>
<path d="M30.7582 34.0244C30.706 34.0244 30.6624 34.0461 30.6232 34.081C30.3619 34.3466 30.0484 34.5382 29.7131 34.695C29.4605 34.8126 29.1948 34.8866 28.9335 34.9694C28.6331 35.0608 28.3239 35.1305 28.0147 35.2132C27.9973 35.2176 27.9842 35.2263 27.9668 35.2263C27.601 35.2437 27.2352 35.3265 26.8694 35.2742C26.6255 35.2394 26.3685 35.2524 26.1334 35.1392C25.8155 35.1087 25.5194 34.9824 25.2189 34.8823C25.1797 34.8692 25.1405 34.8561 25.1013 34.8387C24.7485 34.6645 24.3915 34.486 24.104 34.2203C23.7861 33.9286 23.4726 33.6281 23.22 33.2623C22.889 32.7876 22.6669 32.2737 22.4927 31.7294C22.4187 31.4985 22.3403 31.2634 22.3185 31.0282C22.2924 30.7887 22.2402 30.5492 22.2532 30.3053C22.2663 30.044 22.2532 29.7871 22.2576 29.5258C22.2576 29.3777 22.2445 29.2253 22.2968 29.0773C22.3142 29.0337 22.3055 28.9771 22.3055 28.9292C22.3098 28.8813 22.2968 28.8203 22.3185 28.7811C22.4013 28.6113 22.4056 28.424 22.4405 28.2455C22.5319 27.7926 22.6887 27.3615 22.8542 26.9347C23.1242 26.2466 23.4944 25.6108 23.9211 25.0055C24.091 24.766 24.2739 24.5395 24.4698 24.3218C24.6658 24.104 24.8574 23.8819 25.0708 23.686C25.3277 23.4508 25.5847 23.2113 25.8808 23.0153C25.9853 22.9456 26.0855 22.8716 26.1856 22.7932C26.5427 22.5276 26.9434 22.336 27.344 22.14C27.3745 22.1269 27.405 22.1095 27.4355 22.1008C27.6881 22.0137 27.9406 21.9266 28.1932 21.8352C28.4676 21.735 28.755 21.6915 29.0424 21.6305C29.2253 21.5913 29.4126 21.6218 29.5868 21.5782C29.7435 21.539 29.9003 21.5434 30.0615 21.539C30.1268 21.539 30.1965 21.539 30.2618 21.5652C30.301 21.5782 30.3445 21.5869 30.3837 21.5869C30.7452 21.5826 31.0935 21.6697 31.4376 21.7742C31.8295 21.8961 32.2084 22.0529 32.5481 22.2837C32.8311 22.4753 33.1229 22.6539 33.3624 22.9065C33.6455 23.2026 33.8719 23.5423 34.0984 23.8863C34.2769 24.1563 34.3684 24.4611 34.4947 24.7485C34.6297 25.0577 34.6558 25.3974 34.7777 25.7066C34.7734 25.9069 34.8474 26.0985 34.8387 26.3032C34.8344 26.4774 34.8082 26.656 34.8779 26.8258C34.8866 26.8476 34.8866 26.8781 34.8779 26.8998C34.8082 27.0871 34.8431 27.2831 34.8344 27.4747C34.83 27.5574 34.8213 27.6402 34.7952 27.7185C34.7647 27.8056 34.7473 27.8971 34.7255 27.9842C34.6819 28.1366 34.6427 28.289 34.56 28.4284C34.4903 28.5503 34.4381 28.6853 34.4337 28.829C34.351 29.086 34.2203 29.3168 34.0853 29.5476C33.9155 29.8437 33.7369 30.1355 33.5584 30.4273C33.3624 30.7452 33.1577 31.0631 32.9313 31.3635C32.9182 31.3853 32.9008 31.4027 32.8877 31.4245C32.6264 31.8295 32.3173 32.204 32.0168 32.5829C31.7642 32.9052 31.4985 33.2144 31.2329 33.5235C31.111 33.6629 30.9934 33.8023 30.8627 33.9329C30.8279 33.9765 30.7887 33.9982 30.7582 34.0244ZM23.9124 29.504C23.9124 29.6477 23.9037 29.7915 23.9168 29.9308C23.9342 30.1224 23.9429 30.314 23.9952 30.4969C24.0692 30.7669 24.1389 31.0413 24.2521 31.3069C24.374 31.5856 24.5134 31.8513 24.6919 32.0908C24.8008 32.2345 24.901 32.3956 25.049 32.5089C25.3452 32.7397 25.6456 32.9574 25.9897 33.1229C26.4513 33.3494 26.939 33.4365 27.4398 33.4626C27.6315 33.4713 27.8231 33.4495 28.0147 33.4234C28.2803 33.3842 28.5416 33.3363 28.7942 33.2579C29.2253 33.1229 29.639 32.94 30.0266 32.7048C30.3576 32.5045 30.6668 32.2781 30.9542 32.0298C31.4071 31.6336 31.7947 31.1719 32.1344 30.6668C32.4087 30.2531 32.6352 29.8132 32.805 29.3516C32.9226 29.0381 33.0271 28.7202 33.0794 28.3892C33.1055 28.2106 33.1403 28.0277 33.1708 27.8492C33.1839 27.7665 33.2187 27.6837 33.2187 27.6053C33.2144 27.3048 33.2492 27.0044 33.1752 26.7039C33.0924 26.3729 33.0619 26.0332 32.9356 25.711C32.8137 25.4061 32.6656 25.1187 32.4871 24.8444C32.4261 24.7529 32.3739 24.6571 32.3042 24.5744C31.995 24.2173 31.6292 23.9255 31.2024 23.7208C30.8192 23.5379 30.4229 23.429 30.0005 23.3985C29.9569 23.3942 29.9134 23.3942 29.8785 23.3811C29.7915 23.3463 29.6956 23.3463 29.6042 23.3506C29.3124 23.355 29.025 23.3985 28.7376 23.4552C28.3282 23.5379 27.9276 23.6598 27.5531 23.8471C27.2526 23.9952 26.9739 24.1781 26.6952 24.361C26.399 24.5569 26.1508 24.8052 25.8895 25.0316C25.65 25.2406 25.4715 25.5063 25.2624 25.7458C24.9402 26.116 24.7181 26.5515 24.5047 26.9826C24.3261 27.3484 24.1911 27.736 24.091 28.1366C23.9821 28.5765 23.8994 29.0163 23.9211 29.4735C23.9124 29.4866 23.9124 29.4953 23.9124 29.504Z" fill="#FFB500"/>
<path d="M23.9124 29.504C23.9124 29.4953 23.9124 29.4866 23.9124 29.4779C23.8906 29.0206 23.9734 28.5808 24.0823 28.141C24.1824 27.7403 24.3131 27.3527 24.496 26.9869C24.7094 26.5558 24.9358 26.1247 25.2537 25.7502C25.4627 25.5106 25.6369 25.2406 25.8808 25.036C26.1465 24.8095 26.3903 24.5569 26.6865 24.3653C26.9652 24.1824 27.2439 23.9995 27.5444 23.8515C27.9232 23.6642 28.3195 23.5423 28.7289 23.4595C29.0119 23.4029 29.3037 23.3594 29.5955 23.355C29.6869 23.355 29.7784 23.3506 29.8698 23.3855C29.909 23.4029 29.9526 23.3986 29.9918 23.4029C30.4142 23.4334 30.8105 23.5423 31.1937 23.7252C31.6248 23.9298 31.9863 24.2216 32.2955 24.5787C32.3652 24.6615 32.4174 24.7573 32.4784 24.8487C32.6569 25.1231 32.805 25.4061 32.9269 25.7153C33.0532 26.0376 33.0881 26.3773 33.1665 26.7082C33.2405 27.0087 33.21 27.3092 33.21 27.6097C33.21 27.6924 33.1795 27.7708 33.1621 27.8535C33.1316 28.0321 33.0968 28.215 33.0706 28.3935C33.0184 28.7245 32.9139 29.0424 32.7963 29.356C32.6221 29.8176 32.4 30.2574 32.1256 30.6711C31.7903 31.1763 31.4027 31.6335 30.9455 32.0342C30.6581 32.2868 30.3445 32.5132 30.0179 32.7092C29.626 32.9444 29.2166 33.1273 28.7855 33.2623C28.5329 33.3406 28.2716 33.3885 28.006 33.4277C27.8144 33.4539 27.6227 33.48 27.4311 33.4669C26.9303 33.4408 26.4426 33.3581 25.981 33.1273C25.6413 32.9574 25.3365 32.744 25.0403 32.5132C24.8923 32.4 24.7965 32.2389 24.6832 32.0952C24.5003 31.8556 24.3653 31.59 24.2434 31.3113C24.1258 31.05 24.0605 30.7756 23.9865 30.5013C23.9342 30.3184 23.9255 30.1224 23.9081 29.9352C23.9037 29.7915 23.9124 29.6477 23.9124 29.504Z" fill="#FFBB00"/>
</svg>
