<svg width="54" height="54" viewBox="0 0 54 54" fill="none" xmlns="http://www.w3.org/2000/svg">
<path d="M14.1881 32.0473C13.2561 33.4974 12.5898 35.0652 12.0977 36.7113C12.0803 36.7723 12.0803 36.8376 11.9976 36.855C11.7276 36.2889 11.4924 35.7053 11.3226 35.1L10.9524 33.8371C10.3166 31.2285 10.26 29.4779 10.6258 26.8302L15.9213 8.25677C16.2697 6.65419 17.6981 4.55516 19.3224 4.48113C19.9016 4.455 20.4852 4.43758 21.0687 4.44629C21.3213 4.45064 21.4171 4.40274 21.3997 4.12839C21.3735 3.61016 21.3953 3.09194 21.3953 2.57371C21.4084 2.54323 21.4215 2.51274 21.4302 2.48226C21.5695 2.26016 21.7655 2.18177 22.0268 2.18613C22.8455 2.19919 23.6642 2.19048 24.4829 2.19048C24.914 2.19048 25.1056 2.3821 25.1144 2.82629C25.1231 3.25306 25.1231 3.67984 25.1274 4.10661C25.1492 4.20242 25.0011 4.3679 25.2363 4.37661C25.3626 4.37661 25.4889 4.37226 25.6152 4.37226C25.6718 4.37226 25.7284 4.37661 25.785 4.37661C26.3337 4.4071 26.8911 4.32436 27.4398 4.43323C27.9973 4.54645 28.5198 4.725 28.9597 5.09516C28.9553 5.3129 28.9815 5.53064 29.0119 5.74403C29.099 6.43645 29.1426 7.13323 29.2515 7.82129C29.4344 8.98403 29.5824 10.1555 29.835 11.3095C30.0266 12.1674 30.1834 13.0384 30.4665 13.8702C30.5492 14.1227 30.5144 14.3361 30.3576 14.4624C30.1398 14.6366 30.2792 14.7063 30.3837 14.8108C30.5797 15.0155 30.8497 15.1853 30.9585 15.4248C31.2329 16.0258 31.5377 16.6137 31.8121 17.2147C32.3869 18.4645 32.8529 19.7535 33.2056 21.0861C33.3406 21.5956 33.5192 22.0921 33.5671 22.619C33.48 22.6365 33.3885 22.6669 33.3015 22.6713C32.339 22.7148 31.3853 22.7976 30.4316 22.9413C29.1905 23.1242 27.9581 23.3681 26.7474 23.699C25.7197 23.9777 24.7094 24.3131 23.7208 24.705C22.3098 25.2624 20.9598 25.9331 19.6839 26.7474L14.1881 32.0473Z" fill="#278201"/>
<path d="M49.9369 28.276C49.741 27.8492 49.471 27.4573 49.2315 27.0479H49.2358C49.1879 27.0087 49.1487 26.9652 49.1531 26.8955H49.1487C48.931 26.5471 48.7176 26.2031 48.4955 25.859C48.4171 25.7327 48.5042 25.7023 48.5826 25.6587C48.9223 25.4627 49.2619 25.2668 49.5973 25.0708C49.9239 24.8792 49.9761 24.6789 49.7889 24.3435C49.4753 23.7905 49.1574 23.2374 48.8352 22.6844C48.6479 22.3577 48.4389 22.3011 48.1123 22.4884C47.7552 22.6887 47.3981 22.8934 47.0497 23.1024C46.9277 23.1765 46.8668 23.159 46.7971 23.0371C46.5881 22.6756 46.3703 22.3185 46.1482 21.9615C45.6474 21.1471 44.955 20.5679 44.0492 20.2587C43.274 19.9931 42.4902 20.0192 41.6976 20.1542C41.5844 20.2108 41.4668 20.2326 41.3448 20.2369C41.3187 20.2456 41.2926 20.25 41.2621 20.2587C41.1445 20.3066 41.0269 20.3545 40.9094 20.4068C40.7831 20.4677 40.6568 20.5287 40.5305 20.5897C40.5 20.6115 40.4652 20.6332 40.4347 20.6594C40.3389 20.716 40.2474 20.7682 40.1516 20.8248C40.1211 20.8379 40.0863 20.851 40.0558 20.8684C39.9774 20.9555 39.8729 20.9947 39.7597 21.0252C39.4723 21.195 39.1718 21.3387 38.8452 21.4215L38.8321 21.404L38.8408 21.4215C38.819 21.4345 38.7929 21.4432 38.7711 21.4563C38.4445 21.6087 38.0961 21.7176 37.7521 21.8177C36.99 22.0355 36.2279 22.2663 35.431 22.3403C35.0085 22.4797 34.5687 22.4971 34.1332 22.5537C33.9285 22.5798 33.7195 22.5929 33.5148 22.6103C33.4277 22.6277 33.3363 22.6582 33.2492 22.6626C32.2868 22.7061 31.3331 22.7889 30.3794 22.9326C29.1382 23.1155 27.9058 23.3594 26.6952 23.6903C25.6674 23.969 24.6571 24.3044 23.6685 24.6963C22.2576 25.2537 20.9076 25.9244 19.6316 26.7387C19.5358 26.7997 19.4182 26.8476 19.3703 26.9695C19.2615 27.2308 19.0524 27.331 18.7824 27.3223C18.7258 27.3397 18.6735 27.3615 18.6169 27.3789C18.4166 27.5182 18.5995 27.8144 18.3992 27.9885C18.3339 27.8623 18.4645 27.7403 18.36 27.6794C18.2337 27.6097 18.1815 27.7621 18.0944 27.8187C17.9811 27.8927 17.8635 27.9624 17.7982 28.0887C17.7808 28.0887 17.7634 28.0887 17.746 28.0887C17.7111 28.1061 17.6719 28.1235 17.6371 28.1453C17.5805 28.2673 17.4194 28.3152 17.415 28.4719C17.1102 28.5285 16.9882 28.8334 16.74 28.9684C16.6877 28.9989 16.7226 29.0729 16.7661 29.1077C16.9142 29.2384 16.8184 29.356 16.7661 29.5127C16.6181 29.0773 16.6137 29.0773 16.2915 29.4126C16.2087 29.4997 16.0432 29.5606 16.0781 29.7044C16.1129 29.8524 16.2915 29.7479 16.3873 29.8176C16.396 29.8263 16.3916 29.8481 16.396 29.8785C16.2871 29.9047 16.1826 29.9134 16.0824 29.8568C15.9561 29.7871 15.8603 29.774 15.8211 29.9526C15.8081 30.0223 15.7297 30.0353 15.6905 30.0832C15.4205 30.3881 15.046 30.6363 15.1113 31.124C15.1156 31.1415 15.0852 31.1632 15.0765 31.185C14.9545 31.1502 15.0677 30.9977 14.9545 30.9673L14.1489 32.0516C13.2169 33.5018 12.5506 35.0695 12.0585 36.7156C12.0411 36.7766 12.0411 36.8419 11.9584 36.8594C12.0106 36.9726 11.954 37.0727 11.9235 37.1729C11.3226 39.3111 10.8479 41.4668 10.8871 43.7095C10.9089 45.0247 11.2442 46.2266 12.0629 47.2761C12.6856 48.0687 13.5 48.6131 14.3884 49.0616C16.1565 49.9587 18.0421 50.5074 19.9669 50.9342C21.404 51.2521 24.3261 51.4045 26.0376 51.3784C26.0332 51.3871 26.0245 51.3958 26.0202 51.4045C26.1247 51.3958 26.2248 51.3827 26.3294 51.374C26.3729 51.374 26.4121 51.3697 26.4556 51.3697C26.4556 51.3653 26.4513 51.361 26.4513 51.361C28.2455 51.1432 29.9569 50.6294 31.6074 49.876C32.9444 49.2663 34.1855 48.4911 35.3874 47.6463C35.4179 47.6245 35.4484 47.6071 35.4745 47.5853C35.505 47.5548 35.5355 47.52 35.5747 47.4939C38.1571 45.5516 40.3215 43.2131 42.1461 40.5566C42.9256 39.4244 43.6006 38.2224 44.4673 37.1468C45.5995 35.7402 46.8406 34.4555 48.4127 33.5279C48.7785 33.3145 49.0747 33.014 49.336 32.6831C50.4073 31.32 50.6729 29.8611 49.9369 28.276ZM17.8897 28.1453C17.8897 28.1497 17.881 28.1627 17.8723 28.1627C17.8113 28.1671 17.8113 28.1192 17.8069 28.08C17.8461 28.0844 17.894 28.0844 17.8897 28.1453ZM17.6545 28.6418C17.6545 28.6505 17.6327 28.6679 17.624 28.6723C17.5544 28.6766 17.5413 28.6287 17.5326 28.5721C17.5848 28.5765 17.6415 28.5765 17.6545 28.6418ZM17.5326 28.5721C17.4629 28.5721 17.4237 28.5329 17.4237 28.4632C17.4934 28.4632 17.5326 28.4981 17.5326 28.5721ZM17.2974 28.8639C17.3148 28.8726 17.3279 28.8769 17.3453 28.8856C17.3366 28.8987 17.3366 28.9248 17.3235 28.9292C17.3105 28.9335 17.2931 28.9161 17.28 28.9118C17.2844 28.8944 17.2931 28.8813 17.2974 28.8639Z" fill="#2AA703"/>
<path d="M35.4397 22.3316C35.0173 22.471 34.5774 22.4884 34.1419 22.545C33.9373 22.5711 33.7282 22.5842 33.5235 22.6016C33.48 22.0747 33.2971 21.5739 33.1621 21.0687C32.8094 19.7405 32.3434 18.4471 31.7685 17.1973C31.4942 16.5963 31.1894 16.0127 30.915 15.4074C30.8061 15.1635 30.5361 14.9937 30.3402 14.7934C30.2356 14.6845 30.0963 14.6192 30.314 14.445C30.4708 14.3231 30.5056 14.1053 30.4229 13.8527C30.1398 13.0166 29.9831 12.15 29.7915 11.2921C29.5345 10.1381 29.3908 8.97097 29.2079 7.80387C29.099 7.11581 29.0555 6.41903 28.9684 5.72661C28.9423 5.50887 28.9118 5.29548 28.9161 5.07774C29.9526 5.8529 30.4882 6.91548 30.5361 8.17839C30.5971 9.88113 30.9803 11.5055 31.5682 13.0906C31.6118 13.1995 31.6553 13.3084 31.6989 13.4129C31.7729 13.6524 31.86 13.8876 31.9863 14.1097C31.9863 14.1532 31.9863 14.1968 32.0385 14.2229C32.056 14.3231 32.0777 14.4189 32.1431 14.4973C32.1648 14.5321 32.1823 14.5669 32.204 14.6061C32.4435 15.2289 32.7615 15.8081 33.075 16.3916C34.0897 18.2816 34.8648 20.2674 35.4397 22.3316Z" fill="#247502"/>
<path d="M26.4469 50.7382C24.5395 50.76 20.9947 50.5335 19.1526 50.0632C17.4542 49.6321 15.7906 49.0965 14.249 48.2385C12.8947 47.4852 11.9715 46.4052 11.6535 44.8635C11.4706 43.9708 11.4924 43.065 11.5795 42.1679C11.7929 39.9992 12.3068 37.9002 13.0166 35.8447C14.0269 32.9226 15.7776 30.5187 18.1684 28.5808C20.7465 26.4905 23.7034 25.1579 26.8868 24.2956C28.8856 23.7556 30.9194 23.4203 32.9923 23.2897C35.1348 23.1547 37.2382 22.7715 39.2458 21.9658C39.7858 21.7481 40.304 21.4824 40.8135 21.1906C42.3377 20.3153 44.5587 20.4808 45.6735 22.3839C46.8406 24.374 48.0469 26.3381 49.2402 28.3108C49.9631 29.5084 49.8324 30.976 48.9048 32.1692C48.6087 32.5481 48.256 32.8529 47.8423 33.1011C46.4618 33.9416 45.3469 35.0739 44.3061 36.2932C43.2653 37.5126 42.4771 38.9061 41.5756 40.2169C39.5158 43.2044 37.0379 45.7824 33.9939 47.7813C31.725 49.2706 29.234 50.3071 26.5384 50.7034L26.4469 50.7382Z" fill="#E99400"/>
<path d="M17.5326 28.5721C17.5848 28.5808 17.6415 28.5765 17.6545 28.6461C17.6545 28.6548 17.6327 28.6723 17.624 28.6766C17.55 28.6766 17.5369 28.6244 17.5326 28.5721Z" fill="#278201"/>
<path d="M17.5326 28.5721C17.4629 28.5721 17.4237 28.5329 17.4237 28.4632C17.4934 28.4632 17.5326 28.4981 17.5326 28.5721Z" fill="#278201"/>
<path d="M17.2974 28.8639C17.3148 28.8726 17.3279 28.8769 17.3453 28.8856C17.3366 28.8987 17.3366 28.9248 17.3235 28.9292C17.3105 28.9335 17.2931 28.9161 17.28 28.9118C17.2844 28.8944 17.2931 28.8813 17.2974 28.8639Z" fill="#278201"/>
<path d="M17.8069 28.0756C17.8461 28.0844 17.894 28.08 17.8897 28.141C17.8897 28.1453 17.881 28.1584 17.8723 28.1584C17.8113 28.1627 17.8113 28.1192 17.8069 28.0756Z" fill="#278201"/>
<path d="M22.7018 9.04065C22.6147 8.42226 22.4361 7.86919 22.1356 7.3379C21.796 6.73258 21.256 6.34065 20.6245 6.11419C20.1455 5.94436 19.6055 5.99226 19.109 6.08806C18.3905 6.22306 17.881 6.71952 17.4411 7.27258C17.2844 7.4729 17.2234 7.39452 17.1319 7.24645C17.0361 7.49032 16.9665 7.7429 16.9708 8.00855C16.9882 8.6879 16.949 9.37161 16.8489 10.0423C16.6529 11.3444 16.3132 12.6116 15.8429 13.8484C15.734 14.1315 15.5685 14.4015 15.5424 14.7194C14.9197 15.8865 13.9442 18.0116 13.4869 19.2527C12.7031 21.3866 12.1195 23.5684 11.8365 25.8242C11.9584 25.8285 12.0585 25.846 12.0063 26.0158C11.9845 26.0811 11.9715 26.1682 11.9932 26.2292C12.1587 26.656 12.1848 27.1263 12.4287 27.5313C12.6552 27.9058 12.8424 28.3108 13.1952 28.5765C13.6306 28.8987 14.0879 29.1556 14.6497 29.2645C15.1418 29.3603 15.5903 29.2689 16.004 29.1252C16.7748 28.8595 17.2844 28.2542 17.6327 27.5182C17.8723 27.0131 18.0552 26.4948 18.016 25.9244C18.0116 25.8765 18.0465 25.8155 18.0813 25.7806C18.1727 25.6935 18.1684 25.589 18.1727 25.4802C18.1902 24.8661 18.3165 24.2652 18.3774 23.6555C18.4123 23.3158 18.5168 22.9892 18.6082 22.6626C18.7084 22.2968 18.7868 21.9266 18.8913 21.5652C18.9348 21.4215 19.0437 21.2908 19.0785 21.1471C19.2048 20.6027 19.5053 20.1324 19.71 19.6229C20.0932 18.6735 20.6898 17.8244 21.0731 16.875C21.1471 16.6965 21.2603 16.7008 21.3953 16.7835C21.5085 16.8532 21.5826 16.9882 21.7306 17.01L21.735 17.0056C21.7306 16.9011 21.6566 16.8445 21.5869 16.7835C21.2429 16.47 21.2211 16.3568 21.4171 15.9344C21.4955 15.7689 21.5565 15.599 21.6261 15.4292C21.8613 14.85 22.0181 14.2447 22.2053 13.6481C22.3273 13.2648 22.4013 12.8642 22.4666 12.4723C22.5102 12.211 22.5885 11.9453 22.5973 11.6623C22.6103 11.2442 22.7627 10.8174 22.7627 10.3906C22.7758 9.9421 22.7671 9.49355 22.7018 9.04065ZM20.9555 11.7276C20.8423 12.6726 20.5984 13.5958 20.2413 14.4842C20.1194 14.789 19.9931 15.1069 20.0932 15.4553C20.1106 15.5076 20.0889 15.586 20.0627 15.6382C19.5358 16.6529 19.1874 17.746 18.63 18.7476C18.1727 19.5706 17.8287 20.446 17.5152 21.3344C17.145 22.3926 16.9273 23.4856 16.7835 24.5874C16.7139 25.1187 16.531 25.6021 16.4047 26.1029C16.1956 26.926 15.2202 27.3745 14.4494 27.0087C14.1489 26.865 13.8658 26.6516 13.7613 26.2858C13.6873 26.0289 13.5261 25.7937 13.4652 25.5368C13.3824 25.1971 13.3389 24.8444 13.3215 24.496C13.3127 24.3131 13.4477 24.2956 13.5784 24.4132C13.709 24.5308 13.831 24.6527 14.0052 24.8182C13.9921 24.6179 13.8963 24.5439 13.8179 24.496C13.4434 24.2565 13.4216 23.8558 13.439 23.5031C13.4608 22.9631 13.5435 22.4187 13.6698 21.8918C13.8397 21.1732 14.101 20.4721 14.31 19.7666C14.4102 19.4313 14.5234 19.0829 14.6671 18.7824C14.9589 18.1815 15.0721 17.3497 15.6774 17.0448C15.8429 16.9621 15.8952 16.8402 15.9866 16.2915L16.0302 16.0127C16.2348 15.2245 18.3469 9.21048 18.9479 8.60952C19.3094 8.24806 19.8798 8.1871 20.311 8.52242C20.3197 8.53113 20.3284 8.53548 20.3371 8.54419C20.3502 8.5529 20.3632 8.56161 20.3719 8.57468C20.3981 8.59645 20.4242 8.62258 20.446 8.64871C20.9337 9.16694 21.0034 9.78532 21.0774 10.456C21.134 10.9089 21.0077 11.3139 20.9555 11.7276Z" fill="#278801"/>
<path d="M20.4503 8.64435C20.4242 8.61823 20.4024 8.59645 20.3763 8.57032C20.3632 8.56161 20.3545 8.54855 20.3415 8.53984C20.3327 8.53113 20.324 8.52677 20.3153 8.51806C19.8842 8.18274 19.3137 8.24371 18.9523 8.60516C18.3513 9.20613 16.2392 15.2202 16.0345 16.0084L15.991 16.2871C15.8995 16.8402 15.8473 16.9577 15.6818 17.0405C15.0765 17.3453 14.9632 18.1771 14.6715 18.7781C14.5277 19.0742 14.4145 19.4226 14.3144 19.7623C14.101 20.4721 13.844 21.1689 13.6742 21.8874C13.5479 22.4144 13.4652 22.9587 13.4434 23.4987C13.426 23.8558 13.4477 24.2521 13.8223 24.4916C13.9006 24.5439 14.0008 24.6135 14.0095 24.8139C13.8353 24.6484 13.7134 24.5264 13.5827 24.4089C13.4521 24.2913 13.3127 24.3087 13.3258 24.4916C13.3432 24.84 13.3868 25.1927 13.4695 25.5324C13.5305 25.7894 13.6916 26.0245 13.7656 26.2815C13.8745 26.6516 14.1576 26.865 14.4537 27.0044C15.2202 27.3658 16.1956 26.9216 16.409 26.0985C16.5353 25.5934 16.7182 25.11 16.7879 24.5831C16.9316 23.4813 17.1494 22.3926 17.5195 21.33C17.8331 20.4373 18.1771 19.5663 18.6344 18.7432C19.1918 17.7416 19.5402 16.6486 20.0671 15.6339C20.0932 15.5816 20.115 15.5032 20.0976 15.451C19.9974 15.1026 20.1237 14.7847 20.2456 14.4798C20.6027 13.5915 20.8466 12.6682 20.9598 11.7232C21.0077 11.3052 21.1384 10.9045 21.0861 10.4473C21.0077 9.78097 20.9381 9.16258 20.4503 8.64435ZM14.4711 25.306C14.4581 25.2973 14.4319 25.2973 14.4276 25.2842C14.4232 25.2755 14.4363 25.2537 14.445 25.2406C14.4624 25.2494 14.4842 25.2494 14.4885 25.2624C14.4929 25.2711 14.4798 25.2885 14.4711 25.306ZM15.1287 25.9592C15.12 25.9635 15.0982 25.9461 15.0852 25.9418C15.0939 25.9287 15.0939 25.9026 15.1069 25.8982C15.1156 25.8939 15.1374 25.9069 15.1505 25.9156C15.1461 25.9331 15.1418 25.9548 15.1287 25.9592ZM15.5119 26.3424C15.451 26.3468 15.451 26.2989 15.4466 26.2597C15.4074 26.251 15.3595 26.2553 15.3639 26.1944C15.3639 26.19 15.3726 26.1769 15.3813 26.1769C15.4423 26.1726 15.4423 26.2205 15.4466 26.2597C15.4858 26.2684 15.5337 26.264 15.5294 26.325C15.5294 26.3294 15.5163 26.3424 15.5119 26.3424Z" fill="#279001"/>
<path d="M20.7639 48.3431C21.2385 48.4258 21.7089 48.5173 22.1835 48.5869C23.3245 48.7481 24.4698 48.8395 25.6282 48.7437C26.3816 48.6784 27.1132 48.5085 27.8579 48.4345C28.2977 48.391 28.6374 48.1558 29.0424 48.0644C29.4561 47.9729 29.8437 47.7813 30.2444 47.6289C31.1937 47.2674 32.0603 46.7579 32.9226 46.2353C33.7456 45.7345 34.499 45.1379 35.2437 44.5282C35.7532 44.1145 36.2366 43.6747 36.7026 43.2174C37.935 42.0068 39.0498 40.6873 40.0384 39.2676C40.7787 38.2006 41.4929 37.1163 42.2855 36.0929C42.6295 35.6487 43.004 35.2263 43.3742 34.8039C44.2887 33.7456 45.434 32.9356 46.4052 31.9427C46.9147 31.4245 47.2065 30.8105 47.2718 30.0876C47.2805 29.9744 47.3023 29.896 47.4155 29.8524C47.6506 29.761 47.7726 29.5868 47.7856 29.3124C47.9511 29.4387 47.9685 29.5911 47.9206 29.7392C47.8727 29.8785 47.7769 29.9918 47.6071 30.0092C47.5331 30.0179 47.3806 29.9613 47.4155 30.1137C47.4416 30.2182 47.5723 30.1747 47.655 30.1616C47.7334 30.1486 47.8031 30.0963 47.8771 30.0615C47.8902 30.8715 47.5461 31.5334 47.0366 32.1344C46.4052 32.8834 45.6126 33.4495 44.9027 34.1115C44.354 34.6253 43.8358 35.174 43.3481 35.7489C42.7515 36.45 42.2506 37.2165 41.6627 37.9219C41.4755 38.1484 41.4058 38.4271 41.2098 38.6405C41.0139 38.8626 40.8658 39.1326 40.696 39.3764C40.0776 40.2605 39.4331 41.1271 38.7145 41.9327C38.3356 42.3595 37.9873 42.8211 37.5779 43.2131C37.0205 43.7444 36.4718 44.2844 35.8839 44.7808C35.37 45.2119 34.8561 45.6431 34.3031 46.0263C34.216 46.0873 34.1376 46.1787 34.0113 46.1352C33.9895 46.1265 33.9416 46.1395 33.9416 46.1482C33.8676 46.5445 33.4756 46.575 33.2274 46.7623C32.9661 46.9582 32.6787 47.1194 32.3956 47.2805C31.3069 47.8989 30.1703 48.404 28.9771 48.7698C28.3108 48.9745 27.6315 49.1356 26.939 49.2315C26.8258 49.2489 26.7344 49.3011 26.6342 49.3447C26.534 49.41 26.4121 49.3534 26.3076 49.4013C25.8721 49.3621 25.441 49.4535 25.0055 49.4579C23.9603 49.4623 22.9326 49.2924 21.9005 49.1966C21.4868 49.1574 21.33 48.8569 21.06 48.6653C20.9729 48.6044 20.9076 48.5085 20.7813 48.526C20.7813 48.5085 20.7813 48.4911 20.7813 48.4694C20.7639 48.4127 20.7639 48.3779 20.7639 48.3431Z" fill="#ED8D00"/>
<path d="M41.519 22.6539C41.4145 22.6495 41.3623 22.5929 41.3579 22.4927C41.4624 22.4971 41.5147 22.5494 41.519 22.6539Z" fill="#F28200"/>
<path d="M18.299 30.3794C18.3165 30.4316 18.3382 30.4882 18.3556 30.5405L18.3513 30.5448C18.299 30.51 18.2424 30.4708 18.1902 30.436C18.2119 30.3881 18.2555 30.3794 18.299 30.3794Z" fill="#F67900"/>
<path d="M41.6279 22.7627C41.5582 22.7627 41.5234 22.7279 41.5234 22.6582C41.5931 22.6582 41.6279 22.6931 41.6279 22.7627Z" fill="#F28200"/>
<path d="M28.6505 25.2319C28.6287 25.2755 28.5852 25.2842 28.5416 25.2842C28.5634 25.2406 28.6069 25.2319 28.6505 25.2319Z" fill="#ED8D00"/>
<path d="M48.0556 29.4387C47.8466 29.0468 47.5374 28.7506 47.1629 28.5155C47.0453 28.5068 47.0279 28.4066 46.9887 28.3282C46.8494 28.0626 46.7318 27.7882 46.5794 27.5313C46.1656 26.8258 45.7389 26.129 45.3208 25.4279C44.9376 24.7877 44.5282 24.1606 43.9969 23.6381C43.3524 23.0023 42.5685 22.6582 41.6323 22.7627L41.6279 22.7584C41.5582 22.7584 41.5234 22.7235 41.5234 22.6539L41.519 22.6495C41.4145 22.6452 41.3623 22.5885 41.3579 22.4884C41.1532 22.5189 40.9485 22.5537 40.7482 22.6277C39.9861 22.9021 39.2327 23.1939 38.4619 23.429C38.2137 23.5031 38.0874 23.7382 37.8348 23.7774C37.7826 23.7861 37.8 23.8732 37.8392 23.9168C37.8871 23.9734 37.9394 24.0213 37.9829 24.0779C38.009 24.1127 38.0265 24.165 37.9873 24.1998C37.9437 24.239 37.9045 24.1998 37.8697 24.1694C37.7782 24.0823 37.6824 23.9952 37.5997 23.8994C37.4865 23.7644 37.3819 23.7513 37.199 23.8123C36.3977 24.0779 35.566 24.239 34.7342 24.3348C34.0418 24.4176 33.3581 24.5308 32.6613 24.5787C31.934 24.631 31.2068 24.7311 30.4839 24.84C29.8698 24.9315 29.2471 25.0142 28.6548 25.2189C28.6331 25.2624 28.5895 25.2711 28.546 25.2711C27.3702 25.589 26.1944 25.8982 25.049 26.3119C23.9298 26.7169 22.8673 27.2308 21.8221 27.7795C21.0469 28.1889 20.3023 28.6679 19.6098 29.221C19.1569 29.5824 18.6735 29.909 18.3034 30.3663C18.3208 30.4186 18.3426 30.4752 18.36 30.5274C18.4297 30.5318 18.4645 30.5666 18.4689 30.6363C18.4994 30.6494 18.5255 30.6624 18.556 30.6755C18.5473 30.6842 18.5429 30.6973 18.5342 30.706C18.5124 30.6842 18.4906 30.6581 18.4689 30.6363C18.434 30.6015 18.3948 30.5623 18.36 30.5274C18.3077 30.4926 18.2511 30.4534 18.1989 30.4185C18.1945 30.5448 18.0944 30.6058 18.016 30.6798C17.5021 31.1589 17.0492 31.6945 16.6268 32.2519C15.6469 33.5584 14.9327 35.0042 14.4058 36.5502C13.9877 37.7739 13.6698 39.0194 13.4434 40.291C13.3955 40.5435 13.2692 40.8266 13.4956 41.0748C13.5261 41.1053 13.5392 41.1706 13.4826 41.1924C13.2213 41.2752 13.2779 41.5016 13.2692 41.6845C13.2561 42.0111 13.2692 42.3421 13.2648 42.6687C13.2474 43.4874 13.4521 44.2539 13.8353 44.9724C14.0052 45.2947 14.1837 45.6518 14.4842 45.8347C14.7673 46.0089 15.0808 46.096 15.1505 46.4792C15.1548 46.5053 15.2027 46.5271 15.2332 46.5445C15.5381 46.7274 15.8385 46.919 16.1521 47.0845C17.1711 47.6202 18.2729 47.9468 19.3703 48.269C19.7797 48.391 20.189 48.4998 20.6158 48.5608C20.6942 48.5695 20.7595 48.6087 20.7726 48.4911C20.7726 48.4737 20.7726 48.4563 20.7726 48.4345C20.729 48.391 20.6594 48.3474 20.6724 48.2821C20.6768 48.256 20.7465 48.2821 20.7726 48.3213C21.2473 48.404 21.7176 48.4955 22.1923 48.5652C23.3332 48.7263 24.4785 48.8177 25.6369 48.7219C26.3903 48.6566 27.1219 48.4868 27.8666 48.4127C28.3065 48.3692 28.6461 48.134 29.0511 48.0426C29.4648 47.9511 29.8524 47.7595 30.2531 47.6071C31.2024 47.2456 32.069 46.7361 32.9313 46.2136C33.7544 45.7127 34.5077 45.1161 35.2524 44.5065C35.7619 44.0927 36.2453 43.6529 36.7113 43.1956C37.9437 41.985 39.0585 40.6655 40.0471 39.2458C40.7874 38.1789 41.5016 37.0945 42.2942 36.0711C42.6382 35.6269 43.0127 35.2045 43.3829 34.7821C44.2974 33.7239 45.4427 32.9139 46.4139 31.921C46.9234 31.4027 47.2152 30.7887 47.2805 30.0658C47.2892 29.9526 47.311 29.8742 47.4242 29.8306C47.6594 29.7392 47.7813 29.565 47.7944 29.2906C47.9598 29.4169 47.9773 29.5694 47.9294 29.7174C47.8815 29.8568 47.7856 29.97 47.6158 29.9874C47.5418 29.9961 47.3894 29.9395 47.4242 30.0919C47.4503 30.1965 47.581 30.1529 47.6637 30.1398C47.7421 30.1268 47.8118 30.0745 47.8858 30.0397C48.0165 29.8698 48.1863 29.6869 48.0556 29.4387ZM13.635 41.3187C13.635 41.31 13.6306 41.3056 13.6306 41.2969C13.6394 41.3013 13.6524 41.3013 13.6655 41.31C13.6481 41.3144 13.6437 41.3144 13.635 41.3187Z" fill="#F28200"/>
<path d="M45.7911 31.8556C45.5342 31.6466 45.5342 31.6466 45.8042 31.4942C46.0655 31.3418 46.1526 31.0021 46.0045 30.719C45.9697 30.6537 45.8695 30.5797 45.9523 30.51C46.0306 30.4447 46.0916 30.5448 46.1526 30.5971C46.2571 30.6885 46.3311 30.8366 46.5053 30.8148C46.514 31.1632 46.244 31.3548 46.0698 31.6031C45.9958 31.7032 45.8869 31.7729 45.7911 31.8556Z" fill="#F28200"/>
<path d="M20.7639 48.3431C20.7639 48.3779 20.7639 48.4171 20.7639 48.4519C20.7203 48.4084 20.6506 48.3648 20.6637 48.2995C20.6681 48.2734 20.7377 48.2995 20.7639 48.3431Z" fill="#E99400"/>
<path d="M18.9 31.0369C18.8652 31.0326 18.826 31.0326 18.8173 30.9847C18.8173 30.976 18.839 30.9542 18.8477 30.9542C18.8956 30.9585 18.8956 30.9977 18.9 31.0369Z" fill="#F67900"/>
<path d="M18.4645 30.6494C18.495 30.6624 18.5211 30.6755 18.5516 30.6885C18.5429 30.6973 18.5385 30.7103 18.5298 30.719C18.5081 30.6973 18.4863 30.6755 18.4645 30.6494Z" fill="#F67900"/>
<path d="M18.3556 30.5405C18.4253 30.5448 18.4602 30.5797 18.4645 30.6494L18.4602 30.6537C18.4253 30.6145 18.3905 30.5797 18.3556 30.5405Z" fill="#F67900"/>
<path d="M13.6655 41.31C13.6524 41.3144 13.6437 41.3187 13.635 41.3187C13.635 41.31 13.6306 41.3056 13.6306 41.2969C13.6394 41.3013 13.6481 41.3013 13.6655 41.31Z" fill="#E99400"/>
<path d="M29.9613 26.6516C29.909 26.6342 29.8742 26.595 29.8568 26.5471C29.9265 26.5471 29.9613 26.5819 29.9613 26.6516Z" fill="#ED8D00"/>
<path d="M29.8524 26.5427C29.8176 26.5079 29.7784 26.4731 29.7435 26.4382C29.8176 26.4339 29.8524 26.4687 29.8524 26.5427Z" fill="#ED8D00"/>
<path d="M30.0745 26.6516C30.0702 26.6821 30.0789 26.73 30.031 26.7213C30.0048 26.7169 29.9874 26.6777 29.9656 26.6516C30.0005 26.656 30.0397 26.656 30.0745 26.6516Z" fill="#ED8D00"/>
<path d="M16.4439 43.7356C16.801 43.8968 17.145 44.0797 17.4803 44.2844C17.3148 44.476 17.1494 44.4194 16.9882 44.2844C16.8837 44.1973 16.7966 44.0927 16.7008 43.9969C16.6529 43.9534 16.6006 43.9011 16.5353 43.9185C16.1782 44.01 16.4003 43.8315 16.4439 43.7356Z" fill="#F08600"/>
<path d="M16.4308 43.4656C16.4308 43.5223 16.4308 43.5789 16.4308 43.6311C16.3437 43.6094 16.2174 43.5963 16.2348 43.4874C16.2566 43.3524 16.3655 43.4918 16.4308 43.4656Z" fill="#F08600"/>
<path d="M14.6323 42.2594C14.654 42.2811 14.6802 42.3029 14.7019 42.329C14.6932 42.3377 14.6802 42.3421 14.6715 42.3508C14.654 42.3203 14.641 42.2942 14.6323 42.2594Z" fill="#F08600"/>
<path d="M14.4668 42.0982C14.4842 42.1156 14.5016 42.1331 14.5234 42.1548L14.519 42.1592C14.5016 42.1374 14.4798 42.12 14.4668 42.0982Z" fill="#F08600"/>
<path d="M14.5713 42.2115C14.5539 42.194 14.5365 42.1766 14.5147 42.1548L14.519 42.1505C14.5408 42.1679 14.5582 42.1897 14.5713 42.2115Z" fill="#F08600"/>
<path d="M45.9827 29.4561C45.9 28.9858 45.6735 28.5808 45.4515 28.1802C44.8897 27.1698 44.2974 26.1813 43.6311 25.2363C43.3742 24.8748 43.0911 24.5352 42.6818 24.3218C41.9545 23.9473 41.2403 24.1127 40.5348 24.361C39.6987 24.6615 38.8844 25.0142 38.0221 25.2494C36.929 25.5498 35.8186 25.7676 34.6994 25.9461C34.5513 25.9679 34.4816 26.0202 34.4947 26.1682C34.3031 26.0898 34.1202 26.1073 33.946 26.2248C33.8676 25.9069 33.6194 26.0724 33.4582 26.0811C32.9879 26.1073 32.5219 26.1682 32.056 26.2292C31.455 26.3076 30.8497 26.3511 30.2574 26.4948C30.1529 26.521 30.0615 26.5384 30.0527 26.669C30.0484 26.6995 30.0571 26.7474 30.0092 26.7387C29.9831 26.7344 29.9656 26.6952 29.9439 26.669L29.9395 26.6647C29.8873 26.6473 29.8524 26.6081 29.835 26.5602L29.8306 26.5558C29.7958 26.521 29.7566 26.4861 29.7218 26.4513C29.7044 26.4339 29.6826 26.4121 29.6652 26.3947C29.6477 26.3947 29.6303 26.3947 29.6129 26.3947C29.2819 26.3773 28.9684 26.4948 28.6505 26.5602C27.0348 26.8955 25.4845 27.4268 23.9734 28.0844C23.2897 28.3848 22.6277 28.7202 21.9876 29.1034C21.0731 29.6477 20.1934 30.24 19.4139 30.9673C19.2135 31.1545 19.0873 31.2373 18.8739 31.05L18.8695 31.0544C18.8913 31.1937 18.7955 31.2721 18.7084 31.3505C18.2511 31.7903 17.82 32.2606 17.4368 32.7702C16.1434 34.4729 15.3639 36.4108 14.8195 38.4576C14.5887 39.3242 14.4058 40.2039 14.2839 41.0923C14.236 41.4406 14.1271 41.8152 14.4363 42.1156C14.4537 42.1331 14.4711 42.1505 14.4929 42.1723C14.5103 42.1897 14.5277 42.2071 14.5495 42.2289C14.5669 42.2463 14.5844 42.2637 14.6018 42.2855C14.6235 42.3073 14.6497 42.329 14.6715 42.3552C14.6627 42.3639 14.6497 42.3682 14.641 42.3769C14.6279 42.3465 14.6148 42.3203 14.6018 42.2898C14.5844 42.2724 14.5669 42.255 14.5452 42.2376C14.5277 42.2202 14.5103 42.2027 14.4885 42.181C14.4711 42.1635 14.4537 42.1461 14.4319 42.1244C14.2229 42.0939 14.1663 42.2158 14.1576 42.3987C14.1489 42.6165 14.2011 42.8298 14.2229 43.0432C14.2926 43.8271 14.4842 44.5674 15.0895 45.1335C15.1548 45.1031 15.2202 45.0726 15.2985 45.0856C15.4989 45.1205 15.9735 45.5865 16.0215 45.7911C15.9823 46.0742 16.2392 46.1003 16.3916 46.1874C17.1363 46.6229 17.9637 46.8711 18.7781 47.1455C19.0002 47.2195 19.2571 47.3719 19.4705 47.1019C19.9539 47.2152 20.4373 47.3414 20.925 47.446C21.7568 47.6245 22.5973 47.7552 23.4464 47.8248C23.9473 47.864 24.4481 47.8727 24.9445 47.864C26.1377 47.8423 27.3092 47.655 28.4458 47.2935C28.7506 47.1977 29.0555 47.1194 29.3516 46.9931C29.626 46.8755 29.7348 47.1019 29.8742 47.2631C29.9308 47.311 29.9831 47.3589 30.0397 47.4024C30.1006 47.446 30.1486 47.5723 30.2269 47.4895C30.301 47.4155 30.2008 47.3414 30.1442 47.2892C30.0005 47.1629 30.0615 47.0976 30.2008 47.041C30.2748 47.0105 30.3489 46.9669 30.4185 46.9321C30.4621 46.8319 30.5187 46.7405 30.5361 46.6273C30.5492 46.5271 30.5927 46.4269 30.6929 46.3877C31.2024 46.1787 31.6292 45.8085 32.1518 45.6256C32.3608 45.556 32.5219 45.4166 32.5524 45.1815C32.5742 45.0203 32.7092 44.9898 32.8094 44.9202C33.824 44.2277 34.7821 43.4613 35.6531 42.5947C36.4413 41.8064 37.2382 41.0226 37.9176 40.1298L42.6382 33.8545C43.1826 33.3406 43.7923 32.8965 44.28 32.326C44.5108 32.056 44.5935 32.1823 45.2206 31.3723C45.8652 30.5666 45.9827 29.4561 45.9827 29.4561Z" fill="#F67900"/>
<path d="M37.6084 38.009C37.6215 37.9829 37.6389 37.9568 37.6519 37.9306C38.0047 37.3035 38.3444 36.6721 38.6187 36.0058C39.3721 34.1855 39.7989 32.2955 39.8206 30.3184C39.825 30.0963 39.7379 29.9569 39.5463 29.8655C39.2502 29.7261 38.954 29.5868 38.6579 29.4474C37.0945 28.7202 35.4484 28.3152 33.7369 28.1366C33.6455 28.1279 33.541 28.1715 33.4626 28.0844C33.406 28.0844 33.3537 28.0844 33.2971 28.0844C33.2056 28.1802 33.1142 28.0495 33.0227 28.0844C32.8965 28.0756 32.7658 28.1148 32.6482 28.0495C32.5089 27.9755 32.6787 27.8013 32.5219 27.7011C32.4958 27.9929 32.2737 28.1061 32.0734 28.0626C31.8513 28.0103 31.6597 28.08 31.455 28.0887C30.7277 28.1061 30.0048 28.1845 29.295 28.3239C27.6445 28.6505 26.0724 29.1992 24.5961 30.0223C23.2287 30.7844 22.0006 31.7119 20.9032 32.8311C19.8494 33.9024 18.9697 35.1 18.2685 36.4239C17.1058 38.6274 16.4482 40.9703 16.4308 43.4744C16.4308 43.531 16.4308 43.5876 16.4308 43.6398C16.4352 43.6747 16.4395 43.7095 16.4439 43.7444C16.801 43.9055 17.145 44.0884 17.4803 44.2931C17.5587 44.3192 17.6371 44.341 17.7155 44.3671C17.7416 44.3758 17.7677 44.3845 17.7895 44.3976C19.7623 45.2685 21.8265 45.6866 23.9777 45.7215C24.3 45.7258 24.6092 45.6518 24.9315 45.6648C25.5411 45.6866 26.1465 45.5952 26.7431 45.4819C28.816 45.0813 30.7626 44.3584 32.5481 43.2087C33.5018 42.5947 34.3815 41.8979 35.1958 41.114C35.714 40.6176 36.1756 40.0689 36.6111 39.4984C36.7548 39.3068 36.8985 39.1152 37.0379 38.9235C37.1294 38.7624 37.2034 38.5926 37.3645 38.4837C37.3689 38.4663 37.3689 38.4489 37.3732 38.4314C37.3863 38.414 37.4037 38.3966 37.4168 38.3792L37.4211 38.3748C37.4211 38.2965 37.456 38.2442 37.5256 38.2094C37.5431 38.1919 37.5605 38.1745 37.5823 38.1571C37.5692 38.0961 37.5866 38.0526 37.6084 38.009ZM35.2611 33.946C35.7794 34.4816 35.7706 35.3003 35.2524 35.8447C35.2089 35.8926 35.1653 35.9361 35.1218 35.984C35.7053 36.524 35.8708 37.051 35.6444 37.6432C35.37 38.3661 34.5861 38.7102 33.8458 38.4358C33.7456 38.3966 33.6455 38.2921 33.6237 38.5273C33.5105 39.6334 32.5655 40.156 31.5595 39.6769C31.529 39.6639 31.4942 39.6508 31.4463 39.6334C31.4376 39.8642 31.5073 40.0732 31.4637 40.2953C31.2721 41.2752 30.2226 41.7498 29.3734 41.2229C29.2166 41.1227 29.1644 41.1227 29.0729 41.3013C28.7115 42.0068 27.8797 42.2463 27.1742 41.8805C27.1132 41.85 27.0653 41.776 26.9826 41.7934C26.8563 42.7602 26.3468 43.2871 25.5585 43.2653C24.7703 43.2435 24.2608 42.6992 24.1998 41.7847C23.6642 42.1897 23.1024 42.2637 22.484 41.924C22.4927 42.8255 22.0965 43.396 21.1994 43.5048C20.6115 43.5789 20.0627 43.2131 19.8276 42.66C19.5706 42.046 19.7535 41.4798 20.3894 40.9268C19.8711 40.6568 19.5358 40.2605 19.5315 39.6465C19.5271 38.6144 20.5548 37.9394 21.4824 38.3923C21.735 38.5142 21.7742 38.4576 21.8047 38.2137C21.8395 37.9132 22.005 37.6694 22.2315 37.469C22.3142 37.395 22.3795 37.3427 22.2619 37.2339C21.7219 36.7374 21.7045 35.836 22.2358 35.2916C22.7627 34.7516 23.5161 34.7385 24.1868 35.2611C24.1998 35.2698 24.2173 35.2742 24.2695 35.2873C24.1258 34.5905 24.3174 34.0418 24.914 33.6934C25.5281 33.3363 26.1073 33.4844 26.6865 33.9852C26.6168 33.3668 26.7387 32.8616 27.209 32.5089C27.6794 32.1561 28.1889 32.1605 28.7332 32.3913C28.7898 31.934 28.9292 31.529 29.3124 31.259C29.5694 31.0761 29.8568 30.9673 30.1834 30.9803C30.9106 31.0065 31.3505 31.455 31.5421 32.3826C32.0473 32.1126 32.5481 32.0995 33.0489 32.3869C33.2013 32.474 33.1708 32.3085 33.1839 32.2389C33.3885 31.2547 34.4947 30.8061 35.3177 31.3766C36.1147 31.9253 36.106 33.1098 35.2916 33.6498C35.1392 33.7544 35.1174 33.7979 35.2611 33.946Z" fill="#E1A800"/>
<path d="M14.6279 42.2637C14.6105 42.2463 14.5931 42.2289 14.5713 42.2115L14.5756 42.2071C14.5931 42.2245 14.6148 42.2419 14.6279 42.2637Z" fill="#F08600"/>
<path d="M24.2782 35.2873C24.1345 34.5905 24.3261 34.0418 24.9227 33.6934C25.5368 33.3363 26.116 33.4844 26.6952 33.9852C26.6255 33.3668 26.7474 32.8616 27.2177 32.5089C27.6881 32.1561 28.1976 32.1605 28.7419 32.3913C28.7985 31.934 28.9379 31.529 29.3211 31.259C29.5781 31.0761 29.8655 30.9673 30.1921 30.9803C30.9194 31.0065 31.3592 31.455 31.5508 32.3826C32.056 32.1126 32.5568 32.0995 33.0576 32.3869C33.21 32.474 33.1795 32.3085 33.1926 32.2389C33.3973 31.2547 34.5034 30.8061 35.3265 31.3766C36.1234 31.9253 36.1147 33.1098 35.3003 33.6498C35.1392 33.7587 35.1174 33.8023 35.2611 33.9503C35.7794 34.486 35.7706 35.3047 35.2524 35.849C35.2089 35.8969 35.1653 35.9405 35.1218 35.9884C35.7053 36.5284 35.8708 37.0553 35.6444 37.6476C35.37 38.3705 34.5861 38.7145 33.8458 38.4402C33.7456 38.401 33.6455 38.2965 33.6237 38.5316C33.5105 39.6377 32.5655 40.1603 31.5595 39.6813C31.529 39.6682 31.4942 39.6552 31.4463 39.6377C31.4376 39.8685 31.5073 40.0776 31.4637 40.2997C31.2721 41.2795 30.2226 41.7542 29.3734 41.2273C29.2166 41.1271 29.1644 41.1271 29.0729 41.3056C28.7115 42.0111 27.8797 42.2506 27.1742 41.8848C27.1132 41.8544 27.0653 41.7803 26.9826 41.7977C26.8563 42.7645 26.3468 43.2915 25.5585 43.2697C24.7703 43.2479 24.2608 42.7035 24.1998 41.789C23.6642 42.194 23.1024 42.2681 22.484 41.9284C22.4927 42.8298 22.0965 43.4003 21.1994 43.5092C20.6115 43.5832 20.0627 43.2174 19.8276 42.6644C19.5706 42.0503 19.7535 41.4842 20.3894 40.9311C19.8711 40.6611 19.5358 40.2648 19.5315 39.6508C19.5271 38.6187 20.5548 37.9437 21.4824 38.3966C21.735 38.5185 21.7742 38.4619 21.8047 38.2181C21.8395 37.9176 22.005 37.6737 22.2315 37.4734C22.3142 37.3994 22.3795 37.3471 22.2619 37.2382C21.7219 36.7418 21.7045 35.8403 22.2358 35.296C22.7627 34.756 23.5161 34.7429 24.1868 35.2655C24.2085 35.2698 24.2303 35.2742 24.2782 35.2873ZM26.46 36.4544C26.4556 36.315 26.4556 36.1756 26.4556 35.9927C26.3119 36.0711 26.1987 36.1277 26.0637 36.2018C26.2161 36.2976 26.3381 36.376 26.46 36.4544ZM32.204 32.5611C31.8426 32.5611 31.5116 32.805 31.5029 33.075C31.4942 33.2797 31.6771 33.4321 31.9297 33.4321C32.2694 33.4277 32.6221 33.1577 32.6352 32.9052C32.6395 32.6874 32.4827 32.5611 32.204 32.5611ZM33.9416 34.7603C34.1376 34.7473 34.3379 34.6602 34.4903 34.4729C34.5774 34.364 34.634 34.2377 34.5644 34.0984C34.499 33.9634 34.3858 33.8981 34.2421 33.885C34.0113 33.8676 33.8153 33.946 33.6411 34.0897C33.5018 34.2073 33.419 34.3684 33.4931 34.5469C33.5627 34.7211 33.7282 34.7603 33.9416 34.7603ZM25.1144 37.334C25.3495 37.3166 25.5585 37.2339 25.7066 37.0466C25.7981 36.9377 25.8373 36.8027 25.7806 36.6634C25.7197 36.524 25.589 36.4718 25.4497 36.4587C25.2189 36.4413 25.0185 36.5284 24.8487 36.6765C24.7181 36.7897 24.6353 36.9334 24.7137 37.1119C24.7877 37.2818 24.9315 37.3427 25.1144 37.334ZM31.8644 36.1103C32.1344 36.0668 32.3956 35.9927 32.5306 35.714C32.6308 35.5006 32.5437 35.3134 32.3173 35.2524C32.0255 35.1697 31.7816 35.2742 31.5813 35.4789C31.4681 35.5921 31.394 35.7358 31.4768 35.8969C31.5508 36.0494 31.7032 36.0885 31.8644 36.1103ZM27.9885 32.6134C27.675 32.6134 27.4529 32.7179 27.3092 32.9574C27.1785 33.1752 27.2613 33.3755 27.5052 33.4452C27.7752 33.5235 28.006 33.4321 28.2063 33.2535C28.3369 33.1403 28.4284 32.9966 28.3544 32.8181C28.2803 32.6526 28.1323 32.596 27.9885 32.6134ZM29.7174 39.9426C30.0571 39.9513 30.436 39.6595 30.4403 39.3895C30.4403 39.1979 30.2618 39.0542 30.0179 39.0542C29.6826 39.0542 29.3255 39.3242 29.3124 39.5855C29.2994 39.7771 29.4866 39.9382 29.7174 39.9426ZM29.6739 37.4255C29.9265 37.3863 30.1616 37.321 30.3053 37.0902C30.4621 36.8332 30.3706 36.6198 30.0789 36.5632C29.8045 36.511 29.5737 36.6068 29.3865 36.7984C29.2819 36.9073 29.2079 37.0423 29.2732 37.1947C29.3516 37.3645 29.5127 37.4037 29.6739 37.4255ZM22.7192 38.4184C22.9848 38.3879 23.2156 38.2747 23.355 38.0265C23.4987 37.7782 23.3506 37.5169 23.0545 37.5082C22.7845 37.4995 22.5624 37.6171 22.4056 37.8348C22.3273 37.9437 22.2576 38.0656 22.3403 38.2094C22.4274 38.3531 22.5581 38.401 22.7192 38.4184ZM23.0981 35.2568C22.7671 35.2524 22.4056 35.5485 22.3969 35.8316C22.3926 36.0363 22.5406 36.1756 22.7671 36.1756C23.1024 36.1756 23.4856 35.8665 23.49 35.5877C23.4944 35.4048 23.3245 35.2611 23.0981 35.2568ZM30.4621 31.7294C30.4664 31.5508 30.3968 31.4463 30.2531 31.3897C29.9569 31.2808 29.5432 31.4376 29.4039 31.7163C29.3298 31.8644 29.3168 32.0211 29.4605 32.1387C29.6565 32.2955 29.8742 32.2476 30.0789 32.1605C30.2835 32.0734 30.4403 31.9427 30.4621 31.7294ZM25.1361 41.8152C25.4671 41.8195 25.8634 41.4929 25.846 41.2185C25.8329 40.9747 25.65 40.905 25.4453 40.9006C25.11 40.8963 24.7573 41.1968 24.7529 41.4798C24.7529 41.6802 24.9053 41.8152 25.1361 41.8152ZM25.515 33.8806C25.1492 33.8763 24.8139 34.1419 24.8182 34.4294C24.8226 34.6297 24.9794 34.7473 25.2406 34.7516C25.589 34.756 25.92 34.4947 25.92 34.216C25.92 34.0069 25.7719 33.885 25.515 33.8806ZM32.1561 37.4908C31.8818 37.4908 31.6597 37.591 31.516 37.8348C31.3897 38.0526 31.4681 38.2486 31.7076 38.3269C31.9689 38.414 32.191 38.3139 32.3913 38.1571C32.5306 38.0482 32.6308 37.8958 32.5568 37.7042C32.4871 37.5213 32.326 37.4865 32.1561 37.4908ZM24.975 39.886C25.3408 39.8903 25.7023 39.5942 25.6979 39.3024C25.6979 39.1065 25.5455 38.9758 25.3103 38.9758C24.9576 38.9758 24.5918 39.2806 24.6048 39.5681C24.6179 39.7989 24.7921 39.8555 24.975 39.886ZM22.8063 40.6742C23.1416 40.6742 23.4987 40.3781 23.5031 40.1037C23.5074 39.9077 23.3506 39.7684 23.1198 39.7684C22.7845 39.764 22.4056 40.0776 22.4056 40.3606C22.41 40.5523 22.5624 40.6742 22.8063 40.6742ZM20.446 39.5289C20.8248 39.5289 21.1515 39.2676 21.1515 38.9715C21.1515 38.7189 20.9947 38.6448 20.7769 38.6448C20.4242 38.6405 20.0453 38.941 20.0627 39.224C20.0802 39.4548 20.2369 39.5463 20.446 39.5289ZM27.2482 38.6013C27.6184 38.6056 27.9537 38.34 27.945 38.0526C27.9406 37.8566 27.7665 37.7216 27.5226 37.726C27.1873 37.7303 26.8389 38.009 26.8389 38.2703C26.8345 38.4794 26.9826 38.5969 27.2482 38.6013ZM20.9598 41.1576C20.5984 41.1619 20.2674 41.4319 20.2718 41.7237C20.2761 41.9719 20.4373 42.046 20.655 42.046C21.0034 42.046 21.3823 41.7368 21.3605 41.4624C21.3431 41.2142 21.1732 41.1532 20.9598 41.1576ZM28.1671 40.021C28.1845 39.8685 28.0974 39.7771 27.9798 39.7205C27.6924 39.5811 27.1916 39.7902 27.0871 40.0906C27.0436 40.2213 27.0479 40.3476 27.1568 40.439C27.344 40.6002 27.5574 40.574 27.7708 40.4869C27.9755 40.3955 28.1366 40.2605 28.1671 40.021ZM29.7261 34.8169C30.0789 34.8169 30.4055 34.5644 30.4098 34.2856C30.4142 34.0723 30.24 33.9329 29.9787 33.9416C29.6477 33.9503 29.295 34.2377 29.3037 34.4947C29.3124 34.6994 29.4648 34.8169 29.7261 34.8169ZM33.9721 37.0118C34.3466 37.0118 34.6819 36.7592 34.6776 36.4761C34.6732 36.2802 34.499 36.1452 34.2552 36.1452C33.9111 36.1495 33.5758 36.4152 33.5714 36.6808C33.5714 36.9029 33.7021 37.0118 33.9721 37.0118ZM27.4834 36.0276C27.8318 36.0232 28.154 35.775 28.1584 35.5094C28.1627 35.3047 27.9711 35.1523 27.7229 35.161C27.3789 35.174 27.0436 35.4571 27.0523 35.7227C27.0566 35.9361 27.196 36.0319 27.4834 36.0276ZM34.2029 32.3608C34.4163 32.3739 34.6035 32.2694 34.7516 32.0952C34.9563 31.8556 34.8692 31.5856 34.56 31.5203C34.3161 31.4681 34.1115 31.5508 33.9286 31.7032C33.7892 31.8208 33.689 31.9689 33.7674 32.1605C33.8371 32.3347 34.0026 32.3695 34.2029 32.3608ZM29.5084 38.8103C29.2863 38.7102 29.1513 38.5839 28.9771 38.4314C29.0163 38.7755 28.9858 39.0629 28.8987 39.346C29.0642 39.1456 29.2384 38.9671 29.5084 38.8103ZM27.405 34.8431C27.2482 34.7255 27.1089 34.621 26.9129 34.4729C27 34.6994 26.9565 34.8779 26.9782 35.0695C27.135 34.9868 27.2613 34.9215 27.405 34.8431ZM28.2673 37.4995C28.4153 37.6127 28.546 37.7129 28.681 37.8174C28.681 37.6302 28.681 37.4647 28.681 37.2818C28.5329 37.3558 28.411 37.4211 28.2673 37.4995ZM24.631 36.3455C24.7616 36.2802 24.8792 36.2192 25.0142 36.1495C24.8487 36.0276 24.7094 35.9274 24.5569 35.8142C24.5831 36.0014 24.6048 36.1582 24.631 36.3455ZM31.4681 34.6732C31.4681 34.8039 31.4681 34.9215 31.4681 35.0652C31.6118 35.0042 31.7337 34.9476 31.8861 34.8823C31.725 34.8039 31.5987 34.7385 31.4681 34.6732ZM24.4785 38.954C24.631 38.8539 24.7355 38.7842 24.8618 38.7015C24.7442 38.6231 24.6484 38.5665 24.5395 38.4968C24.5177 38.6492 24.5047 38.7711 24.4785 38.954ZM27.2134 37.4037C27.061 37.3384 26.9869 37.2165 26.8476 37.1903C26.8476 37.5823 26.8476 37.5823 27.2134 37.4037ZM29.2166 36.0406C29.2123 36.18 29.1861 36.2976 29.2384 36.4282C29.3603 36.3586 29.4561 36.3019 29.5694 36.2366C29.4387 36.1626 29.3385 36.106 29.2166 36.0406ZM30.6058 33.6673C30.7408 33.7369 30.8323 33.7805 30.9498 33.8414C30.9368 33.7152 30.9281 33.6324 30.915 33.5192C30.8148 33.5671 30.7365 33.6019 30.6058 33.6673ZM30.8453 36.4065C30.8845 36.3019 30.915 36.1887 30.8453 36.1582C30.7582 36.1147 30.6755 36.1974 30.5971 36.2715C30.6798 36.315 30.7495 36.3542 30.8453 36.4065ZM21.8569 40.9616C21.8569 40.8527 21.9005 40.7656 21.8352 40.6829C21.7524 40.7047 21.661 40.7482 21.6566 40.8266C21.6479 40.905 21.7524 40.9094 21.8569 40.9616ZM28.8465 39.4026C28.7985 39.481 28.7071 39.5158 28.7681 39.6726C28.816 39.5681 28.8726 39.5158 28.8465 39.4026ZM26.7082 34.0026L26.6995 34.02H26.7126L26.7082 34.0026Z" fill="#291F1D"/>
<path d="M37.5779 38.1527C37.5605 38.1702 37.5431 38.1876 37.5213 38.205C37.5387 38.1876 37.5561 38.1702 37.5779 38.1527Z" fill="#F67900"/>
<path d="M37.4081 38.3792C37.395 38.3966 37.3776 38.414 37.3645 38.4314C37.3819 38.4097 37.395 38.3923 37.4081 38.3792Z" fill="#F08600"/>
<path d="M32.204 32.5611C32.4827 32.5611 32.6395 32.6874 32.6308 32.9008C32.6221 33.1577 32.265 33.4234 31.9253 33.4277C31.6727 33.4321 31.4898 33.2797 31.4985 33.0706C31.5116 32.805 31.8469 32.5611 32.204 32.5611Z" fill="#868484"/>
<path d="M33.9416 34.7603C33.7282 34.7603 33.5627 34.7211 33.4931 34.5469C33.419 34.364 33.5018 34.2073 33.6411 34.0897C33.811 33.946 34.0113 33.8676 34.2421 33.885C34.3902 33.8981 34.5034 33.9634 34.5644 34.0984C34.634 34.2421 34.5774 34.364 34.4903 34.4729C34.3379 34.6602 34.1376 34.7473 33.9416 34.7603Z" fill="#868484"/>
<path d="M25.1144 37.334C24.9315 37.3427 24.7877 37.2818 24.7137 37.1119C24.6353 36.9334 24.7224 36.7897 24.8487 36.6765C25.0185 36.5284 25.2189 36.4456 25.4497 36.4587C25.5934 36.4674 25.7197 36.524 25.7806 36.6634C25.8416 36.8027 25.7981 36.9334 25.7066 37.0466C25.5542 37.2339 25.3495 37.3166 25.1144 37.334Z" fill="#868484"/>
<path d="M31.8644 36.1103C31.7032 36.0885 31.5508 36.0494 31.4724 35.8969C31.394 35.7358 31.4637 35.5921 31.5769 35.4789C31.7816 35.2742 32.0211 35.1697 32.3129 35.2524C32.5394 35.3177 32.6265 35.505 32.5263 35.714C32.3956 35.9927 32.1344 36.0668 31.8644 36.1103Z" fill="#868484"/>
<path d="M27.9885 32.6134C28.1323 32.596 28.2847 32.6526 28.3544 32.8224C28.4284 33.001 28.3369 33.1403 28.2063 33.2579C28.006 33.4365 27.7708 33.5279 27.5052 33.4495C27.2613 33.3755 27.1785 33.1795 27.3092 32.9618C27.4485 32.7179 27.6706 32.6134 27.9885 32.6134Z" fill="#868484"/>
<path d="M29.7174 39.9426C29.4866 39.9382 29.2994 39.7771 29.3081 39.5855C29.3211 39.3198 29.6782 39.0542 30.0135 39.0542C30.2574 39.0542 30.4403 39.1979 30.436 39.3895C30.4403 39.6595 30.0571 39.9513 29.7174 39.9426Z" fill="#868484"/>
<path d="M29.6739 37.4255C29.5127 37.4081 29.3473 37.3689 29.2732 37.1947C29.2079 37.0379 29.2819 36.9029 29.3865 36.7984C29.5737 36.6068 29.8045 36.511 30.0789 36.5632C30.3706 36.6198 30.4621 36.8332 30.3053 37.0902C30.166 37.321 29.9308 37.3819 29.6739 37.4255Z" fill="#868484"/>
<path d="M22.7192 38.4184C22.5581 38.401 22.4231 38.3531 22.3447 38.2137C22.2619 38.07 22.3316 37.9481 22.41 37.8392C22.5668 37.6171 22.7889 37.5039 23.0589 37.5126C23.3506 37.5213 23.5031 37.7826 23.3594 38.0308C23.2156 38.2703 22.9848 38.3879 22.7192 38.4184Z" fill="#868484"/>
<path d="M23.0981 35.2568C23.3202 35.2568 23.4944 35.4048 23.4944 35.5877C23.49 35.8621 23.1068 36.1756 22.7715 36.1756C22.545 36.1756 22.3926 36.0363 22.4013 35.8316C22.41 35.5529 22.7715 35.2568 23.0981 35.2568Z" fill="#868484"/>
<path d="M30.4621 31.7294C30.4403 31.9427 30.2836 32.0734 30.0832 32.1605C29.8742 32.2476 29.6608 32.2955 29.4648 32.1387C29.3211 32.0211 29.3298 31.8687 29.4082 31.7163C29.5476 31.4376 29.9613 31.2808 30.2574 31.3897C30.3968 31.4419 30.4664 31.5508 30.4621 31.7294Z" fill="#868484"/>
<path d="M25.1361 41.8152C24.9053 41.8108 24.7529 41.6758 24.7529 41.4798C24.7573 41.1968 25.11 40.8963 25.4453 40.9006C25.65 40.905 25.8329 40.9747 25.846 41.2185C25.8634 41.4929 25.4671 41.8195 25.1361 41.8152Z" fill="#868484"/>
<path d="M25.515 33.8806C25.7763 33.885 25.92 34.0026 25.92 34.216C25.92 34.4947 25.5847 34.756 25.2406 34.7516C24.9794 34.7516 24.8226 34.6297 24.8182 34.4294C24.8095 34.1463 25.1492 33.8806 25.515 33.8806Z" fill="#868484"/>
<path d="M32.1561 37.4908C32.3303 37.4908 32.4915 37.5213 32.5611 37.7042C32.6308 37.8958 32.535 38.0482 32.3956 38.1571C32.1997 38.3139 31.9732 38.414 31.7119 38.3269C31.4724 38.2486 31.394 38.0526 31.5203 37.8348C31.6553 37.591 31.8818 37.4908 32.1561 37.4908Z" fill="#868484"/>
<path d="M24.975 39.886C24.7965 39.8598 24.6223 39.8032 24.6092 39.5724C24.5918 39.285 24.9619 38.9802 25.3147 38.9802C25.5498 38.9802 25.7023 39.1065 25.7023 39.3068C25.6979 39.5942 25.3365 39.8903 24.975 39.886Z" fill="#868484"/>
<path d="M22.8063 40.6742C22.5668 40.6742 22.41 40.5523 22.41 40.3563C22.41 40.0732 22.7889 39.7597 23.1242 39.764C23.355 39.7684 23.5074 39.9034 23.5074 40.0994C23.4987 40.3781 23.1373 40.6742 22.8063 40.6742Z" fill="#868484"/>
<path d="M20.446 39.5289C20.2369 39.5419 20.0802 39.4548 20.0627 39.2197C20.0453 38.9366 20.4285 38.6361 20.7769 38.6405C20.9947 38.6448 21.1515 38.7189 21.1515 38.9671C21.1515 39.2676 20.8292 39.5289 20.446 39.5289Z" fill="#868484"/>
<path d="M27.2482 38.6013C26.9826 38.6013 26.8389 38.4837 26.8389 38.2747C26.8389 38.0134 27.1873 37.7347 27.5226 37.7303C27.7665 37.726 27.9406 37.861 27.945 38.0569C27.9494 38.34 27.6184 38.6013 27.2482 38.6013Z" fill="#868484"/>
<path d="M20.9598 41.1576C21.1732 41.1532 21.3431 41.2185 21.3648 41.4624C21.3866 41.7411 21.0034 42.0503 20.6594 42.046C20.4416 42.046 20.2805 41.9719 20.2761 41.7237C20.2631 41.4319 20.5984 41.1576 20.9598 41.1576Z" fill="#868484"/>
<path d="M28.1671 40.021C28.1366 40.2648 27.9798 40.3998 27.7665 40.4869C27.5531 40.574 27.344 40.6002 27.1524 40.439C27.0435 40.3476 27.0348 40.2169 27.0827 40.0906C27.1873 39.7902 27.6924 39.5811 27.9755 39.7205C28.0974 39.7771 28.1802 39.8685 28.1671 40.021Z" fill="#868484"/>
<path d="M29.7261 34.8169C29.4648 34.8169 29.3081 34.6994 29.3037 34.4947C29.2994 34.2377 29.6477 33.9503 29.9787 33.9416C30.24 33.9373 30.4098 34.0723 30.4098 34.2856C30.4098 34.5644 30.0789 34.8213 29.7261 34.8169Z" fill="#868484"/>
<path d="M33.9721 37.0118C33.6977 37.0118 33.5671 36.9029 33.5714 36.6852C33.5758 36.4195 33.9155 36.1495 34.2552 36.1495C34.499 36.1495 34.6732 36.2845 34.6776 36.4805C34.6863 36.7592 34.351 37.0118 33.9721 37.0118Z" fill="#868484"/>
<path d="M27.4834 36.0276C27.196 36.0319 27.0566 35.9318 27.0523 35.7227C27.0436 35.4571 27.3789 35.174 27.7229 35.161C27.9711 35.1523 28.1627 35.3047 28.1584 35.5094C28.1497 35.7794 27.8274 36.0232 27.4834 36.0276Z" fill="#868484"/>
<path d="M34.2029 32.3608C34.0026 32.3695 33.8415 32.3347 33.7674 32.1561C33.689 31.9689 33.7892 31.8165 33.9286 31.6989C34.1115 31.5465 34.3205 31.4637 34.56 31.516C34.8692 31.5813 34.9563 31.8513 34.7516 32.0908C34.6035 32.2694 34.4163 32.3739 34.2029 32.3608Z" fill="#868484"/>
<path d="M29.5084 38.8103C29.2427 38.9671 29.0642 39.1456 28.8987 39.346C28.9902 39.0629 29.0163 38.7755 28.9771 38.4314C29.1469 38.5795 29.2863 38.7102 29.5084 38.8103Z" fill="#E1A800"/>
<path d="M27.405 34.8431C27.2613 34.9215 27.135 34.9868 26.9782 35.0695C26.9608 34.8779 27 34.7037 26.9129 34.4729C27.1132 34.621 27.2526 34.7255 27.405 34.8431Z" fill="#E1A800"/>
<path d="M28.2673 37.4995C28.411 37.4255 28.5373 37.3602 28.681 37.2818C28.681 37.4647 28.681 37.6302 28.681 37.8174C28.546 37.7129 28.4153 37.6127 28.2673 37.4995Z" fill="#E1A800"/>
<path d="M24.631 36.3455C24.6048 36.1582 24.5831 36.0014 24.5569 35.8142C24.7094 35.9274 24.8487 36.0276 25.0142 36.1495C24.8792 36.2192 24.7616 36.2802 24.631 36.3455Z" fill="#E1A800"/>
<path d="M31.4681 34.6732C31.5987 34.7385 31.725 34.8039 31.8861 34.8823C31.7337 34.9476 31.6118 35.0042 31.4681 35.0652C31.4681 34.9215 31.4681 34.8082 31.4681 34.6732Z" fill="#E1A800"/>
<path d="M24.4785 38.954C24.5047 38.7711 24.5221 38.6492 24.5395 38.4968C24.6484 38.5665 24.7398 38.6274 24.8618 38.7015C24.7355 38.7842 24.631 38.8539 24.4785 38.954Z" fill="#E1A800"/>
<path d="M26.46 36.4544C26.3381 36.376 26.2161 36.2976 26.0637 36.1974C26.1987 36.1277 26.3119 36.0668 26.4556 35.9884C26.4556 36.1756 26.4556 36.3194 26.46 36.4544Z" fill="#E1A800"/>
<path d="M27.2134 37.4037C26.8476 37.5866 26.8476 37.5866 26.8476 37.1903C26.9869 37.2165 27.061 37.3384 27.2134 37.4037Z" fill="#E1A800"/>
<path d="M29.2166 36.0406C29.3385 36.1103 29.4431 36.1626 29.5694 36.2366C29.4561 36.3019 29.356 36.3586 29.2384 36.4282C29.1818 36.2932 29.2123 36.18 29.2166 36.0406Z" fill="#E1A800"/>
<path d="M30.6058 33.6673C30.7321 33.6063 30.8148 33.5671 30.915 33.5192C30.9281 33.6281 30.9368 33.7152 30.9498 33.8414C30.8323 33.7805 30.7408 33.7326 30.6058 33.6673Z" fill="#E99400"/>
<path d="M30.8453 36.4065C30.7539 36.3542 30.6798 36.315 30.5971 36.2671C30.6755 36.1931 30.7582 36.1147 30.8453 36.1539C30.9106 36.1931 30.8845 36.3019 30.8453 36.4065Z" fill="#E99400"/>
<path d="M21.8569 40.9616C21.7524 40.9094 21.6479 40.905 21.6523 40.8266C21.661 40.7526 21.7481 40.709 21.8308 40.6829C21.9005 40.77 21.8569 40.8527 21.8569 40.9616Z" fill="#E1A800"/>
<path d="M28.8465 39.4026C28.8726 39.5158 28.8116 39.5637 28.7681 39.6726C28.7115 39.5202 28.7985 39.481 28.8465 39.4026Z" fill="#E1A800"/>
<path d="M26.7082 34.0026L26.7126 34.02H26.6995L26.7082 34.0026Z" fill="#E1A800"/>
<path d="M26.4556 36.4587L26.4731 36.4674L26.46 36.4544L26.4556 36.4587Z" fill="#E1A800"/>
</svg>
