<svg width="116" height="96" viewBox="0 0 116 96" fill="none" xmlns="http://www.w3.org/2000/svg">
<g clip-path="url(#clip0_5_69)">
<g filter="url(#filter0_d_5_69)">
<path fill-rule="evenodd" clip-rule="evenodd" d="M96 46.5C96 45.2359 95.6873 44.0449 95.135 43C93.8775 40.6211 91.378 39 88.5 39C88.7761 39 89 40.7909 89 43V53.2222C89 55.1552 90.567 56.7222 92.5 56.7222C94.433 56.7222 96 55.1552 96 53.2222V46.5ZM96 63.4444C96 61.5114 94.433 59.9444 92.5 59.9444C90.567 59.9444 89 61.5114 89 63.4444V68.5556C89 70.4886 90.567 72.0556 92.5 72.0556C94.433 72.0556 96 70.4886 96 68.5556V63.4444ZM96 78.7778C96 76.8448 94.433 75.2778 92.5 75.2778C90.567 75.2778 89 76.8448 89 78.7778V89C89 89.2761 88.7761 89.5 88.5 89.5H81.6111C79.8913 89.5 78.4612 90.7405 78.1667 92.3755C77.8722 90.7405 76.4421 89.5 74.7222 89.5H71.2778C69.5579 89.5 68.1278 90.7405 67.8333 92.3755C67.5388 90.7405 66.1087 89.5 64.3889 89.5H50.6111C48.8913 89.5 47.4612 90.7405 47.1667 92.3755C46.8722 90.7405 45.4421 89.5 43.7222 89.5H40.2778C38.5579 89.5 37.1278 90.7405 36.8333 92.3755C36.5388 90.7405 35.1087 89.5 33.3889 89.5H26.5C26.2239 89.5 26 89.2761 26 89V78.7778C26 76.8448 24.433 75.2778 22.5 75.2778C20.567 75.2778 19 76.8448 19 78.7778V89C19 93.1421 22.3579 96.5 26.5 96.5H33.3889C35.1087 96.5 36.5388 95.2595 36.8333 93.6245C37.1278 95.2595 38.5579 96.5 40.2778 96.5H43.7222C45.4421 96.5 46.8722 95.2595 47.1667 93.6245C47.4612 95.2595 48.8913 96.5 50.6111 96.5H64.3889C66.1087 96.5 67.5388 95.2595 67.8333 93.6245C68.1278 95.2595 69.5579 96.5 71.2778 96.5H74.7222C76.4421 96.5 77.8722 95.2595 78.1667 93.6245C78.4612 95.2595 79.8913 96.5 81.6111 96.5H88.5C92.6421 96.5 96 93.1421 96 89V78.7778ZM19 68.5556C19 70.4886 20.567 72.0556 22.5 72.0556C24.433 72.0556 26 70.4886 26 68.5556V63.4444C26 61.5114 24.433 59.9444 22.5 59.9444C20.567 59.9444 19 61.5114 19 63.4444V68.5556ZM19 53.2222C19 55.1552 20.567 56.7222 22.5 56.7222C24.433 56.7222 26 55.1552 26 53.2222V43C26 40.7909 26.2239 39 26.5 39C23.622 39 21.1225 40.6211 19.865 43C19.3127 44.0449 19 45.2359 19 46.5V53.2222Z" fill="#FCCD62"/>
<mask id="mask0_5_69" style="mask-type:luminance" maskUnits="userSpaceOnUse" x="30" y="39" width="55" height="54">
<path d="M84.5 39H30.5V93H84.5V39Z" fill="white"/>
</mask>
<g mask="url(#mask0_5_69)">
<path d="M47.2531 53.2969C47.6755 53.1532 48.0761 52.9442 48.5203 52.8484C49.5176 52.635 50.4669 52.7613 51.3423 53.2621C53.5806 54.5381 55.7537 55.9098 57.709 57.6082C57.8135 57.6997 57.9006 57.8303 58.0835 57.6866C60.2348 56.0013 62.6169 54.7166 65.0905 53.58C65.6784 53.31 66.2489 53.0139 66.8977 52.9094C67.9211 52.7482 68.8618 52.9573 69.7458 53.4842C69.8198 53.5277 69.8982 53.5669 69.9766 53.6105C70.1552 53.8152 70.3511 53.9502 70.6342 53.8195C70.8737 53.8282 71.1176 53.7977 71.3571 53.8587C71.3745 53.9632 71.4006 54.0677 71.4137 54.1723C71.6489 55.9098 72.4632 57.3208 73.8045 58.4356C74.8105 59.2718 75.9732 59.8248 77.2144 60.2081C77.2318 60.2211 77.2448 60.2385 77.2623 60.2516L77.2579 60.2473C77.3624 60.6348 77.5845 60.9702 77.7544 61.3229C78.6471 63.1998 79.3439 65.1421 79.7358 67.1889C80.5676 71.5394 79.91 75.6373 77.5932 79.4347C76.3521 81.4727 74.841 83.2756 72.8682 84.6518C71.1394 85.8581 69.2319 86.5984 67.1242 86.8292C65.121 87.0469 63.1787 86.8031 61.2756 86.1368C60.6703 85.9234 60.0215 85.8406 59.4161 85.6185C58.9415 85.4444 58.4711 85.2615 58.0226 85.035C57.8919 84.9697 57.7874 84.9653 57.6524 85.035C56.3024 85.7492 54.874 86.2369 53.3585 86.4198C52.5224 86.52 51.7168 86.7639 50.8763 86.8423C49.535 86.9685 48.2068 86.9206 46.8916 86.6463C43.4818 85.9365 40.8906 84.016 38.8918 81.2289C37.4939 79.2823 36.4705 77.1571 35.9 74.8229C35.4515 72.9852 35.3339 71.1256 35.5298 69.24C35.8042 66.5966 36.6577 64.1405 37.8727 61.7976C38.9832 59.6463 40.3811 57.691 41.9097 55.8271C42.2842 55.3698 42.6239 54.8777 43.0637 54.4771C44.0653 53.5626 45.2498 53.2577 46.5781 53.4406C46.8263 53.4929 47.0745 53.5756 47.2531 53.2969ZM36.5445 71.1213C36.5097 72.1055 36.6577 73.2247 36.906 74.3308C37.3502 76.3123 38.1732 78.1326 39.2663 79.8397C40.6642 82.0215 42.4497 83.7852 44.8492 84.8521C46.9439 85.784 49.13 86.0018 51.3858 85.6708C51.8344 85.6055 52.2611 85.4356 52.7053 85.3921C53.2366 85.3442 53.7592 85.2702 54.2731 85.1439C57.77 84.2816 60.3742 82.2697 62.0116 79.0471C63.0437 77.0134 63.5053 74.8229 63.6447 72.5671C63.71 71.4915 63.6665 70.4115 63.5097 69.3402C63.1831 67.154 62.4123 65.1421 61.2452 63.2739C59.7732 60.9135 57.8266 59.0018 55.6318 57.3208C54.2121 56.2321 52.6748 55.3132 51.1463 54.3944C50.689 54.12 50.21 53.9023 49.6656 53.8631C48.8034 53.8021 48.0369 54.0286 47.3794 54.5903C47.2531 54.6992 47.1311 54.7253 46.97 54.66C46.6477 54.5337 46.3081 54.4597 45.964 54.4597C44.9581 54.4553 44.1263 54.8342 43.4861 55.6181C43.1682 56.01 42.8503 56.4019 42.5324 56.7895C40.7469 58.98 39.1835 61.3098 38.0731 63.9184C37.1106 66.1698 36.5184 68.504 36.5445 71.1213ZM76.1997 78.2066C76.2171 78.211 76.2389 78.2197 76.2563 78.224C76.3826 77.9932 76.5176 77.7711 76.6395 77.536C77.1447 76.5431 77.5453 75.511 77.8327 74.431C78.1463 73.2595 78.2856 72.0663 78.3205 70.86C78.351 69.9542 78.2465 69.0484 78.1115 68.1513C77.946 67.0626 77.6716 65.9956 77.3276 64.9505C76.8398 63.4611 76.1779 62.0458 75.4463 60.6653C75.2808 60.3518 75.0979 60.0513 74.9194 59.7421C74.9324 59.9729 75.0065 60.1776 75.0674 60.3866C75.6292 62.3071 76.056 64.2537 76.3565 66.2308C76.4827 67.0539 76.5873 67.8813 76.6874 68.7131C76.7919 69.5753 76.8921 70.4463 76.9269 71.3085C76.9748 72.4277 76.9618 73.5469 76.8485 74.6661C76.7571 75.5763 76.6221 76.4777 76.4087 77.3705C76.3434 77.6492 76.2694 77.9279 76.1997 78.2066ZM60.47 58.2615C60.4352 58.1482 60.3785 58.1918 60.3306 58.231C60.0171 58.4574 59.7035 58.6839 59.39 58.906C59.194 59.0453 59.3334 59.1281 59.4292 59.2282C59.5294 59.3327 59.6034 59.3806 59.7166 59.2239C59.9344 58.9277 60.1739 58.649 60.4047 58.3616C60.4308 58.3311 60.4482 58.2919 60.47 58.2615ZM60.5789 58.1047C60.5832 58.1003 60.5919 58.096 60.5963 58.0916C60.5919 58.0873 60.5876 58.0829 60.5832 58.0786C60.5745 58.0873 60.5702 58.0916 60.5615 58.1003C60.5658 58.1003 60.5745 58.1047 60.5789 58.1047Z" fill="#AADE50"/>
<path d="M48.3984 51.4331C49.6134 48.6547 51.0244 46.0374 52.9535 43.725C50.6237 45.6934 48.9297 48.1452 47.5579 50.8495C47.3663 50.5708 47.1268 49.8566 47.0223 49.2905C46.5911 46.9389 47.3315 44.9487 48.8861 43.2068C50.0532 41.896 51.4424 40.9292 53.1713 40.4981C53.855 40.3282 54.5474 40.276 55.2529 40.3108C55.4227 40.3195 55.5229 40.3892 55.5926 40.546C56.2197 41.9656 56.3329 43.4332 56.0063 44.9356C55.6056 46.7865 54.7782 48.4195 53.376 49.7129C51.9868 51.0019 50.3189 51.5158 48.3984 51.4331Z" fill="#3EA20F"/>
<path d="M77.2187 60.2037C75.9732 59.8205 74.8148 59.2674 73.8089 58.4313C72.4676 57.3208 71.6532 55.9055 71.4181 54.1679C71.405 54.0634 71.3789 53.9589 71.3615 53.8544C71.3615 53.5887 71.3658 53.3231 71.3571 53.0574C71.3527 52.8789 71.3832 52.8266 71.5748 52.9094C73.3124 53.6584 75.0065 54.4945 76.6047 55.5135C77.3973 56.0187 78.1594 56.5587 78.8779 57.164C78.9258 57.2032 78.9606 57.286 79.1218 57.2337C77.0837 54.9605 74.6276 53.3144 71.9014 51.96C72.4371 51.69 72.964 51.5289 73.5084 51.4244C75.5421 51.0324 77.3668 51.5202 79.0042 52.7569C80.7592 54.0852 82.0177 55.7531 82.4489 57.9653C82.549 58.4879 82.5882 59.0148 82.549 59.5505C82.536 59.7334 82.4706 59.8335 82.3052 59.9076C81.1816 60.4127 80.0058 60.5826 78.7864 60.4868C78.2726 60.4476 77.7805 60.3082 77.271 60.2429L77.2753 60.2473C77.2492 60.2298 77.2318 60.2168 77.2187 60.2037Z" fill="#3EA20F"/>
<path d="M47.2531 53.2969C47.0745 53.5756 46.8306 53.4973 46.5824 53.4319C46.4735 52.6611 46.3124 51.9034 45.9815 51.1935C45.7202 50.6318 45.3761 50.1353 44.81 49.8348C44.7229 49.7913 44.7011 49.7434 44.7229 49.6476C44.7752 49.4124 44.8448 49.186 44.9929 48.9944C45.2585 48.646 45.6897 48.6677 45.9031 49.0423C46.6652 50.3618 47.0789 51.7902 47.2531 53.2969Z" fill="#6B3635"/>
<path d="M59.1766 84.5734C59.4597 84.6126 59.7471 84.6605 60.0302 84.6953C60.936 84.8129 61.82 84.8042 62.6997 84.7389C63.784 84.6561 64.8292 84.421 65.8526 84.0987C66.6452 83.8505 67.416 83.5108 68.1824 83.1581C68.914 82.8184 69.65 82.4787 70.3685 82.1085C72.0974 81.2202 73.7566 80.1489 75.3418 78.8816C75.5116 78.7466 75.6771 78.5898 75.8861 78.5158C75.664 78.8468 75.4463 79.1865 75.2155 79.5044C74.1921 80.9023 73.1121 82.2 71.9058 83.2582C71.0566 84.0029 70.1639 84.6518 69.2102 85.1395C68.4263 85.5402 67.6206 85.8973 66.7671 86.0584C65.6305 86.2718 64.4721 86.3327 63.2702 86.1368C62.164 85.9539 61.0579 85.5924 59.9561 85.0698C59.6948 84.9479 59.4379 84.7955 59.181 84.6605C59.181 84.6344 59.1766 84.6039 59.1766 84.5734Z" fill="#99CC66"/>
<path d="M70.6342 53.8195C70.3511 53.9502 70.1508 53.8108 69.9766 53.6105C70.2945 52.6437 70.5166 51.6682 70.3598 50.6405C70.3032 50.2747 70.1856 49.935 69.9592 49.6432C69.8808 49.5431 69.8895 49.4821 69.9679 49.395C70.1377 49.199 70.3076 49.0074 70.5558 48.9116C70.9042 48.781 71.2352 48.9726 71.27 49.334C71.405 50.8147 71.1437 52.2431 70.6952 53.6453C70.6777 53.7019 70.656 53.7585 70.6342 53.8195Z" fill="#6A3635"/>
<path d="M36.5445 71.1213C36.514 68.4997 37.1063 66.1698 38.0644 63.9184C39.1748 61.3055 40.7382 58.98 42.5237 56.7895C42.8416 56.3976 43.1595 56.0056 43.4774 55.6181C44.1176 54.8342 44.9494 54.4553 45.9553 54.4597C46.3037 54.4597 46.639 54.5381 46.9613 54.66C47.1224 54.721 47.24 54.6992 47.3706 54.5903C48.0282 54.0285 48.799 53.8021 49.6569 53.8631C50.2013 53.9023 50.6803 54.12 51.1376 54.3944C52.6661 55.3176 54.2034 56.2321 55.6231 57.3208C57.8179 59.0018 59.7645 60.9179 61.2365 63.2739C62.4035 65.1421 63.1744 67.154 63.501 69.3402C63.6621 70.4158 63.7056 71.4915 63.636 72.5671C63.4966 74.8229 63.035 77.0134 62.0029 79.0471C60.3655 82.2697 57.7613 84.2816 54.2644 85.1439C53.7505 85.2702 53.2279 85.3442 52.6966 85.3921C52.2524 85.4356 51.8256 85.6055 51.3771 85.6708C49.1213 86.0018 46.9352 85.784 44.8405 84.8521C42.441 83.7852 40.6555 82.0215 39.2576 79.8397C38.1689 78.1369 37.3458 76.3123 36.8973 74.3308C36.6577 73.2247 36.5097 72.1055 36.5445 71.1213ZM47.4011 64.8111C47.4098 63.8574 47.3402 62.9081 47.0789 61.9848C46.9656 61.5885 46.8045 61.214 46.5345 60.9048C46.0903 60.391 45.5155 60.3474 44.884 60.4519C44 60.5956 43.2466 60.9745 42.589 61.5711C41.6397 62.4334 41.0474 63.5221 40.6468 64.7153C39.9848 66.6706 39.7235 68.6826 39.8411 70.7511C39.8977 71.7266 40.0676 72.676 40.3027 73.6123C40.7034 75.2279 41.2869 76.7826 42.1056 78.2371C42.711 79.3084 43.4077 80.3144 44.4268 81.0547C45.1758 81.599 45.9945 81.9431 46.9308 81.9256C47.9368 81.9082 48.8382 81.5598 49.6352 80.9719C50.1577 80.5887 50.5366 80.0748 50.5845 79.3868C50.6237 78.8381 50.5236 78.3155 50.3494 77.8016C49.9574 76.6519 49.3695 75.5894 48.8513 74.4963C48.2111 73.1463 47.6406 71.7702 47.3663 70.2895C47.2313 69.5492 47.1268 68.8045 47.1877 68.0555C47.2835 66.9711 47.3968 65.8955 47.4011 64.8111ZM60.2044 72.2056C60.1913 71.7048 60.2 71.1997 60.1565 70.6989C60.0868 69.9106 60.004 69.1224 59.8429 68.3473C59.6556 67.4284 59.3595 66.5444 58.9894 65.6777C58.1576 63.7311 57.0906 61.9456 55.4445 60.5652C54.199 59.5244 52.8055 58.98 51.155 59.3415C50.4582 59.4939 49.9574 59.8684 49.8311 60.6087C49.7005 61.349 49.7876 62.085 49.9748 62.8079C50.3276 64.184 50.885 65.4818 51.499 66.7534C52.1479 68.0947 52.4397 69.5187 52.4876 70.995C52.5137 71.8485 52.505 72.7065 52.3961 73.56C52.3134 74.2045 52.296 74.8577 52.2219 75.5066C52.1131 76.4211 52.0608 77.3356 52.1827 78.2502C52.309 79.1995 52.8142 79.8702 53.7418 80.175C54.4255 80.3971 55.1266 80.4842 55.8495 80.384C56.5115 80.2926 57.1211 80.101 57.6611 79.7047C58.5539 79.0471 59.1026 78.1456 59.4727 77.1179C60.0432 75.5327 60.2218 73.8823 60.2044 72.2056Z" fill="#FD7774"/>
<path d="M76.1997 78.2066C76.2694 77.9279 76.3434 77.6492 76.4087 77.3705C76.6221 76.4821 76.7527 75.5806 76.8485 74.6661C76.9618 73.5469 76.9748 72.4234 76.9269 71.3085C76.8921 70.4419 76.7919 69.5753 76.6874 68.7131C76.5873 67.8856 76.4827 67.0582 76.3565 66.2308C76.056 64.2537 75.6292 62.3071 75.0674 60.3866C75.0065 60.1776 74.9324 59.9729 74.9194 59.7421C75.0935 60.0513 75.2808 60.3518 75.4463 60.6653C76.1823 62.0458 76.8398 63.4611 77.3276 64.9505C77.6716 65.9956 77.946 67.0626 78.1115 68.1513C78.2465 69.0484 78.3466 69.9498 78.3205 70.86C78.2813 72.0663 78.1419 73.2595 77.8327 74.431C77.5453 75.511 77.1447 76.5431 76.6395 77.536C76.5219 77.7711 76.3869 77.9932 76.2563 78.224C76.2389 78.2197 76.2171 78.211 76.1997 78.2066Z" fill="#BEF859"/>
<path d="M60.47 58.2615C60.4526 58.2919 60.4352 58.3311 60.409 58.3616C60.1782 58.649 59.9387 58.9277 59.721 59.2239C59.6077 59.3763 59.5337 59.3327 59.4335 59.2282C59.3377 59.1281 59.1984 59.041 59.3944 58.906C59.7079 58.6839 60.0215 58.4574 60.335 58.231C60.3786 58.1961 60.4308 58.1482 60.47 58.2615Z" fill="#BEF859"/>
<path d="M60.5789 58.1047C60.5745 58.1003 60.5658 58.1003 60.5615 58.096C60.5702 58.0873 60.5745 58.0829 60.5832 58.0742C60.5876 58.0785 60.5919 58.0829 60.5963 58.0873C60.5919 58.096 60.5832 58.1003 60.5789 58.1047Z" fill="#BEF859"/>
<path d="M77.2187 60.2037C77.2361 60.2168 77.2492 60.2342 77.2666 60.2473C77.2492 60.2298 77.2318 60.2168 77.2187 60.2037Z" fill="#FDFDFD"/>
<path d="M47.4011 64.8111C47.3968 65.8955 47.2835 66.9755 47.1965 68.0555C47.1355 68.8045 47.24 69.5535 47.375 70.2895C47.645 71.7702 48.2198 73.1419 48.86 74.4963C49.3782 75.5894 49.9618 76.6519 50.3581 77.8016C50.5323 78.3155 50.6324 78.8424 50.5932 79.3868C50.5453 80.0792 50.1665 80.5887 49.6439 80.9719C48.8469 81.5598 47.9455 81.9039 46.9395 81.9256C45.9989 81.9431 45.1802 81.599 44.4355 81.0547C43.4165 80.3187 42.7197 79.3084 42.1144 78.2371C41.2956 76.7826 40.7121 75.2279 40.3115 73.6123C40.0763 72.6716 39.9065 71.7223 39.8498 70.7511C39.7323 68.6826 39.9935 66.6706 40.6555 64.7153C41.0605 63.5221 41.6484 62.4334 42.5977 61.5711C43.2553 60.9745 44.0131 60.5956 44.8927 60.4519C45.5198 60.3474 46.099 60.391 46.5432 60.9048C46.8132 61.214 46.9744 61.5885 47.0876 61.9848C47.3402 62.9081 47.4055 63.8531 47.4011 64.8111ZM46.6826 78.751C46.6782 78.6682 46.6129 78.6856 46.565 78.6856C46.3168 78.6813 46.0773 78.7335 45.8377 78.7945C45.6766 78.8381 45.4937 78.8947 45.559 79.1255C45.6244 79.3606 45.8682 79.4608 46.0816 79.3606C46.3385 79.2387 46.491 79.0079 46.6608 78.7945C46.6695 78.7858 46.6739 78.7684 46.6826 78.751ZM45.411 62.3158C45.5547 62.3463 45.7071 62.2766 45.8639 62.2592C45.9031 62.2548 45.9597 62.2331 45.9727 62.2026C46.0032 62.1416 45.9423 62.1068 45.9074 62.0806C45.7071 61.9239 45.4981 61.7758 45.2629 61.6756C45.154 61.6277 45.0365 61.5842 44.945 61.6844C44.8405 61.7932 44.8187 61.9326 44.8884 62.0763C44.9885 62.2984 45.1802 62.3245 45.411 62.3158ZM45.7724 67.3065C45.4894 67.1366 45.2281 67.0756 44.9624 67.019C44.7708 66.9798 44.5966 66.9755 44.54 67.2019C44.4877 67.4023 44.6837 67.62 44.9015 67.6287C45.2237 67.6418 45.4719 67.4806 45.7724 67.3065ZM45.215 76.395C45.2629 76.395 45.2716 76.395 45.2803 76.395C45.4894 76.3732 45.9292 75.7592 45.8856 75.5545C45.8726 75.4892 45.829 75.4892 45.7855 75.5066C45.5198 75.5981 45.2455 75.6765 45.0234 75.8637C44.9232 75.9508 44.8492 76.0553 44.9058 76.186C44.9755 76.3297 45.1061 76.3863 45.215 76.395ZM43.7344 63.4263C43.5253 63.1127 43.3685 62.8253 43.0681 62.6468C42.8808 62.5335 42.7719 62.6076 42.6979 62.7861C42.6195 62.9734 42.6544 63.1432 42.8329 63.2434C43.0985 63.3871 43.386 63.4394 43.7344 63.4263ZM43.9085 77.8277C43.7431 77.8539 43.5558 77.8626 43.3773 77.9105C43.2161 77.954 42.9984 77.9845 43.0855 78.2458C43.1682 78.4984 43.3685 78.5768 43.6081 78.4766C43.7866 78.4026 43.9042 78.2589 44.0348 78.1282C44.1045 78.0585 44.2047 77.9802 44.1785 77.8887C44.1481 77.7755 44.0131 77.8582 43.9085 77.8277ZM46.3473 68.3429C46.0816 68.1948 45.8334 68.1034 45.5677 68.0381C45.424 67.9989 45.289 67.9815 45.1758 68.099C45.0713 68.2079 45.1366 68.3342 45.1758 68.4474C45.2324 68.6042 45.3587 68.6477 45.5111 68.6434C45.8116 68.6347 46.0729 68.5302 46.3473 68.3429ZM43.2335 75.0058C43.2335 74.8969 43.1552 74.9013 43.0898 74.9231C42.846 75.0014 42.6065 75.0973 42.4061 75.2584C42.2885 75.3542 42.1579 75.4631 42.306 75.6329C42.4366 75.781 42.6021 75.8768 42.7937 75.7461C43.0506 75.5676 43.116 75.2715 43.2335 75.0058ZM45.8595 64.5368C45.6374 64.3016 45.3979 64.1579 45.1453 64.0316C44.9929 63.9532 44.8274 63.8835 44.7229 64.1056C44.6271 64.3147 44.7055 64.515 44.9276 64.5977C45.2368 64.7153 45.5285 64.6282 45.8595 64.5368ZM43.8084 65.6603C43.521 65.4513 43.2902 65.2292 42.981 65.129C42.7545 65.055 42.6195 65.1508 42.6152 65.386C42.6108 65.6298 42.7676 65.7431 42.9766 65.7648C43.2379 65.791 43.5035 65.7953 43.8084 65.6603ZM43.1944 69.8671C43.3642 69.8671 43.8476 69.5753 43.9477 69.4055C43.9956 69.3271 43.9695 69.2792 43.8868 69.2879C43.6255 69.3053 43.3729 69.1877 43.1029 69.2705C42.9505 69.3184 42.785 69.3445 42.8068 69.5318C42.8242 69.7234 42.9374 69.8758 43.1944 69.8671ZM46.4866 70.1458C46.1295 70.0674 45.8073 70.0282 45.485 70.1197C45.3021 70.1719 45.2498 70.2852 45.3326 70.4637C45.4415 70.6989 45.6113 70.7598 45.8508 70.6597C46.1034 70.5595 46.2906 70.381 46.4866 70.1458ZM46.1295 73.2639C46.3473 73.2595 46.8306 72.8806 46.8873 72.6629C46.9177 72.554 46.835 72.5758 46.7784 72.5714C46.5127 72.5627 46.2558 72.5976 46.0032 72.676C45.8682 72.7195 45.7202 72.7935 45.7724 72.9677C45.8203 73.1376 45.9292 73.2682 46.1295 73.2639ZM42.2102 68.7915C41.9227 68.5781 41.6658 68.4169 41.3523 68.3777C41.226 68.3603 41.0431 68.3168 41.0213 68.5258C40.9995 68.7131 41.0082 68.9003 41.2434 68.97C41.5874 69.0702 41.8705 68.9134 42.2102 68.7915ZM42.1927 66.344C41.9227 66.0915 41.6615 65.8998 41.3566 65.7866C41.1606 65.7169 41.0344 65.8171 41.0169 66.0218C40.9995 66.2134 41.0823 66.3397 41.2652 66.405C41.5744 66.5226 41.8618 66.4181 42.1927 66.344ZM48.32 76.0858C47.9803 76.0727 47.6581 76.0466 47.3532 76.1816C47.1529 76.2731 47.1181 76.4342 47.2574 76.604C47.4098 76.7869 47.5884 76.7956 47.7713 76.6737C47.9934 76.5256 48.1937 76.3558 48.32 76.0858ZM48.7163 79.5871C48.8382 79.5871 49.3565 79.095 49.3434 78.9077C49.339 78.8294 49.2737 78.8381 49.2258 78.8424C48.9602 78.8642 48.7032 78.9034 48.4594 79.0253C48.3374 79.0863 48.2024 79.1647 48.2634 79.3214C48.3244 79.4739 48.4376 79.5958 48.7163 79.5871ZM46.7348 81.2811C46.8829 81.2463 46.9918 81.1592 47.0658 81.0373C47.179 80.8544 47.2052 80.641 47.2618 80.4406C47.2748 80.3884 47.301 80.3318 47.2444 80.2969C47.1921 80.2665 47.1398 80.3013 47.0963 80.3274C46.8873 80.4581 46.6739 80.58 46.504 80.7629C46.4126 80.8587 46.3385 80.9632 46.4039 81.0895C46.4692 81.2158 46.6129 81.2419 46.7348 81.2811ZM41.6919 71.0298C41.644 71.0298 41.6179 71.0298 41.5918 71.0298C41.4568 71.0298 41.3131 71.0168 41.2477 71.1692C41.1911 71.3042 41.2434 71.4305 41.3392 71.535C41.4437 71.6482 41.5656 71.6831 41.7224 71.6264C41.9227 71.5524 42.1056 71.4479 42.2798 71.326C42.3277 71.2911 42.3974 71.2606 42.3756 71.1866C42.3582 71.1256 42.2885 71.13 42.2406 71.1213C42.0534 71.0734 41.8661 71.0168 41.6919 71.0298ZM43.9347 72.4147C43.8911 72.4147 43.8476 72.4147 43.804 72.4147C43.6516 72.4147 43.4905 72.4103 43.4208 72.5802C43.3729 72.7021 43.4339 72.824 43.5166 72.9198C43.6385 73.0592 43.791 73.0679 43.9434 72.9939C44.0827 72.9242 44.2221 72.8458 44.3527 72.7587C44.4311 72.7065 44.5487 72.6455 44.54 72.554C44.5269 72.4277 44.3789 72.4931 44.3005 72.4582C44.1829 72.406 44.0566 72.4147 43.9347 72.4147ZM46.7827 66.2874C46.504 66.1045 46.2602 65.9695 45.9858 65.8998C45.8465 65.865 45.6592 65.7953 45.5895 66.0218C45.5198 66.2613 45.6374 66.479 45.8639 66.5052C46.1774 66.54 46.4648 66.4311 46.7827 66.2874ZM47.3968 73.5165C47.3837 73.4511 47.4273 73.3684 47.3489 73.3466C47.3097 73.3335 47.2444 73.364 47.2052 73.3902C47.0135 73.5165 46.8176 73.634 46.6608 73.8082C46.5476 73.9302 46.4779 74.0521 46.6042 74.2002C46.7392 74.3569 46.9439 74.3613 47.0963 74.2263C47.3184 74.0347 47.3271 73.756 47.3968 73.5165ZM42.6456 73.0548C42.2973 72.9242 42.0273 72.7848 41.7094 72.7848C41.5613 72.7848 41.3958 72.7544 41.3915 72.9895C41.3871 73.216 41.509 73.3597 41.7224 73.3771C42.049 73.3989 42.3103 73.229 42.6456 73.0548Z" fill="#F0534F"/>
<path d="M60.2044 72.2056C60.2218 73.8823 60.0432 75.5327 59.4727 77.1223C59.1026 78.15 58.5539 79.0515 57.6611 79.709C57.1255 80.1053 56.5115 80.3013 55.8495 80.3884C55.1223 80.4885 54.4255 80.4015 53.7418 80.1794C52.8142 79.8745 52.3134 79.2039 52.1827 78.2545C52.0608 77.34 52.1131 76.4255 52.2219 75.511C52.3003 74.8665 52.3134 74.2089 52.3961 73.5644C52.505 72.7108 52.5181 71.8529 52.4876 70.9994C52.4397 69.5231 52.1479 68.099 51.499 66.7577C50.885 65.4861 50.3276 64.1884 49.9748 62.8123C49.7876 62.0894 49.7005 61.3534 49.8311 60.6131C49.9618 59.8727 50.4582 59.4982 51.155 59.3458C52.8011 58.9844 54.199 59.5287 55.4445 60.5695C57.0906 61.95 58.1576 63.7355 58.9894 65.6821C59.3595 66.5444 59.6556 67.4284 59.8429 68.3516C59.9997 69.1268 60.0868 69.915 60.1565 70.7032C60.2044 71.1997 60.1913 71.7048 60.2044 72.2056ZM54.199 64.2319C54.5474 64.2058 54.8392 64.1535 55.0918 63.9837C55.279 63.8574 55.2877 63.6353 55.1397 63.4481C54.9873 63.2521 54.8479 63.3479 54.7173 63.4698C54.5082 63.6745 54.3558 63.9184 54.199 64.2319ZM53.5066 62.0981C53.6285 62.0415 53.7113 62.0066 53.7897 61.9631C53.9856 61.8585 54.1903 61.7671 54.3035 61.5624C54.4081 61.3795 54.334 61.14 54.1424 61.0398C53.9377 60.9353 53.8463 61.0965 53.7766 61.2315C53.6373 61.4884 53.5371 61.7627 53.5066 62.0981ZM57.365 68.9177C57.6437 69.0527 57.8919 69.1224 58.1619 69.1137C58.2708 69.1094 58.3666 69.0658 58.445 68.9874C58.58 68.8611 58.5887 68.7044 58.506 68.5519C58.4276 68.4039 58.2969 68.43 58.1619 68.4735C57.8832 68.5606 57.6394 68.7174 57.365 68.9177ZM50.9155 61.7323C51.2595 61.7148 51.5556 61.6582 51.8126 61.4753C51.9911 61.3447 51.9955 61.1487 51.8648 60.9658C51.7124 60.7568 51.56 60.87 51.4381 60.9745C51.2116 61.1748 51.0635 61.4318 50.9155 61.7323ZM52.7227 67.6113C52.8055 67.6287 52.849 67.6331 52.8926 67.6418C53.1582 67.7115 53.4195 67.6984 53.6634 67.5765C53.8724 67.4719 53.9247 67.2629 53.8071 67.0626C53.6895 66.871 53.5415 66.9406 53.3977 67.0234C53.1452 67.1715 52.9274 67.3631 52.7227 67.6113ZM55.2573 67.7332C55.3835 67.7942 55.4794 67.8508 55.5839 67.8856C55.7581 67.9423 55.9323 68.0163 56.1239 67.9945C56.3373 67.9727 56.5027 67.7594 56.4679 67.5634C56.4244 67.3326 56.2415 67.3326 56.076 67.3674C55.7929 67.424 55.5185 67.5242 55.2573 67.7332ZM53.4456 78.5027C53.7156 78.7161 53.9377 78.9165 54.2469 78.9731C54.4516 79.0123 54.6519 78.8642 54.6737 78.6465C54.6955 78.4069 54.53 78.3765 54.3515 78.3634C54.0553 78.3503 53.7723 78.3895 53.4456 78.5027ZM55.9148 79.1037C56.0368 79.4347 56.2197 79.6742 56.481 79.8484C56.6682 79.9747 56.8903 79.8963 56.9861 79.6829C57.0776 79.4869 56.9556 79.3955 56.7989 79.3214C56.5289 79.1865 56.2371 79.1473 55.9148 79.1037ZM56.751 66.6053C57.0863 66.6445 57.365 66.6184 57.6306 66.5139C57.8527 66.4268 57.9224 66.209 57.8092 65.9913C57.6873 65.7561 57.5087 65.8432 57.3694 65.9521C57.1385 66.1263 56.9295 66.3266 56.751 66.6053ZM56.7815 77.2486C56.5332 77.2573 56.3024 77.34 56.0629 77.401C55.941 77.4358 55.9453 77.5011 56.0324 77.5577C56.2502 77.7058 56.481 77.8408 56.7466 77.8756C56.9556 77.9061 57.1124 77.7494 57.1211 77.5273C57.1385 77.2834 56.9774 77.2398 56.7815 77.2486ZM53.6198 71.7789C53.855 71.9923 54.1032 72.1098 54.3776 72.1839C54.5344 72.2274 54.6563 72.1621 54.7477 72.0489C54.8261 71.9487 54.8697 71.8268 54.8174 71.7048C54.7521 71.5568 54.6084 71.5611 54.4777 71.5698C54.186 71.5873 53.9116 71.6613 53.6198 71.7789ZM54.125 73.425C54.3035 73.4076 54.4516 73.3161 54.5039 73.1506C54.5561 72.9808 54.4081 72.8981 54.2861 72.8371C54.1685 72.7805 54.0423 72.7326 53.916 72.7065C53.7766 72.6803 53.585 72.5453 53.4979 72.6673C53.389 72.811 53.585 72.946 53.6677 73.0679C53.7723 73.229 53.8942 73.3989 54.125 73.425ZM53.45 66.5226C53.6155 66.5182 53.7723 66.5008 53.9029 66.405C54.0858 66.27 54.0858 66.0784 53.99 65.9129C53.8942 65.7474 53.7244 65.804 53.5937 65.8781C53.4195 65.9782 53.2584 66.1002 53.0973 66.2221C53.0319 66.27 52.9231 66.3223 52.9492 66.4181C52.9753 66.5052 53.0885 66.4573 53.1626 66.479C53.2584 66.5052 53.3585 66.5095 53.45 66.5226ZM55.9671 64.2842C56.3024 64.2885 56.5855 64.2319 56.8294 64.0665C56.9905 63.9532 57.021 63.6745 56.8947 63.5221C56.7379 63.3348 56.5811 63.4524 56.4635 63.5656C56.2545 63.7529 56.089 63.9794 55.9671 64.2842ZM53.1974 69.3532C53.4979 69.5231 53.7897 69.6319 54.1163 69.5971C54.2992 69.5797 54.4342 69.3881 54.4037 69.1921C54.3776 69.0266 54.2644 68.9395 54.1032 68.97C53.7853 69.0397 53.4848 69.1529 53.1974 69.3532ZM58.2752 72.6803C58.1576 72.6803 58.0705 72.6803 57.979 72.6803C57.9006 72.6803 57.844 72.7195 57.9137 72.7892C58.114 72.9939 58.2708 73.2552 58.58 73.3292C58.7803 73.3771 58.9458 73.2682 59.0111 73.0461C59.0721 72.8327 58.9023 72.7848 58.7673 72.7413C58.5974 72.689 58.4232 72.6585 58.2752 72.6803ZM57.8615 70.7598C58.1968 70.8469 58.5016 70.8644 58.8021 70.7598C58.9763 70.6989 59.0503 70.4463 58.9632 70.2634C58.8718 70.0761 58.7194 70.1153 58.58 70.185C58.3144 70.3156 58.0835 70.4855 57.8615 70.7598ZM53.4761 75.5806C53.8027 75.7418 54.0553 75.929 54.3819 75.9247C54.6302 75.9203 54.6911 75.7374 54.7129 75.5502C54.739 75.3368 54.5431 75.315 54.4037 75.315C54.0989 75.3237 53.8027 75.3934 53.4761 75.5806ZM58.8021 75.5981C58.5495 75.5937 58.3144 75.6677 58.0835 75.7635C58.0095 75.794 57.9442 75.8419 58.0531 75.9073C58.2752 76.051 58.506 76.1903 58.7847 76.1903C59.0068 76.1903 59.1853 76.0292 59.181 75.8158C59.1679 75.5632 58.9676 75.6024 58.8021 75.5981ZM55.7798 70.9427C56.0977 71.0995 56.3721 71.1692 56.6682 71.1387C56.886 71.1169 56.9905 70.9427 56.9644 70.6945C56.9426 70.5116 56.8119 70.4811 56.6769 70.5073C56.359 70.5769 56.0803 70.7337 55.7798 70.9427ZM52.0869 63.8574C52.309 63.8008 52.5573 63.766 52.7619 63.6135C52.9361 63.4873 52.9579 63.2695 52.8229 63.0997C52.6835 62.9342 52.5442 62.9952 52.4092 63.1084C52.2089 63.2739 52.0826 63.5003 51.9476 63.7137C51.8648 63.84 51.9694 63.8574 52.0869 63.8574ZM55.6187 74.161C55.6318 74.2873 55.7189 74.3656 55.7842 74.431C55.941 74.5921 56.1021 74.7706 56.346 74.8011C56.5594 74.8316 56.6856 74.7053 56.7423 74.5224C56.8032 74.3265 56.6552 74.2611 56.5027 74.2132C56.2153 74.1261 55.9235 74.1784 55.6187 74.161ZM51.965 65.8258C52.2089 65.8302 52.444 65.804 52.6269 65.6168C52.7706 65.4731 52.7402 65.3032 52.6356 65.1595C52.5268 65.0071 52.3831 65.0768 52.2568 65.1508C52.0347 65.2858 51.8692 65.4818 51.7124 65.6821C51.634 65.7779 51.6645 65.8215 51.7821 65.8258C51.8387 65.8258 51.904 65.8258 51.965 65.8258Z" fill="#F0534F"/>
<path d="M46.6826 78.751C46.6739 78.7684 46.6695 78.7858 46.6608 78.7989C46.4953 79.0123 46.3429 79.2431 46.0816 79.365C45.8682 79.4652 45.6244 79.3606 45.559 79.1298C45.4937 78.899 45.6766 78.8381 45.8377 78.7989C46.0729 78.7379 46.3168 78.6856 46.565 78.69C46.6129 78.69 46.6782 78.6682 46.6826 78.751Z" fill="#F4A73B"/>
<path d="M45.411 62.3158C45.1802 62.3289 44.9885 62.2984 44.884 62.0763C44.8187 61.9326 44.8361 61.7932 44.9406 61.6844C45.0321 61.5842 45.1497 61.6277 45.2585 61.6756C45.4937 61.7802 45.7027 61.9239 45.9031 62.0806C45.9423 62.1111 46.0032 62.146 45.9684 62.2026C45.951 62.2331 45.8987 62.2548 45.8595 62.2592C45.7071 62.2723 45.5547 62.3419 45.411 62.3158Z" fill="#F4A63B"/>
<path d="M45.7724 67.3065C45.4719 67.4763 45.2194 67.6418 44.9058 67.6287C44.6881 67.62 44.4921 67.4066 44.5444 67.2019C44.601 66.9755 44.7708 66.9755 44.9668 67.019C45.2324 67.08 45.4937 67.141 45.7724 67.3065Z" fill="#F4A63B"/>
<path d="M45.215 76.395C45.1061 76.3863 44.9755 76.3297 44.9102 76.186C44.8535 76.051 44.9276 75.9508 45.0277 75.8637C45.2498 75.6721 45.5198 75.5981 45.7898 75.5066C45.829 75.4935 45.8769 75.4935 45.89 75.5545C45.9335 75.7592 45.4937 76.3732 45.2847 76.395C45.2716 76.3994 45.2629 76.395 45.215 76.395Z" fill="#F3A63B"/>
<path d="M43.7344 63.4263C43.386 63.435 43.0985 63.3871 42.8373 63.239C42.6587 63.1389 42.6239 62.9734 42.7023 62.7818C42.7763 62.6076 42.8852 62.5335 43.0724 62.6424C43.3685 62.8253 43.5253 63.1171 43.7344 63.4263Z" fill="#F4A63B"/>
<path d="M43.9085 77.8277C44.0131 77.8626 44.1481 77.7755 44.1829 77.8931C44.209 77.9802 44.1089 78.0629 44.0392 78.1326C43.9085 78.2632 43.791 78.4026 43.6124 78.481C43.3685 78.5811 43.1726 78.5027 43.0898 78.2502C43.0027 77.9889 43.2205 77.9584 43.3816 77.9148C43.5558 77.8626 43.7431 77.8539 43.9085 77.8277Z" fill="#F4A63B"/>
<path d="M46.3473 68.3429C46.0729 68.5302 45.8116 68.6347 45.5155 68.6434C45.3631 68.6477 45.2324 68.6042 45.1802 68.4474C45.141 68.3342 45.0756 68.2123 45.1802 68.099C45.2934 67.9814 45.424 68.0032 45.5721 68.0381C45.8334 68.1077 46.0816 68.1948 46.3473 68.3429Z" fill="#F4A63B"/>
<path d="M43.2335 75.0058C43.116 75.2715 43.0506 75.5719 42.7937 75.7461C42.6021 75.8768 42.4366 75.781 42.306 75.6329C42.1579 75.4674 42.2929 75.3542 42.4061 75.2584C42.6065 75.0973 42.846 75.0014 43.0898 74.9231C43.1552 74.9013 43.2335 74.8969 43.2335 75.0058Z" fill="#F3A63B"/>
<path d="M45.8595 64.5368C45.5285 64.6282 45.2368 64.7153 44.9276 64.6021C44.7055 64.5194 44.6227 64.319 44.7229 64.11C44.8274 63.8835 44.9929 63.9576 45.1453 64.036C45.3979 64.1579 45.6374 64.3016 45.8595 64.5368Z" fill="#F4A63B"/>
<path d="M43.8084 65.6603C43.5035 65.7997 43.2379 65.791 42.9766 65.7648C42.7676 65.7431 42.6108 65.6298 42.6152 65.386C42.6195 65.1508 42.7589 65.055 42.981 65.129C43.2902 65.2292 43.521 65.4513 43.8084 65.6603Z" fill="#F4A63B"/>
<path d="M43.1944 69.8671C42.9374 69.8758 42.8242 69.7234 42.8068 69.5318C42.785 69.3445 42.9505 69.3184 43.1029 69.2705C43.3729 69.1834 43.6255 69.3053 43.8868 69.2879C43.9695 69.2836 43.9913 69.3271 43.9477 69.4055C43.8476 69.5753 43.3642 69.8671 43.1944 69.8671Z" fill="#F4A73A"/>
<path d="M46.4866 70.1458C46.295 70.381 46.1034 70.5552 45.8508 70.664C45.6069 70.7642 45.4415 70.7032 45.3326 70.4681C45.2498 70.2895 45.3065 70.1763 45.485 70.124C45.8073 70.0282 46.1295 70.0674 46.4866 70.1458Z" fill="#F3A63B"/>
<path d="M46.1295 73.2639C45.9292 73.2682 45.8203 73.1332 45.7724 72.9721C45.7202 72.7935 45.8682 72.7239 46.0032 72.6803C46.2558 72.6019 46.5127 72.5627 46.7784 72.5758C46.835 72.5802 46.9177 72.5584 46.8873 72.6673C46.8306 72.8806 46.3473 73.2639 46.1295 73.2639Z" fill="#F3A63B"/>
<path d="M42.2102 68.7915C41.8705 68.9134 41.5874 69.0702 41.2477 68.97C41.0082 68.9003 41.0039 68.7131 41.0256 68.5258C41.0518 68.3124 41.2303 68.3603 41.3566 68.3777C41.6658 68.4169 41.9271 68.5781 42.2102 68.7915Z" fill="#F4A63B"/>
<path d="M42.1927 66.344C41.8574 66.4181 41.57 66.5182 41.2652 66.4094C41.0823 66.344 41.0039 66.2177 41.0169 66.0261C41.0344 65.8171 41.1606 65.7169 41.3566 65.791C41.6658 65.9042 41.9227 66.0915 42.1927 66.344Z" fill="#F4A63B"/>
<path d="M48.32 76.0858C48.1894 76.3558 47.9934 76.5256 47.7713 76.6737C47.584 76.8 47.4055 76.7869 47.2574 76.604C47.1181 76.4342 47.1485 76.2687 47.3532 76.1816C47.6624 76.0466 47.9847 76.0771 48.32 76.0858Z" fill="#F4A73B"/>
<path d="M48.7163 79.5871C48.4376 79.5958 48.3244 79.4695 48.2634 79.3258C48.1981 79.169 48.3331 79.0906 48.4594 79.0297C48.6989 78.9077 48.9602 78.8642 49.2258 78.8468C49.2737 78.8424 49.339 78.8294 49.3434 78.9121C49.3521 79.0994 48.8382 79.5871 48.7163 79.5871Z" fill="#F4A73A"/>
<path d="M46.7348 81.2811C46.6129 81.2376 46.4692 81.2158 46.4039 81.0895C46.3385 80.9632 46.4126 80.8587 46.504 80.7629C46.6739 80.58 46.8873 80.4537 47.0963 80.3274C47.1398 80.3013 47.1921 80.2665 47.2444 80.2969C47.301 80.3318 47.2748 80.3884 47.2618 80.4406C47.2095 80.6453 47.179 80.8544 47.0658 81.0373C46.9918 81.1635 46.8873 81.2506 46.7348 81.2811Z" fill="#F3A63B"/>
<path d="M41.6919 71.0298C41.8705 71.0168 42.0577 71.0734 42.245 71.1169C42.2929 71.1256 42.3626 71.1213 42.38 71.1823C42.3974 71.2563 42.3277 71.2911 42.2842 71.3216C42.11 71.4436 41.9271 71.5481 41.7268 71.6221C41.57 71.6787 41.4481 71.6482 41.3435 71.5306C41.2521 71.4261 41.1955 71.2998 41.2521 71.1648C41.3174 71.0124 41.4611 71.0255 41.5961 71.0255C41.6179 71.0298 41.644 71.0298 41.6919 71.0298Z" fill="#F4A73A"/>
<path d="M43.9347 72.4147C44.0566 72.419 44.1829 72.406 44.3005 72.4539C44.3832 72.4887 44.5269 72.4234 44.54 72.5497C44.5487 72.6411 44.4311 72.7021 44.3527 72.7544C44.2221 72.8415 44.0827 72.9198 43.9434 72.9895C43.7866 73.0679 43.6342 73.0592 43.5166 72.9155C43.4339 72.8197 43.3729 72.6977 43.4208 72.5758C43.4861 72.406 43.6516 72.4147 43.804 72.4103C43.8476 72.4147 43.8911 72.4147 43.9347 72.4147Z" fill="#F4A73B"/>
<path d="M46.7827 66.2874C46.4648 66.4311 46.1818 66.54 45.8682 66.5008C45.6374 66.4747 45.5242 66.2569 45.5939 66.0174C45.6592 65.791 45.8465 65.8606 45.9902 65.8955C46.2602 65.9695 46.504 66.1045 46.7827 66.2874Z" fill="#F4A73A"/>
<path d="M47.3968 73.5165C47.3227 73.7603 47.314 74.0347 47.1006 74.2263C46.9482 74.3613 46.7435 74.3526 46.6085 74.2002C46.4823 74.0521 46.5519 73.9302 46.6652 73.8082C46.8219 73.634 47.0179 73.5165 47.2095 73.3902C47.2487 73.364 47.314 73.3335 47.3532 73.3466C47.4273 73.3684 47.3837 73.4511 47.3968 73.5165Z" fill="#F4A73A"/>
<path d="M42.6456 73.0548C42.3103 73.229 42.049 73.3989 41.7224 73.3727C41.509 73.3553 41.3827 73.2073 41.3915 72.9852C41.3958 72.75 41.5656 72.7805 41.7094 72.7805C42.0229 72.7848 42.2973 72.9242 42.6456 73.0548Z" fill="#F4A73A"/>
<path d="M54.199 64.2319C54.3514 63.9184 54.5039 63.6745 54.7216 63.4742C54.8523 63.3523 54.9916 63.2565 55.144 63.4524C55.2921 63.6397 55.279 63.8574 55.0961 63.9881C54.8392 64.1535 54.5474 64.2058 54.199 64.2319Z" fill="#F4A63B"/>
<path d="M53.5066 62.0981C53.5371 61.7627 53.6373 61.4927 53.7723 61.2358C53.8463 61.1008 53.9334 60.9397 54.1381 61.0442C54.3297 61.1444 54.4037 61.3839 54.2992 61.5668C54.1816 61.7671 53.9769 61.8629 53.7853 61.9674C53.7113 62.0066 53.6285 62.0371 53.5066 62.0981Z" fill="#F4A73B"/>
<path d="M57.365 68.9177C57.6394 68.7174 57.8789 68.5606 58.1619 68.4779C58.3013 68.4344 58.4276 68.4082 58.506 68.5563C58.5887 68.7087 58.58 68.8611 58.445 68.9918C58.3666 69.0658 58.2708 69.1137 58.1619 69.1181C57.8919 69.1224 57.6437 69.0527 57.365 68.9177Z" fill="#F3A63B"/>
<path d="M50.9155 61.7323C51.0592 61.4274 51.2116 61.1705 51.4381 60.9745C51.56 60.87 51.7124 60.7568 51.8648 60.9658C51.9998 61.1487 51.9955 61.349 51.8126 61.4753C51.5556 61.6582 51.2595 61.7192 50.9155 61.7323Z" fill="#F3A63B"/>
<path d="M52.7227 67.6113C52.9274 67.3587 53.1452 67.1715 53.3934 67.0234C53.5371 66.9406 53.6852 66.871 53.8027 67.0626C53.9247 67.2585 53.8681 67.4719 53.659 67.5765C53.4152 67.6984 53.1539 67.7115 52.8882 67.6418C52.849 67.6331 52.8055 67.6287 52.7227 67.6113Z" fill="#F3A63B"/>
<path d="M55.2573 67.7332C55.5185 67.5242 55.7885 67.424 56.076 67.3674C56.2415 67.3326 56.4244 67.3326 56.4679 67.5634C56.5027 67.7594 56.3373 67.9684 56.1239 67.9945C55.9366 68.0163 55.7581 67.9423 55.5839 67.8856C55.4794 67.8508 55.3835 67.7942 55.2573 67.7332Z" fill="#F4A63B"/>
<path d="M53.4456 78.5027C53.7679 78.3895 54.0553 78.346 54.3471 78.3634C54.5256 78.3721 54.6955 78.4069 54.6694 78.6465C54.6476 78.8642 54.4516 79.0123 54.2426 78.9731C53.9377 78.9165 53.7156 78.7161 53.4456 78.5027Z" fill="#F3A63B"/>
<path d="M55.9148 79.1037C56.2371 79.1473 56.5289 79.1865 56.7989 79.3214C56.96 79.3998 57.0776 79.4913 56.9861 79.6829C56.886 79.8963 56.6639 79.9747 56.481 79.8484C56.224 79.6742 56.0368 79.4303 55.9148 79.1037Z" fill="#F3A63B"/>
<path d="M56.751 66.6053C56.9339 66.3266 57.1385 66.1263 57.365 65.9521C57.5044 65.8432 57.6829 65.7561 57.8048 65.9913C57.9224 66.209 57.8484 66.4268 57.6263 66.5139C57.3606 66.6184 57.0819 66.6445 56.751 66.6053Z" fill="#F3A63B"/>
<path d="M56.7815 77.2486C56.9818 77.2442 57.1385 77.2834 57.1255 77.5316C57.1124 77.7537 56.96 77.9105 56.751 77.88C56.4853 77.8408 56.2545 77.7058 56.0368 77.5621C55.9497 77.5011 55.9453 77.4358 56.0673 77.4053C56.2981 77.3356 56.5332 77.2573 56.7815 77.2486Z" fill="#F3A63B"/>
<path d="M53.6198 71.7789C53.9116 71.6613 54.1903 71.5873 54.4777 71.5655C54.6127 71.5568 54.7521 71.5524 54.8174 71.7005C54.8697 71.8268 54.8261 71.9444 54.7477 72.0445C54.6563 72.1621 54.5344 72.2231 54.3776 72.1795C54.1032 72.1055 53.855 71.9879 53.6198 71.7789Z" fill="#F4A73A"/>
<path d="M54.125 73.425C53.8942 73.3989 53.7723 73.229 53.6634 73.0635C53.5806 72.9416 53.389 72.8066 53.4935 72.6629C53.585 72.541 53.7723 72.676 53.9116 72.7021C54.0379 72.7282 54.1642 72.7761 54.2818 72.8327C54.4081 72.8937 54.5518 72.9765 54.4995 73.1463C54.4473 73.3205 54.3035 73.4076 54.125 73.425Z" fill="#F4A73B"/>
<path d="M53.45 66.5226C53.3542 66.5095 53.2584 66.5008 53.1669 66.4747C53.0929 66.4529 52.9797 66.5008 52.9535 66.4137C52.9231 66.3179 53.0319 66.27 53.1016 66.2177C53.2627 66.0958 53.4239 65.9739 53.5981 65.8737C53.7287 65.7997 53.8985 65.7431 53.9944 65.9085C54.0902 66.0784 54.0902 66.27 53.9073 66.4006C53.7723 66.5008 53.6155 66.5226 53.45 66.5226Z" fill="#F4A73B"/>
<path d="M55.9671 64.2842C56.089 63.9794 56.2545 63.7529 56.4592 63.5613C56.5768 63.4524 56.7335 63.3305 56.8903 63.5177C57.0166 63.6702 56.9905 63.9489 56.825 64.0621C56.5811 64.2319 56.2981 64.2885 55.9671 64.2842Z" fill="#F3A63B"/>
<path d="M53.1974 69.3532C53.4848 69.1529 53.7853 69.0397 54.1032 68.9744C54.2644 68.9395 54.3776 69.0266 54.4037 69.1964C54.4342 69.3924 54.2992 69.584 54.1163 69.6014C53.7897 69.6276 53.4979 69.5231 53.1974 69.3532Z" fill="#F4A63B"/>
<path d="M58.2752 72.6803C58.4232 72.6585 58.5974 72.6934 58.7673 72.7456C58.9023 72.7892 59.0721 72.8371 59.0111 73.0505C58.9458 73.2726 58.7803 73.3815 58.58 73.3335C58.2752 73.2595 58.114 72.9982 57.9137 72.7935C57.8484 72.7239 57.905 72.6847 57.979 72.6847C58.0661 72.676 58.1576 72.6803 58.2752 72.6803Z" fill="#F4A73A"/>
<path d="M57.8615 70.7598C58.0792 70.4898 58.31 70.3156 58.5756 70.185C58.715 70.1153 58.8674 70.0761 58.9589 70.2634C59.046 70.4463 58.9719 70.6989 58.7977 70.7598C58.5016 70.8644 58.2011 70.8426 57.8615 70.7598Z" fill="#F4A73A"/>
<path d="M53.4761 75.5806C53.8027 75.3934 54.0989 75.3237 54.4037 75.315C54.5431 75.3106 54.739 75.3368 54.7129 75.5502C54.6911 75.7331 54.6258 75.916 54.3819 75.9247C54.051 75.929 53.8027 75.7418 53.4761 75.5806Z" fill="#F4A73A"/>
<path d="M58.8021 75.5981C58.9676 75.6024 59.1679 75.5632 59.1766 75.8158C59.1853 76.0292 59.0024 76.1903 58.7803 76.1903C58.5016 76.1903 58.2752 76.051 58.0487 75.9073C57.9442 75.8419 58.0052 75.794 58.0792 75.7635C58.3144 75.6677 58.5495 75.5937 58.8021 75.5981Z" fill="#F4A73A"/>
<path d="M55.7798 70.9427C56.0803 70.7381 56.359 70.5813 56.6769 70.5116C56.8119 70.4811 56.9426 70.516 56.9644 70.6989C56.9948 70.9471 56.886 71.1169 56.6682 71.1431C56.3721 71.1692 56.0977 71.0995 55.7798 70.9427Z" fill="#F4A73A"/>
<path d="M52.0869 63.8574C51.9694 63.8574 51.8648 63.8444 51.9476 63.7137C52.0826 63.496 52.2089 63.2739 52.4092 63.1084C52.5442 62.9995 52.6879 62.9385 52.8229 63.0997C52.9623 63.2652 52.9405 63.4829 52.7619 63.6135C52.5573 63.7616 52.309 63.7965 52.0869 63.8574Z" fill="#F4A73A"/>
<path d="M55.6187 74.161C55.9192 74.1784 56.211 74.1218 56.4984 74.2176C56.6508 74.2655 56.7989 74.3308 56.7379 74.5268C56.6813 74.7097 56.555 74.836 56.3416 74.8055C56.0977 74.7706 55.9366 74.5965 55.7798 74.4353C55.7189 74.3656 55.6318 74.2916 55.6187 74.161Z" fill="#F4A73A"/>
<path d="M51.965 65.8258C51.904 65.8258 51.8431 65.8258 51.7777 65.8258C51.6602 65.8258 51.634 65.7779 51.7081 65.6821C51.8692 65.4818 52.0347 65.2858 52.2524 65.1508C52.3744 65.0768 52.5224 65.0071 52.6313 65.1595C52.7358 65.3032 52.7663 65.4731 52.6226 65.6168C52.444 65.804 52.2089 65.8302 51.965 65.8258Z" fill="#F4A73A"/>
<path d="M49.4 53.8413C49.4871 53.8413 49.5742 53.8456 49.6656 53.85C50.21 53.8892 50.689 54.1069 51.1463 54.3813C52.6748 55.3045 54.2121 56.219 55.6318 57.3077C57.8266 58.9887 59.7732 60.9048 61.2452 63.2608C62.4123 65.129 63.1831 67.141 63.5097 69.3271C63.6708 70.4027 63.7144 71.4784 63.6447 72.554C63.5053 74.8098 63.0437 77.0003 62.0116 79.034C60.3742 82.2566 57.77 84.2686 54.2731 85.1308C53.7592 85.2571 53.2366 85.3311 52.7053 85.379C52.2611 85.4226 51.8344 85.5924 51.3858 85.6577C50.7369 85.7535 50.0881 85.8015 49.4523 85.8015C47.8758 85.8015 46.3429 85.501 44.8492 84.8347C42.4497 83.7677 40.6642 82.004 39.2663 79.8223C38.1776 78.1195 37.3545 76.2948 36.906 74.3134C36.6577 73.2073 36.5097 72.0881 36.5445 71.1039C36.514 68.4823 37.1063 66.1524 38.0644 63.901C39.1748 61.2881 40.7382 58.9626 42.5237 56.7721C42.8416 56.3802 43.1595 55.9882 43.4774 55.6006C44.1132 54.8211 44.9406 54.4423 45.9379 54.4423C45.9423 54.4423 45.951 54.4423 45.9553 54.4423C46.3037 54.4423 46.639 54.5206 46.9613 54.6426C47.0179 54.6644 47.0702 54.6774 47.1224 54.6774C47.2095 54.6774 47.2879 54.6426 47.3706 54.5729C47.9673 54.0765 48.6466 53.8413 49.4 53.8413ZM49.4 52.9921C48.5116 52.9921 47.7147 53.2534 47.0266 53.7716C46.6695 53.6584 46.3124 53.6018 45.964 53.5974H45.9423C45.3152 53.5974 44.736 53.7194 44.2177 53.9632C43.6908 54.2115 43.2205 54.5816 42.8242 55.0694C42.6935 55.2305 42.5629 55.3916 42.4323 55.5527C42.245 55.7835 42.0577 56.01 41.8705 56.2408C39.8106 58.7666 38.3126 61.1661 37.2848 63.5744C36.1744 66.1829 35.6692 68.5737 35.6953 71.0995C35.6605 72.0794 35.7911 73.2247 36.0785 74.505C36.5227 76.4908 37.3327 78.3852 38.5521 80.2839C40.1677 82.8053 42.1144 84.5516 44.5052 85.6142C46.0555 86.3023 47.719 86.655 49.4523 86.655C50.1185 86.655 50.811 86.6027 51.5077 86.5026C51.756 86.4677 51.9781 86.4068 52.1958 86.3545C52.4092 86.2979 52.6095 86.25 52.7837 86.2326C53.4413 86.1716 53.9813 86.0845 54.4734 85.9626C58.249 85.0306 61.0361 82.8315 62.7694 79.426C63.7666 77.4619 64.3327 75.2323 64.4939 72.615C64.5635 71.4784 64.5157 70.3287 64.3502 69.2095C64.0148 66.9668 63.2135 64.8155 61.9681 62.8166C60.5832 60.6 58.6802 58.5794 56.15 56.6371C54.7303 55.5484 53.1931 54.6208 51.7081 53.7281L51.5861 53.654C51.1289 53.3797 50.5061 53.0574 49.7223 53.0052C49.6134 52.9965 49.5045 52.9921 49.4 52.9921Z" fill="#FF9999"/>
</g>
</g>
</g>
<defs>
<filter id="filter0_d_5_69" x="0" y="28" width="115" height="95.5" filterUnits="userSpaceOnUse" color-interpolation-filters="sRGB">
<feFlood flood-opacity="0" result="BackgroundImageFix"/>
<feColorMatrix in="SourceAlpha" type="matrix" values="0 0 0 0 0 0 0 0 0 0 0 0 0 0 0 0 0 0 127 0" result="hardAlpha"/>
<feOffset dy="8"/>
<feGaussianBlur stdDeviation="9.5"/>
<feColorMatrix type="matrix" values="0 0 0 0 0.27451 0 0 0 0 0.223529 0 0 0 0 0.137255 0 0 0 0.1 0"/>
<feBlend mode="normal" in2="BackgroundImageFix" result="effect1_dropShadow_5_69"/>
<feBlend mode="normal" in="SourceGraphic" in2="effect1_dropShadow_5_69" result="shape"/>
</filter>
<clipPath id="clip0_5_69">
<rect width="116" height="96" fill="white"/>
</clipPath>
</defs>
</svg>
